<svg width="800" height="800" fill="none" xmlns="http://www.w3.org/2000/svg"><g clip-path="url(#a)"><rect width="800" height="800" rx="400" fill="#fff"/><g filter="url(#b)"><path d="M585.563 625.966c-177.77 63.623-218.937 174.651-218.937 379.244-113.338 0-191.493-258.328-191.493-379.244 0-120.916 91.878-218.938 205.215-218.938s205.215 98.022 205.215 218.938z" fill="#fff"/></g><g filter="url(#c)"><circle cx="418.374" cy="397.053" r="427.271" fill="#C3EEFF"/></g><mask id="d" style="mask-type:alpha" maskUnits="userSpaceOnUse" x="-9" y="-68" width="855" height="855"><circle cx="418.374" cy="359.398" r="427.271" fill="#C3EEFF"/></mask><g filter="url(#e)" mask="url(#d)"><ellipse cx="451.116" cy="-58.05" rx="502.575" ry="415.811" fill="#fff"/></g><path d="M274.263 342.959c-.546-7.714-3.662-12.856-9.428-15.427-5.843-2.572-11.609-2.572-17.374 0-5.766 2.571-8.883 7.713-9.272 15.427.078 12.622.078 25.244.156 37.866 0 5.376 0 10.752.078 16.128a401.496 401.496 0 0 0-69.11-55.942c-4.441-2.571-8.57-3.429-12.466-2.416-.701.078-1.325.234-1.948.39-5.142 1.558-8.726 4.363-10.674 8.492-2.026 4.13-2.649 8.649-1.948 13.635 5.064 37.633 13.323 74.564 24.621 110.794 2.727 7.246 7.324 11.297 13.635 12.232 6.389.935 11.92-.545 16.751-4.597 4.831-3.973 6.311-9.739 4.363-17.219-6.778-21.66-12.388-43.553-16.907-65.681a587.896 587.896 0 0 1 59.136 58.28c5.922 5.609 12.467 6.856 19.401 3.739 6.934-3.116 10.752-8.57 11.298-16.517-.078-33.036-.156-66.071-.312-99.184z" fill="url(#f)"/><path d="M351.75 338.907c-4.675-1.169-9.272-.623-13.713 1.714-4.441 2.338-7.246 5.922-8.415 10.83-1.169 5.922-2.337 11.921-3.506 17.842-5.999 30.075-11.921 60.15-17.842 90.224-.935 4.909-.312 9.506 1.792 13.635 2.181 4.13 5.765 6.935 10.752 8.493 4.753 1.169 9.35.545 13.713-1.792 4.441-2.26 7.246-5.922 8.492-10.83 2.338-11.999 4.753-23.998 7.09-35.996l14.259-71.993c.935-4.986.311-9.505-1.87-13.634-2.182-4.13-5.766-7.013-10.752-8.493z" fill="url(#g)"/><path d="M565.585 421.34c-18.621-29.452-33.425-60.695-44.332-93.808-3.585-8.805-9.35-13.09-17.142-12.856-7.869.311-13.712 4.597-17.608 12.856l-20.258 52.046a2941.024 2941.024 0 0 0-36.229-46.125c-4.519-4.753-10.129-6.311-16.752-4.675-3.974.701-7.402 2.493-10.285 5.298-2.804 2.883-4.441 6.779-4.83 11.765-1.714 37.633-.779 75.265 2.883 112.819.545 4.987 2.337 9.272 5.454 12.778 3.116 3.506 7.323 5.22 12.544 5.22 4.752 0 8.96-1.714 12.622-5.22 3.662-3.506 5.454-7.713 5.454-12.778-.078-.779-.078-1.48-.156-2.259a1542.85 1542.85 0 0 1-.234-4.363c-.078-1.403-.234-2.727-.545-3.896-1.481-17.531-2.338-34.983-2.649-52.436 7.479 9.661 14.959 19.401 22.283 29.218 5.22 6.389 11.22 9.194 17.92 8.414 6.623-.857 11.687-5.064 15.037-12.7 4.987-12.933 10.051-25.789 15.038-38.723 8.804 19.946 19.089 39.191 30.698 57.657 4.441 6.311 9.895 9.115 16.284 8.336 6.389-.701 11.375-3.584 15.037-8.726 3.584-5.064 3.506-10.986-.234-17.842z" fill="url(#h)"/><path d="M645.721 338.907c-4.675-1.169-9.272-.623-13.713 1.714-4.441 2.338-7.246 5.922-8.414 10.83-1.169 5.922-2.338 11.921-3.506 17.842-6 30.075-11.921 60.15-17.843 90.224-.935 4.909-.311 9.506 1.792 13.635 2.182 4.13 5.766 6.935 10.752 8.493 4.753 1.169 9.35.545 13.713-1.792 4.441-2.26 7.246-5.922 8.493-10.83 2.337-11.999 4.753-23.998 7.09-35.996l14.258-71.993c.935-4.986.312-9.505-1.87-13.634-2.181-4.13-5.765-7.013-10.752-8.493z" fill="url(#i)"/></g><defs><linearGradient id="f" x1="222.984" y1="240.832" x2="309.669" y2="577.638" gradientUnits="userSpaceOnUse"><stop stop-color="#4368EA"/><stop offset="1" stop-color="#C490DD"/></linearGradient><linearGradient id="g" x1="222.984" y1="240.832" x2="309.669" y2="577.638" gradientUnits="userSpaceOnUse"><stop stop-color="#4368EA"/><stop offset="1" stop-color="#C490DD"/></linearGradient><linearGradient id="h" x1="222.984" y1="240.832" x2="309.669" y2="577.638" gradientUnits="userSpaceOnUse"><stop stop-color="#4368EA"/><stop offset="1" stop-color="#C490DD"/></linearGradient><linearGradient id="i" x1="222.984" y1="240.832" x2="309.669" y2="577.638" gradientUnits="userSpaceOnUse"><stop stop-color="#4368EA"/><stop offset="1" stop-color="#C490DD"/></linearGradient><filter id="b" x="80.322" y="312.217" width="600.052" height="787.802" filterUnits="userSpaceOnUse" color-interpolation-filters="sRGB"><feFlood flood-opacity="0" result="BackgroundImageFix"/><feBlend in="SourceGraphic" in2="BackgroundImageFix" result="shape"/><feGaussianBlur stdDeviation="47.405" result="effect1_foregroundBlur_1090_30466"/></filter><filter id="c" x="-37.585" y="-51.734" width="893.988" height="876.058" filterUnits="userSpaceOnUse" color-interpolation-filters="sRGB"><feFlood flood-opacity="0" result="BackgroundImageFix"/><feBlend in="SourceGraphic" in2="BackgroundImageFix" result="shape"/><feColorMatrix in="SourceAlpha" values="0 0 0 0 0 0 0 0 0 0 0 0 0 0 0 0 0 0 127 0" result="hardAlpha"/><feOffset dx="-28.689" dy="-21.517"/><feGaussianBlur stdDeviation="39.447"/><feComposite in2="hardAlpha" operator="arithmetic" k2="-1" k3="1"/><feColorMatrix values="0 0 0 0 1 0 0 0 0 1 0 0 0 0 1 0 0 0 1 0"/><feBlend in2="shape" result="effect1_innerShadow_1090_30466"/><feColorMatrix in="SourceAlpha" values="0 0 0 0 0 0 0 0 0 0 0 0 0 0 0 0 0 0 127 0" result="hardAlpha"/><feOffset dx="10.758"/><feGaussianBlur stdDeviation="25.999"/><feComposite in2="hardAlpha" operator="arithmetic" k2="-1" k3="1"/><feColorMatrix values="0 0 0 0 1 0 0 0 0 1 0 0 0 0 1 0 0 0 1 0"/><feBlend in2="effect1_innerShadow_1090_30466" result="effect2_innerShadow_1090_30466"/></filter><filter id="e" x="-345.518" y="-767.92" width="1593.27" height="1419.74" filterUnits="userSpaceOnUse" color-interpolation-filters="sRGB"><feFlood flood-opacity="0" result="BackgroundImageFix"/><feBlend in="SourceGraphic" in2="BackgroundImageFix" result="shape"/><feGaussianBlur stdDeviation="147.03" result="effect1_foregroundBlur_1090_30466"/></filter><clipPath id="a"><rect width="800" height="800" rx="400" fill="#fff"/></clipPath></defs></svg>