<svg width="64" height="21" viewBox="0 0 64 21" fill="none" xmlns="http://www.w3.org/2000/svg">
<path d="M8.36567 15.7806C7.8352 15.7623 7.31387 15.7531 6.78339 15.7348C6.25292 15.7257 5.73159 15.7074 5.20111 15.6983C5.51208 11.9666 5.88707 8.24416 6.34438 4.53084C6.38096 3.93634 6.1706 3.4333 5.70415 3.03088C5.24685 2.6193 4.75295 2.40894 4.22248 2.40894C3.60054 2.40894 3.10665 2.6193 2.74995 3.03088C2.39326 3.44245 2.1829 3.93634 2.10973 4.53084C1.57925 8.93012 1.14024 13.3386 0.810977 17.7561C0.783539 18.3598 0.9939 18.8537 1.42377 19.2469C1.85363 19.6311 2.35667 19.8414 2.92373 19.8689L8.36567 20.0061C9.27114 19.9786 9.88393 19.6311 10.1857 18.9543C10.4876 18.2866 10.4876 17.6006 10.1766 16.9147C9.87478 16.2287 9.27114 15.8537 8.36567 15.7806ZM19.4281 3.44245C18.8793 3.30526 18.3397 3.36928 17.8184 3.64367C17.297 3.91805 16.9678 4.33877 16.8306 4.91498C16.6934 5.61008 16.5562 6.31433 16.419 7.00944C15.7148 10.5398 15.0197 14.0702 14.3246 17.6006C14.2148 18.1768 14.288 18.7165 14.5349 19.2012C14.791 19.686 15.2117 20.0152 15.7971 20.1981C16.355 20.3353 16.8946 20.2622 17.4068 19.9878C17.9281 19.7225 18.2574 19.2927 18.4037 18.7165C18.6781 17.308 18.9616 15.8995 19.236 14.491C19.7939 11.674 20.3518 8.85695 20.9098 6.03995C21.0195 5.4546 20.9463 4.92412 20.6903 4.43938C20.4342 3.95463 20.0134 3.61623 19.4281 3.44245ZM44.5298 13.119C42.3439 9.66181 40.6061 5.99422 39.3257 2.10712C38.9049 1.07361 38.2281 0.570569 37.3135 0.598008C36.3897 0.634592 35.7038 1.13763 35.2465 2.10712L32.8685 8.21673C31.4691 6.39665 30.0515 4.59486 28.6155 2.80222C28.0851 2.24431 27.4266 2.06139 26.6491 2.25346C26.1827 2.33577 25.7802 2.54613 25.4418 2.87539C25.1126 3.2138 24.9205 3.6711 24.8748 4.25646C24.6736 8.67403 24.7833 13.0916 25.2132 17.5C25.2772 18.0854 25.4876 18.5884 25.8534 19C26.2193 19.4116 26.7132 19.6128 27.3259 19.6128C27.8839 19.6128 28.3777 19.4116 28.8076 19C29.2375 18.5884 29.4478 18.0945 29.4478 17.5C29.4387 17.4086 29.4387 17.3263 29.4296 17.2348C29.4204 17.0702 29.4113 16.8964 29.4021 16.7226C29.393 16.558 29.3747 16.4025 29.3381 16.2653C29.1643 14.2074 29.0637 12.1587 29.0271 10.11C29.9051 11.2441 30.7832 12.3874 31.6429 13.5398C32.2557 14.2897 32.96 14.619 33.7465 14.5275C34.5239 14.4269 35.1184 13.933 35.5117 13.0367C36.0971 11.5185 36.6916 10.0094 37.2769 8.49111C38.3104 10.8325 39.5177 13.0916 40.8805 15.2592C41.4018 16.0001 42.042 16.3293 42.792 16.2379C43.542 16.1556 44.1274 15.8172 44.5572 15.2135C44.978 14.619 44.9688 13.9239 44.5298 13.119ZM58.583 1.53091C58.1714 0.918122 57.5678 0.579715 56.7812 0.506546C54.8056 0.378501 53.0313 0.826661 51.449 1.86017C49.8667 2.89368 48.8515 4.39365 48.4034 6.36006C47.9643 8.57342 48.1198 10.7411 48.879 12.8812C49.6289 15.0214 51.1106 16.5123 53.3148 17.3628C55.519 17.9848 57.4763 17.6647 59.1866 16.3934C60.9061 15.122 62.1408 13.5032 62.9182 11.5459C63.6774 9.48804 63.6865 7.4393 62.9457 5.39972C62.2049 3.35099 60.7506 2.06139 58.583 1.53091ZM58.7476 10.6222C58.336 11.5551 57.6958 12.3142 56.8269 12.9087C55.9672 13.5032 55.0251 13.5581 54.0008 13.0916C53.1502 12.5428 52.6472 11.6374 52.4917 10.3844C52.3362 9.12219 52.3545 8.04295 52.5465 7.12834C52.7478 6.28689 53.1868 5.6741 53.8544 5.30826C54.5313 4.93327 55.2721 4.73205 56.0861 4.72291C56.4154 5.27167 56.9733 5.58264 57.7507 5.65581C58.4367 5.72898 58.8757 6.09483 59.0677 6.73505C59.2507 7.38443 59.2964 8.08868 59.1958 8.84781C59.086 9.60694 58.9397 10.2014 58.7476 10.6222Z" fill="#7A52F4"/>
<path d="M8.36567 15.7806C7.8352 15.7623 7.31387 15.7531 6.78339 15.7348C6.25292 15.7257 5.73159 15.7074 5.20111 15.6983C5.51208 11.9666 5.88707 8.24416 6.34438 4.53084C6.38096 3.93634 6.1706 3.4333 5.70415 3.03088C5.24685 2.6193 4.75295 2.40894 4.22248 2.40894C3.60054 2.40894 3.10665 2.6193 2.74995 3.03088C2.39326 3.44245 2.1829 3.93634 2.10973 4.53084C1.57925 8.93012 1.14024 13.3386 0.810977 17.7561C0.783539 18.3598 0.9939 18.8537 1.42377 19.2469C1.85363 19.6311 2.35667 19.8414 2.92373 19.8689L8.36567 20.0061C9.27114 19.9786 9.88393 19.6311 10.1857 18.9543C10.4876 18.2866 10.4876 17.6006 10.1766 16.9147C9.87478 16.2287 9.27114 15.8537 8.36567 15.7806ZM19.4281 3.44245C18.8793 3.30526 18.3397 3.36928 17.8184 3.64367C17.297 3.91805 16.9678 4.33877 16.8306 4.91498C16.6934 5.61008 16.5562 6.31433 16.419 7.00944C15.7148 10.5398 15.0197 14.0702 14.3246 17.6006C14.2148 18.1768 14.288 18.7165 14.5349 19.2012C14.791 19.686 15.2117 20.0152 15.7971 20.1981C16.355 20.3353 16.8946 20.2622 17.4068 19.9878C17.9281 19.7225 18.2574 19.2927 18.4037 18.7165C18.6781 17.308 18.9616 15.8995 19.236 14.491C19.7939 11.674 20.3518 8.85695 20.9098 6.03995C21.0195 5.4546 20.9463 4.92412 20.6903 4.43938C20.4342 3.95463 20.0134 3.61623 19.4281 3.44245ZM44.5298 13.119C42.3439 9.66181 40.6061 5.99422 39.3257 2.10712C38.9049 1.07361 38.2281 0.570569 37.3135 0.598008C36.3897 0.634592 35.7038 1.13763 35.2465 2.10712L32.8685 8.21673C31.4691 6.39665 30.0515 4.59486 28.6155 2.80222C28.0851 2.24431 27.4266 2.06139 26.6491 2.25346C26.1827 2.33577 25.7802 2.54613 25.4418 2.87539C25.1126 3.2138 24.9205 3.6711 24.8748 4.25646C24.6736 8.67403 24.7833 13.0916 25.2132 17.5C25.2772 18.0854 25.4876 18.5884 25.8534 19C26.2193 19.4116 26.7132 19.6128 27.3259 19.6128C27.8839 19.6128 28.3777 19.4116 28.8076 19C29.2375 18.5884 29.4478 18.0945 29.4478 17.5C29.4387 17.4086 29.4387 17.3263 29.4296 17.2348C29.4204 17.0702 29.4113 16.8964 29.4021 16.7226C29.393 16.558 29.3747 16.4025 29.3381 16.2653C29.1643 14.2074 29.0637 12.1587 29.0271 10.11C29.9051 11.2441 30.7832 12.3874 31.6429 13.5398C32.2557 14.2897 32.96 14.619 33.7465 14.5275C34.5239 14.4269 35.1184 13.933 35.5117 13.0367C36.0971 11.5185 36.6916 10.0094 37.2769 8.49111C38.3104 10.8325 39.5177 13.0916 40.8805 15.2592C41.4018 16.0001 42.042 16.3293 42.792 16.2379C43.542 16.1556 44.1274 15.8172 44.5572 15.2135C44.978 14.619 44.9688 13.9239 44.5298 13.119ZM58.583 1.53091C58.1714 0.918122 57.5678 0.579715 56.7812 0.506546C54.8056 0.378501 53.0313 0.826661 51.449 1.86017C49.8667 2.89368 48.8515 4.39365 48.4034 6.36006C47.9643 8.57342 48.1198 10.7411 48.879 12.8812C49.6289 15.0214 51.1106 16.5123 53.3148 17.3628C55.519 17.9848 57.4763 17.6647 59.1866 16.3934C60.9061 15.122 62.1408 13.5032 62.9182 11.5459C63.6774 9.48804 63.6865 7.4393 62.9457 5.39972C62.2049 3.35099 60.7506 2.06139 58.583 1.53091ZM58.7476 10.6222C58.336 11.5551 57.6958 12.3142 56.8269 12.9087C55.9672 13.5032 55.0251 13.5581 54.0008 13.0916C53.1502 12.5428 52.6472 11.6374 52.4917 10.3844C52.3362 9.12219 52.3545 8.04295 52.5465 7.12834C52.7478 6.28689 53.1868 5.6741 53.8544 5.30826C54.5313 4.93327 55.2721 4.73205 56.0861 4.72291C56.4154 5.27167 56.9733 5.58264 57.7507 5.65581C58.4367 5.72898 58.8757 6.09483 59.0677 6.73505C59.2507 7.38443 59.2964 8.08868 59.1958 8.84781C59.086 9.60694 58.9397 10.2014 58.7476 10.6222Z" fill="white" fill-opacity="0.5"/>
</svg>
