<svg width="105" height="35" viewBox="0 0 105 35" fill="none" xmlns="http://www.w3.org/2000/svg">
<path d="M27.3438 6.48926C27.2344 4.94238 26.6094 3.91113 25.4531 3.39551C24.2812 2.87988 23.125 2.87988 21.9688 3.39551C20.8125 3.91113 20.1875 4.94238 20.1094 6.48926C20.125 9.02051 20.125 11.5518 20.1406 14.083C20.1406 15.1611 20.1406 16.2393 20.1562 17.3174C15.9531 13.0674 11.3438 9.33301 6.29688 6.09863C5.40625 5.58301 4.57812 5.41113 3.79688 5.61426C3.65625 5.62988 3.53125 5.66113 3.40625 5.69238C2.375 6.00488 1.65625 6.56738 1.26562 7.39551C0.859375 8.22363 0.734375 9.12988 0.875 10.1299C1.89062 17.6768 3.54688 25.083 5.8125 32.3486C6.35938 33.8018 7.28125 34.6143 8.54688 34.8018C9.82812 34.9893 10.9375 34.6924 11.9062 33.8799C12.875 33.083 13.1719 31.9268 12.7812 30.4268C11.4219 26.083 10.2969 21.6924 9.39062 17.2549C13.6094 20.8643 17.5625 24.7549 21.25 28.9424C22.4375 30.0674 23.75 30.3174 25.1406 29.6924C26.5312 29.0674 27.2969 27.9736 27.4062 26.3799C27.3906 19.7549 27.375 13.1299 27.3438 6.48926ZM42.8831 5.67676C41.9456 5.44238 41.0238 5.55176 40.1331 6.02051C39.2425 6.48926 38.68 7.20801 38.4456 8.19238C38.2113 9.37988 37.9769 10.583 37.7425 11.7705C36.5394 17.8018 35.3519 23.833 34.1644 29.8643C33.9769 30.8486 34.1019 31.7705 34.5238 32.5986C34.9613 33.4268 35.68 33.9893 36.68 34.3018C37.6331 34.5361 38.555 34.4111 39.43 33.9424C40.3206 33.4893 40.8831 32.7549 41.1331 31.7705C41.6019 29.3643 42.0863 26.958 42.555 24.5518C43.5081 19.7393 44.4613 14.9268 45.4144 10.1143C45.6019 9.11426 45.4769 8.20801 45.0394 7.37988C44.6019 6.55176 43.8831 5.97363 42.8831 5.67676ZM85.7663 22.208C82.0319 16.3018 79.0631 10.0361 76.8756 3.39551C76.1569 1.62988 75.0006 0.770508 73.4381 0.817383C71.86 0.879883 70.6881 1.73926 69.9069 3.39551L65.8444 13.833C63.4538 10.7236 61.0319 7.64551 58.5788 4.58301C57.6725 3.62988 56.5475 3.31738 55.2194 3.64551C54.4225 3.78613 53.735 4.14551 53.1569 4.70801C52.5944 5.28613 52.2663 6.06738 52.1881 7.06738C51.8444 14.6143 52.0319 22.1611 52.7663 29.6924C52.8756 30.6924 53.235 31.5518 53.86 32.2549C54.485 32.958 55.3288 33.3018 56.3756 33.3018C57.3288 33.3018 58.1725 32.958 58.9069 32.2549C59.6413 31.5518 60.0006 30.708 60.0006 29.6924C59.985 29.5361 59.985 29.3955 59.9694 29.2393C59.9538 28.958 59.9381 28.6611 59.9225 28.3643C59.9069 28.083 59.8756 27.8174 59.8131 27.583C59.5163 24.0674 59.3444 20.5674 59.2819 17.0674C60.7819 19.0049 62.2819 20.958 63.7506 22.9268C64.7975 24.208 66.0006 24.7705 67.3444 24.6143C68.6725 24.4424 69.6881 23.5986 70.36 22.0674C71.36 19.4736 72.3756 16.8955 73.3756 14.3018C75.1413 18.3018 77.2038 22.1611 79.5319 25.8643C80.4225 27.1299 81.5163 27.6924 82.7975 27.5361C84.0788 27.3955 85.0788 26.8174 85.8131 25.7861C86.5319 24.7705 86.5163 23.583 85.7663 22.208ZM101.837 5.67676C100.899 5.44238 99.9775 5.55176 99.0869 6.02051C98.1963 6.48926 97.6338 7.20801 97.3994 8.19238C97.165 9.37988 96.9306 10.583 96.6963 11.7705C95.4931 17.8018 94.3056 23.833 93.1181 29.8643C92.9306 30.8486 93.0556 31.7705 93.4775 32.5986C93.915 33.4268 94.6338 33.9893 95.6338 34.3018C96.5869 34.5361 97.5088 34.4111 98.3838 33.9424C99.2744 33.4893 99.8369 32.7549 100.087 31.7705C100.556 29.3643 101.04 26.958 101.509 24.5518C102.462 19.7393 103.415 14.9268 104.368 10.1143C104.556 9.11426 104.431 8.20801 103.993 7.37988C103.556 6.55176 102.837 5.97363 101.837 5.67676Z" fill="white"/>
</svg>
