<svg width="335" height="103" viewBox="0 0 335 103" fill="none" xmlns="http://www.w3.org/2000/svg">
<g filter="url(#filter0_b_2257_51340)">
<mask id="path-1-outside-1_2257_51340" maskUnits="userSpaceOnUse" x="-0.128906" y="-0.305679" width="335" height="103" fill="black">
<rect fill="white" x="-0.128906" y="-0.305679" width="335" height="103"/>
<path d="M2.52857 52V16.7676H14.9852V24.6175C15.5503 23.0205 15.9926 21.9272 16.312 21.3375C16.9016 20.2319 17.6387 19.3351 18.5232 18.6472C20.8327 16.8536 24.4813 15.9568 29.4688 15.9568C35.0952 15.9568 38.9772 17.259 41.1147 19.8633C42.6871 21.7797 43.4733 25.1703 43.4733 30.035C43.4733 30.4281 43.4488 31.1898 43.3996 32.32H31.2378C31.2624 32.0743 31.2747 31.89 31.2747 31.7672C31.2747 29.6051 30.6359 28.0941 29.3583 27.2341C28.3264 26.5216 26.6679 26.1654 24.383 26.1654C20.7221 26.1654 18.2038 27.1973 16.8279 29.2611C15.9434 30.5878 15.5012 32.7622 15.5012 35.7843V52H2.52857Z"/>
<path d="M45.5003 52L73.8042 1.69432H94.3318L121.862 52H105.13L100.118 43.0076H67.6496L62.8217 52H45.5003ZM73.1777 32.5411H94.8109L83.8653 12.4925L73.1777 32.5411Z"/>
<path d="M122.894 52L151.198 1.69432H171.725L199.255 52H182.523L177.511 43.0076H145.043L140.215 52H122.894ZM150.571 32.5411H172.204L161.259 12.4925L150.571 32.5411Z"/>
<path d="M219.93 52L193.1 1.69432H209.98L229.844 39.6908L250.15 1.69432H267.214L239.352 52H219.93Z"/>
<path d="M274.769 1.69432H330.529V13.1191H289.879V21.706H328.244V31.6566H289.879V40.5753H331.045V52H274.769V1.69432Z"/>
<path d="M1.87109 100.805V63.2438H35.8279C39.8271 63.2438 42.7073 63.6933 44.4684 64.5922C47.3486 66.0598 48.7887 68.9125 48.7887 73.1502C48.7887 76.4523 47.9815 78.7546 46.3671 80.0571C45.4132 80.8276 43.7621 81.3963 41.4139 81.7632C44.3858 82.0567 46.4497 82.6163 47.6054 83.4418C49.3849 84.7076 50.2746 87.0649 50.2746 90.5138C50.2746 94.9533 48.8345 97.9436 45.9544 99.4846C44.3216 100.365 41.4598 100.805 37.3688 100.805H1.87109ZM13.0433 78.2134H32.2506C34.1034 78.2134 35.3417 78.0575 35.9655 77.7456C36.9561 77.2503 37.4514 76.3239 37.4514 74.9664C37.4514 73.352 36.7818 72.3247 35.4426 71.8844C34.8739 71.7009 33.709 71.6092 31.9479 71.6092H13.0433V78.2134ZM13.0433 92.4401H33.5164C35.2592 92.4401 36.4149 92.3392 36.9836 92.1374C38.1944 91.7154 38.7998 90.6973 38.7998 89.0829C38.7998 87.4135 38.1577 86.3495 36.8735 85.8909C36.3599 85.7074 35.1399 85.6157 33.2137 85.6157H13.0433V92.4401Z"/>
<path d="M82.3327 62.8586C91.8905 62.8586 97.7334 63.0512 99.8614 63.4365C104.649 64.2987 107.621 66.7661 108.777 70.8387C109.199 72.3247 109.456 74.3335 109.548 76.8651C109.603 78.3327 109.63 80.1397 109.63 82.286C109.63 87.0191 109.337 90.4955 108.75 92.7152C107.447 97.6501 103.65 100.365 97.3573 100.86C94.5688 101.081 90.0193 101.191 83.7086 101.191C78.2601 101.191 74.9488 101.163 73.7747 101.108C69.3168 100.906 66.0881 100.328 64.0885 99.3745C61.2817 98.0537 59.5114 95.4028 58.7776 91.4219C58.4657 89.7342 58.3098 86.5605 58.3098 81.9008C58.3098 78.7454 58.3373 76.7367 58.3923 75.8744C58.5391 73.5997 58.9152 71.6459 59.5205 70.0132C60.9698 66.1057 64.593 63.8584 70.39 63.2714C73.1234 62.9962 77.1043 62.8586 82.3327 62.8586ZM83.9287 72.022C77.8565 72.022 74.1141 72.3155 72.7015 72.9025C71.3807 73.4529 70.5276 74.7554 70.1424 76.81C69.9773 77.6906 69.8947 79.3417 69.8947 81.7632C69.8947 84.9369 70.0873 87.1934 70.4726 88.5326C71.0413 90.5138 72.8574 91.6145 75.9211 91.8347C77.7005 91.9631 79.8561 92.0273 82.3877 92.0273C89.2121 92.0273 93.3672 91.7888 94.8532 91.3118C96.5226 90.7798 97.5774 89.3948 98.0177 87.1567C98.1828 86.3128 98.2654 84.4324 98.2654 81.5156C98.2654 79.2775 98.2104 77.7732 98.1003 77.0027C97.7884 74.8379 96.9079 73.4345 95.4586 72.7925C94.6147 72.4072 92.8444 72.1596 90.1477 72.0495C89.7074 72.0311 87.6344 72.022 83.9287 72.022Z"/>
<path d="M166.812 75.9295H155.612C155.502 73.2144 153.952 71.8294 150.962 71.7743C150.301 71.7743 149.311 71.7743 147.99 71.7743L143.972 71.7193C142.761 71.7009 141.275 71.7101 139.514 71.7468L135.882 71.8018C133.827 71.8018 132.351 72.1045 131.452 72.7099C130.351 73.4437 129.718 74.7829 129.553 76.7275C129.443 78.03 129.388 80.0663 129.388 82.8364C129.388 86.3036 129.672 88.5784 130.241 89.6608C131.121 91.3485 133.295 92.2566 136.763 92.385C137.258 92.4034 140.211 92.4125 145.623 92.4125C148.742 92.4125 150.65 92.3759 151.347 92.3025C152.906 92.1374 154.016 91.7338 154.677 91.0917C155.355 90.4313 155.695 89.3306 155.695 87.7896C155.695 87.5511 155.686 87.175 155.667 86.6614H141.193V79.6444H166.812V84.8452C166.812 89.0462 166.619 92.0548 166.234 93.871C165.262 98.4756 161.758 100.86 155.722 101.026C154.365 101.062 149.586 101.081 141.386 101.081C136.029 101.081 132.158 100.989 129.773 100.805C124.068 100.365 120.5 98.1179 119.069 94.0636C118.298 91.8805 117.913 88.0372 117.913 82.5337C117.913 76.4065 118.372 72.1596 119.289 69.793C120.426 66.8578 122.729 64.9408 126.196 64.0419C128.948 63.3264 134.635 62.9687 143.257 62.9687C149.953 62.9687 154.484 63.0787 156.85 63.2989C162.152 63.7942 165.298 65.9956 166.289 69.9031C166.638 71.279 166.812 73.2878 166.812 75.9295Z"/>
<path d="M199.118 62.8586C208.675 62.8586 214.518 63.0512 216.646 63.4365C221.434 64.2987 224.406 66.7661 225.562 70.8387C225.984 72.3247 226.241 74.3335 226.332 76.8651C226.388 78.3327 226.415 80.1397 226.415 82.286C226.415 87.0191 226.122 90.4955 225.534 92.7152C224.232 97.6501 220.435 100.365 214.142 100.86C211.354 101.081 206.804 101.191 200.493 101.191C195.045 101.191 191.734 101.163 190.56 101.108C186.102 100.906 182.873 100.328 180.873 99.3745C178.067 98.0537 176.296 95.4028 175.562 91.4219C175.251 89.7342 175.095 86.5605 175.095 81.9008C175.095 78.7454 175.122 76.7367 175.177 75.8744C175.324 73.5997 175.7 71.6459 176.305 70.0132C177.755 66.1057 181.378 63.8584 187.175 63.2714C189.908 62.9962 193.889 62.8586 199.118 62.8586ZM200.714 72.022C194.641 72.022 190.899 72.3155 189.486 72.9025C188.166 73.4529 187.312 74.7554 186.927 76.81C186.762 77.6906 186.68 79.3417 186.68 81.7632C186.68 84.9369 186.872 87.1934 187.257 88.5326C187.826 90.5138 189.642 91.6145 192.706 91.8347C194.485 91.9631 196.641 92.0273 199.173 92.0273C205.997 92.0273 210.152 91.7888 211.638 91.3118C213.307 90.7798 214.362 89.3948 214.803 87.1567C214.968 86.3128 215.05 84.4324 215.05 81.5156C215.05 79.2775 214.995 77.7732 214.885 77.0027C214.573 74.8379 213.693 73.4345 212.243 72.7925C211.4 72.4072 209.629 72.1596 206.933 72.0495C206.492 72.0311 204.419 72.022 200.714 72.022Z"/>
<path d="M249.86 100.805V72.5173H233.129V63.2438H278.038V72.5173H261.307V100.805H249.86Z"/>
<path d="M275.204 100.805L296.337 63.2438H311.665L332.22 100.805H319.727L315.985 94.0911H291.742L288.137 100.805H275.204ZM295.87 86.2761H312.022L303.85 71.3065L295.87 86.2761Z"/>
</mask>
<path d="M2.52857 52V16.7676H14.9852V24.6175C15.5503 23.0205 15.9926 21.9272 16.312 21.3375C16.9016 20.2319 17.6387 19.3351 18.5232 18.6472C20.8327 16.8536 24.4813 15.9568 29.4688 15.9568C35.0952 15.9568 38.9772 17.259 41.1147 19.8633C42.6871 21.7797 43.4733 25.1703 43.4733 30.035C43.4733 30.4281 43.4488 31.1898 43.3996 32.32H31.2378C31.2624 32.0743 31.2747 31.89 31.2747 31.7672C31.2747 29.6051 30.6359 28.0941 29.3583 27.2341C28.3264 26.5216 26.6679 26.1654 24.383 26.1654C20.7221 26.1654 18.2038 27.1973 16.8279 29.2611C15.9434 30.5878 15.5012 32.7622 15.5012 35.7843V52H2.52857Z" fill="black" style="mix-blend-mode:lighten"/>
<path d="M45.5003 52L73.8042 1.69432H94.3318L121.862 52H105.13L100.118 43.0076H67.6496L62.8217 52H45.5003ZM73.1777 32.5411H94.8109L83.8653 12.4925L73.1777 32.5411Z" fill="black" style="mix-blend-mode:lighten"/>
<path d="M122.894 52L151.198 1.69432H171.725L199.255 52H182.523L177.511 43.0076H145.043L140.215 52H122.894ZM150.571 32.5411H172.204L161.259 12.4925L150.571 32.5411Z" fill="black" style="mix-blend-mode:lighten"/>
<path d="M219.93 52L193.1 1.69432H209.98L229.844 39.6908L250.15 1.69432H267.214L239.352 52H219.93Z" fill="black" style="mix-blend-mode:lighten"/>
<path d="M274.769 1.69432H330.529V13.1191H289.879V21.706H328.244V31.6566H289.879V40.5753H331.045V52H274.769V1.69432Z" fill="black" style="mix-blend-mode:lighten"/>
<path d="M1.87109 100.805V63.2438H35.8279C39.8271 63.2438 42.7073 63.6933 44.4684 64.5922C47.3486 66.0598 48.7887 68.9125 48.7887 73.1502C48.7887 76.4523 47.9815 78.7546 46.3671 80.0571C45.4132 80.8276 43.7621 81.3963 41.4139 81.7632C44.3858 82.0567 46.4497 82.6163 47.6054 83.4418C49.3849 84.7076 50.2746 87.0649 50.2746 90.5138C50.2746 94.9533 48.8345 97.9436 45.9544 99.4846C44.3216 100.365 41.4598 100.805 37.3688 100.805H1.87109ZM13.0433 78.2134H32.2506C34.1034 78.2134 35.3417 78.0575 35.9655 77.7456C36.9561 77.2503 37.4514 76.3239 37.4514 74.9664C37.4514 73.352 36.7818 72.3247 35.4426 71.8844C34.8739 71.7009 33.709 71.6092 31.9479 71.6092H13.0433V78.2134ZM13.0433 92.4401H33.5164C35.2592 92.4401 36.4149 92.3392 36.9836 92.1374C38.1944 91.7154 38.7998 90.6973 38.7998 89.0829C38.7998 87.4135 38.1577 86.3495 36.8735 85.8909C36.3599 85.7074 35.1399 85.6157 33.2137 85.6157H13.0433V92.4401Z" fill="black" style="mix-blend-mode:lighten"/>
<path d="M82.3327 62.8586C91.8905 62.8586 97.7334 63.0512 99.8614 63.4365C104.649 64.2987 107.621 66.7661 108.777 70.8387C109.199 72.3247 109.456 74.3335 109.548 76.8651C109.603 78.3327 109.63 80.1397 109.63 82.286C109.63 87.0191 109.337 90.4955 108.75 92.7152C107.447 97.6501 103.65 100.365 97.3573 100.86C94.5688 101.081 90.0193 101.191 83.7086 101.191C78.2601 101.191 74.9488 101.163 73.7747 101.108C69.3168 100.906 66.0881 100.328 64.0885 99.3745C61.2817 98.0537 59.5114 95.4028 58.7776 91.4219C58.4657 89.7342 58.3098 86.5605 58.3098 81.9008C58.3098 78.7454 58.3373 76.7367 58.3923 75.8744C58.5391 73.5997 58.9152 71.6459 59.5205 70.0132C60.9698 66.1057 64.593 63.8584 70.39 63.2714C73.1234 62.9962 77.1043 62.8586 82.3327 62.8586ZM83.9287 72.022C77.8565 72.022 74.1141 72.3155 72.7015 72.9025C71.3807 73.4529 70.5276 74.7554 70.1424 76.81C69.9773 77.6906 69.8947 79.3417 69.8947 81.7632C69.8947 84.9369 70.0873 87.1934 70.4726 88.5326C71.0413 90.5138 72.8574 91.6145 75.9211 91.8347C77.7005 91.9631 79.8561 92.0273 82.3877 92.0273C89.2121 92.0273 93.3672 91.7888 94.8532 91.3118C96.5226 90.7798 97.5774 89.3948 98.0177 87.1567C98.1828 86.3128 98.2654 84.4324 98.2654 81.5156C98.2654 79.2775 98.2104 77.7732 98.1003 77.0027C97.7884 74.8379 96.9079 73.4345 95.4586 72.7925C94.6147 72.4072 92.8444 72.1596 90.1477 72.0495C89.7074 72.0311 87.6344 72.022 83.9287 72.022Z" fill="black" style="mix-blend-mode:lighten"/>
<path d="M166.812 75.9295H155.612C155.502 73.2144 153.952 71.8294 150.962 71.7743C150.301 71.7743 149.311 71.7743 147.99 71.7743L143.972 71.7193C142.761 71.7009 141.275 71.7101 139.514 71.7468L135.882 71.8018C133.827 71.8018 132.351 72.1045 131.452 72.7099C130.351 73.4437 129.718 74.7829 129.553 76.7275C129.443 78.03 129.388 80.0663 129.388 82.8364C129.388 86.3036 129.672 88.5784 130.241 89.6608C131.121 91.3485 133.295 92.2566 136.763 92.385C137.258 92.4034 140.211 92.4125 145.623 92.4125C148.742 92.4125 150.65 92.3759 151.347 92.3025C152.906 92.1374 154.016 91.7338 154.677 91.0917C155.355 90.4313 155.695 89.3306 155.695 87.7896C155.695 87.5511 155.686 87.175 155.667 86.6614H141.193V79.6444H166.812V84.8452C166.812 89.0462 166.619 92.0548 166.234 93.871C165.262 98.4756 161.758 100.86 155.722 101.026C154.365 101.062 149.586 101.081 141.386 101.081C136.029 101.081 132.158 100.989 129.773 100.805C124.068 100.365 120.5 98.1179 119.069 94.0636C118.298 91.8805 117.913 88.0372 117.913 82.5337C117.913 76.4065 118.372 72.1596 119.289 69.793C120.426 66.8578 122.729 64.9408 126.196 64.0419C128.948 63.3264 134.635 62.9687 143.257 62.9687C149.953 62.9687 154.484 63.0787 156.85 63.2989C162.152 63.7942 165.298 65.9956 166.289 69.9031C166.638 71.279 166.812 73.2878 166.812 75.9295Z" fill="black" style="mix-blend-mode:lighten"/>
<path d="M199.118 62.8586C208.675 62.8586 214.518 63.0512 216.646 63.4365C221.434 64.2987 224.406 66.7661 225.562 70.8387C225.984 72.3247 226.241 74.3335 226.332 76.8651C226.388 78.3327 226.415 80.1397 226.415 82.286C226.415 87.0191 226.122 90.4955 225.534 92.7152C224.232 97.6501 220.435 100.365 214.142 100.86C211.354 101.081 206.804 101.191 200.493 101.191C195.045 101.191 191.734 101.163 190.56 101.108C186.102 100.906 182.873 100.328 180.873 99.3745C178.067 98.0537 176.296 95.4028 175.562 91.4219C175.251 89.7342 175.095 86.5605 175.095 81.9008C175.095 78.7454 175.122 76.7367 175.177 75.8744C175.324 73.5997 175.7 71.6459 176.305 70.0132C177.755 66.1057 181.378 63.8584 187.175 63.2714C189.908 62.9962 193.889 62.8586 199.118 62.8586ZM200.714 72.022C194.641 72.022 190.899 72.3155 189.486 72.9025C188.166 73.4529 187.312 74.7554 186.927 76.81C186.762 77.6906 186.68 79.3417 186.68 81.7632C186.68 84.9369 186.872 87.1934 187.257 88.5326C187.826 90.5138 189.642 91.6145 192.706 91.8347C194.485 91.9631 196.641 92.0273 199.173 92.0273C205.997 92.0273 210.152 91.7888 211.638 91.3118C213.307 90.7798 214.362 89.3948 214.803 87.1567C214.968 86.3128 215.05 84.4324 215.05 81.5156C215.05 79.2775 214.995 77.7732 214.885 77.0027C214.573 74.8379 213.693 73.4345 212.243 72.7925C211.4 72.4072 209.629 72.1596 206.933 72.0495C206.492 72.0311 204.419 72.022 200.714 72.022Z" fill="black" style="mix-blend-mode:lighten"/>
<path d="M249.86 100.805V72.5173H233.129V63.2438H278.038V72.5173H261.307V100.805H249.86Z" fill="black" style="mix-blend-mode:lighten"/>
<path d="M275.204 100.805L296.337 63.2438H311.665L332.22 100.805H319.727L315.985 94.0911H291.742L288.137 100.805H275.204ZM295.87 86.2761H312.022L303.85 71.3065L295.87 86.2761Z" fill="black" style="mix-blend-mode:lighten"/>
<path d="M2.52857 52V16.7676H14.9852V24.6175C15.5503 23.0205 15.9926 21.9272 16.312 21.3375C16.9016 20.2319 17.6387 19.3351 18.5232 18.6472C20.8327 16.8536 24.4813 15.9568 29.4688 15.9568C35.0952 15.9568 38.9772 17.259 41.1147 19.8633C42.6871 21.7797 43.4733 25.1703 43.4733 30.035C43.4733 30.4281 43.4488 31.1898 43.3996 32.32H31.2378C31.2624 32.0743 31.2747 31.89 31.2747 31.7672C31.2747 29.6051 30.6359 28.0941 29.3583 27.2341C28.3264 26.5216 26.6679 26.1654 24.383 26.1654C20.7221 26.1654 18.2038 27.1973 16.8279 29.2611C15.9434 30.5878 15.5012 32.7622 15.5012 35.7843V52H2.52857Z" stroke="#BBD480" stroke-width="3" mask="url(#path-1-outside-1_2257_51340)"/>
<path d="M45.5003 52L73.8042 1.69432H94.3318L121.862 52H105.13L100.118 43.0076H67.6496L62.8217 52H45.5003ZM73.1777 32.5411H94.8109L83.8653 12.4925L73.1777 32.5411Z" stroke="#BBD480" stroke-width="3" mask="url(#path-1-outside-1_2257_51340)"/>
<path d="M122.894 52L151.198 1.69432H171.725L199.255 52H182.523L177.511 43.0076H145.043L140.215 52H122.894ZM150.571 32.5411H172.204L161.259 12.4925L150.571 32.5411Z" stroke="#BBD480" stroke-width="3" mask="url(#path-1-outside-1_2257_51340)"/>
<path d="M219.93 52L193.1 1.69432H209.98L229.844 39.6908L250.15 1.69432H267.214L239.352 52H219.93Z" stroke="#BBD480" stroke-width="3" mask="url(#path-1-outside-1_2257_51340)"/>
<path d="M274.769 1.69432H330.529V13.1191H289.879V21.706H328.244V31.6566H289.879V40.5753H331.045V52H274.769V1.69432Z" stroke="#BBD480" stroke-width="3" mask="url(#path-1-outside-1_2257_51340)"/>
<path d="M1.87109 100.805V63.2438H35.8279C39.8271 63.2438 42.7073 63.6933 44.4684 64.5922C47.3486 66.0598 48.7887 68.9125 48.7887 73.1502C48.7887 76.4523 47.9815 78.7546 46.3671 80.0571C45.4132 80.8276 43.7621 81.3963 41.4139 81.7632C44.3858 82.0567 46.4497 82.6163 47.6054 83.4418C49.3849 84.7076 50.2746 87.0649 50.2746 90.5138C50.2746 94.9533 48.8345 97.9436 45.9544 99.4846C44.3216 100.365 41.4598 100.805 37.3688 100.805H1.87109ZM13.0433 78.2134H32.2506C34.1034 78.2134 35.3417 78.0575 35.9655 77.7456C36.9561 77.2503 37.4514 76.3239 37.4514 74.9664C37.4514 73.352 36.7818 72.3247 35.4426 71.8844C34.8739 71.7009 33.709 71.6092 31.9479 71.6092H13.0433V78.2134ZM13.0433 92.4401H33.5164C35.2592 92.4401 36.4149 92.3392 36.9836 92.1374C38.1944 91.7154 38.7998 90.6973 38.7998 89.0829C38.7998 87.4135 38.1577 86.3495 36.8735 85.8909C36.3599 85.7074 35.1399 85.6157 33.2137 85.6157H13.0433V92.4401Z" stroke="#BBD480" stroke-width="3" mask="url(#path-1-outside-1_2257_51340)"/>
<path d="M82.3327 62.8586C91.8905 62.8586 97.7334 63.0512 99.8614 63.4365C104.649 64.2987 107.621 66.7661 108.777 70.8387C109.199 72.3247 109.456 74.3335 109.548 76.8651C109.603 78.3327 109.63 80.1397 109.63 82.286C109.63 87.0191 109.337 90.4955 108.75 92.7152C107.447 97.6501 103.65 100.365 97.3573 100.86C94.5688 101.081 90.0193 101.191 83.7086 101.191C78.2601 101.191 74.9488 101.163 73.7747 101.108C69.3168 100.906 66.0881 100.328 64.0885 99.3745C61.2817 98.0537 59.5114 95.4028 58.7776 91.4219C58.4657 89.7342 58.3098 86.5605 58.3098 81.9008C58.3098 78.7454 58.3373 76.7367 58.3923 75.8744C58.5391 73.5997 58.9152 71.6459 59.5205 70.0132C60.9698 66.1057 64.593 63.8584 70.39 63.2714C73.1234 62.9962 77.1043 62.8586 82.3327 62.8586ZM83.9287 72.022C77.8565 72.022 74.1141 72.3155 72.7015 72.9025C71.3807 73.4529 70.5276 74.7554 70.1424 76.81C69.9773 77.6906 69.8947 79.3417 69.8947 81.7632C69.8947 84.9369 70.0873 87.1934 70.4726 88.5326C71.0413 90.5138 72.8574 91.6145 75.9211 91.8347C77.7005 91.9631 79.8561 92.0273 82.3877 92.0273C89.2121 92.0273 93.3672 91.7888 94.8532 91.3118C96.5226 90.7798 97.5774 89.3948 98.0177 87.1567C98.1828 86.3128 98.2654 84.4324 98.2654 81.5156C98.2654 79.2775 98.2104 77.7732 98.1003 77.0027C97.7884 74.8379 96.9079 73.4345 95.4586 72.7925C94.6147 72.4072 92.8444 72.1596 90.1477 72.0495C89.7074 72.0311 87.6344 72.022 83.9287 72.022Z" stroke="#BBD480" stroke-width="3" mask="url(#path-1-outside-1_2257_51340)"/>
<path d="M166.812 75.9295H155.612C155.502 73.2144 153.952 71.8294 150.962 71.7743C150.301 71.7743 149.311 71.7743 147.99 71.7743L143.972 71.7193C142.761 71.7009 141.275 71.7101 139.514 71.7468L135.882 71.8018C133.827 71.8018 132.351 72.1045 131.452 72.7099C130.351 73.4437 129.718 74.7829 129.553 76.7275C129.443 78.03 129.388 80.0663 129.388 82.8364C129.388 86.3036 129.672 88.5784 130.241 89.6608C131.121 91.3485 133.295 92.2566 136.763 92.385C137.258 92.4034 140.211 92.4125 145.623 92.4125C148.742 92.4125 150.65 92.3759 151.347 92.3025C152.906 92.1374 154.016 91.7338 154.677 91.0917C155.355 90.4313 155.695 89.3306 155.695 87.7896C155.695 87.5511 155.686 87.175 155.667 86.6614H141.193V79.6444H166.812V84.8452C166.812 89.0462 166.619 92.0548 166.234 93.871C165.262 98.4756 161.758 100.86 155.722 101.026C154.365 101.062 149.586 101.081 141.386 101.081C136.029 101.081 132.158 100.989 129.773 100.805C124.068 100.365 120.5 98.1179 119.069 94.0636C118.298 91.8805 117.913 88.0372 117.913 82.5337C117.913 76.4065 118.372 72.1596 119.289 69.793C120.426 66.8578 122.729 64.9408 126.196 64.0419C128.948 63.3264 134.635 62.9687 143.257 62.9687C149.953 62.9687 154.484 63.0787 156.85 63.2989C162.152 63.7942 165.298 65.9956 166.289 69.9031C166.638 71.279 166.812 73.2878 166.812 75.9295Z" stroke="#BBD480" stroke-width="3" mask="url(#path-1-outside-1_2257_51340)"/>
<path d="M199.118 62.8586C208.675 62.8586 214.518 63.0512 216.646 63.4365C221.434 64.2987 224.406 66.7661 225.562 70.8387C225.984 72.3247 226.241 74.3335 226.332 76.8651C226.388 78.3327 226.415 80.1397 226.415 82.286C226.415 87.0191 226.122 90.4955 225.534 92.7152C224.232 97.6501 220.435 100.365 214.142 100.86C211.354 101.081 206.804 101.191 200.493 101.191C195.045 101.191 191.734 101.163 190.56 101.108C186.102 100.906 182.873 100.328 180.873 99.3745C178.067 98.0537 176.296 95.4028 175.562 91.4219C175.251 89.7342 175.095 86.5605 175.095 81.9008C175.095 78.7454 175.122 76.7367 175.177 75.8744C175.324 73.5997 175.7 71.6459 176.305 70.0132C177.755 66.1057 181.378 63.8584 187.175 63.2714C189.908 62.9962 193.889 62.8586 199.118 62.8586ZM200.714 72.022C194.641 72.022 190.899 72.3155 189.486 72.9025C188.166 73.4529 187.312 74.7554 186.927 76.81C186.762 77.6906 186.68 79.3417 186.68 81.7632C186.68 84.9369 186.872 87.1934 187.257 88.5326C187.826 90.5138 189.642 91.6145 192.706 91.8347C194.485 91.9631 196.641 92.0273 199.173 92.0273C205.997 92.0273 210.152 91.7888 211.638 91.3118C213.307 90.7798 214.362 89.3948 214.803 87.1567C214.968 86.3128 215.05 84.4324 215.05 81.5156C215.05 79.2775 214.995 77.7732 214.885 77.0027C214.573 74.8379 213.693 73.4345 212.243 72.7925C211.4 72.4072 209.629 72.1596 206.933 72.0495C206.492 72.0311 204.419 72.022 200.714 72.022Z" stroke="#BBD480" stroke-width="3" mask="url(#path-1-outside-1_2257_51340)"/>
<path d="M249.86 100.805V72.5173H233.129V63.2438H278.038V72.5173H261.307V100.805H249.86Z" stroke="#BBD480" stroke-width="3" mask="url(#path-1-outside-1_2257_51340)"/>
<path d="M275.204 100.805L296.337 63.2438H311.665L332.22 100.805H319.727L315.985 94.0911H291.742L288.137 100.805H275.204ZM295.87 86.2761H312.022L303.85 71.3065L295.87 86.2761Z" stroke="#BBD480" stroke-width="3" mask="url(#path-1-outside-1_2257_51340)"/>
</g>
<path d="M131.82 33.5183L131.82 33.3864L131.81 33.255C131.567 29.8143 130.009 26.6696 126.54 25.1227L126.531 25.1186L126.522 25.1146C123.699 23.8725 120.742 23.8637 117.919 25.1227C114.444 26.6722 112.869 29.8355 112.692 33.3353L112.686 33.4485L112.687 33.5618C112.699 35.5023 112.705 37.4439 112.711 39.3927L112.711 39.3958C112.712 39.9018 112.714 40.4083 112.716 40.9152C107.972 36.7747 102.934 32.9944 97.5879 29.5682L97.5119 29.5195L97.4338 29.4742C95.5382 28.3768 93.2667 27.709 90.8367 28.2559C90.4802 28.312 90.1894 28.3852 90.0428 28.4221C90.0312 28.425 90.0206 28.4277 90.0109 28.4301L89.9153 28.454L89.821 28.4826C87.4069 29.2142 85.2687 30.7051 84.0825 33.1966C83.0758 35.2631 82.8129 37.4659 83.1227 39.6842C84.7165 51.5229 87.3145 63.137 90.8655 74.5247L90.8999 74.6349L90.9405 74.7429C92.1801 78.0367 94.628 80.5212 98.3061 81.0661L98.3131 81.0671C101.349 81.5114 104.212 80.7793 106.618 78.7674C107.974 77.6472 108.951 76.179 109.397 74.4248C109.831 72.7182 109.702 70.9879 109.28 69.3682L109.255 69.2743L109.226 69.1816C108.469 66.762 107.76 64.3324 107.098 61.8928C109.972 64.7375 112.753 67.6841 115.44 70.7354L115.56 70.8712L115.691 70.9957C117.033 72.2669 118.659 73.2411 120.564 73.607C122.489 73.977 124.364 73.6608 126.069 72.8945C127.701 72.1612 129.148 71.0637 130.208 69.5233C131.265 67.9871 131.783 66.2337 131.907 64.4221L131.917 64.2806L131.916 64.1388L131.916 64.1321C131.892 53.9394 131.868 43.7412 131.82 33.5183ZM152.873 28.4521L152.79 28.4273L152.705 28.4061C150.291 27.8027 147.865 28.1046 145.64 29.276C143.255 30.5312 141.644 32.5859 141.014 35.2317L140.996 35.3073L140.981 35.3836C140.801 36.2996 140.62 37.2212 140.44 38.14L140.439 38.1418C140.259 39.0607 140.08 39.9767 139.9 40.8863C138.048 50.1703 136.22 59.4535 134.394 68.731L134.392 68.7379L134.39 68.75L134.388 68.7621C133.943 71.0938 134.229 73.4211 135.306 75.5344L135.319 75.5609L135.333 75.5872C136.569 77.9258 138.599 79.4087 140.995 80.1577L141.113 80.1946L141.233 80.2241C143.678 80.8253 146.094 80.4888 148.273 79.3322C150.712 78.0776 152.271 75.9771 152.919 73.4289L152.946 73.3197L152.968 73.2091C153.327 71.3647 153.693 69.5192 154.06 67.6666C154.426 65.818 154.793 63.9622 155.155 62.1054C155.155 62.1035 155.156 62.1016 155.156 62.0996L157.354 51.0024L159.554 39.893L159.558 39.873L159.562 39.853C160.002 37.5043 159.721 35.1806 158.59 33.0392C157.372 30.7336 155.354 29.1884 152.873 28.4521ZM221.242 55.8124L221.181 55.6992L221.112 55.5902C215.538 46.7745 211.11 37.4291 207.848 27.5244L207.805 27.3945L207.753 27.2677C207.011 25.4453 205.91 23.7582 204.287 22.5434C202.61 21.2889 200.656 20.7495 198.638 20.81L198.619 20.8106L198.6 20.8114C196.661 20.8882 194.821 21.4736 193.221 22.6429C191.653 23.7891 190.519 25.3457 189.706 27.0694L189.647 27.1953L189.596 27.325L185.905 36.8082C183.625 33.8927 181.327 30.9926 179.012 28.1027L178.906 27.9702L178.789 27.8472C176.383 25.3172 173.208 24.468 169.89 25.2461C167.908 25.6228 166.173 26.5507 164.757 27.9289L164.717 27.9671L164.679 28.0064C163.036 29.6946 162.245 31.8412 162.067 34.1153L162.062 34.18L162.059 34.2448C161.522 46.0469 161.815 57.8519 162.964 69.6343L162.966 69.6577L162.968 69.681C163.217 71.9527 164.066 74.0785 165.638 75.8472C167.47 77.9083 169.925 78.8008 172.499 78.8008C175.048 78.8008 177.324 77.8377 179.161 76.0789C181.081 74.241 182.078 71.8982 182.078 69.2461V69.0466L182.058 68.8481C182.057 68.8359 182.055 68.8132 182.049 68.6872L182.048 68.6703C182.043 68.5806 182.035 68.4285 182.02 68.2544C181.998 67.8499 181.975 67.4241 181.953 66.9919L181.952 66.9803C181.927 66.5247 181.876 65.9659 181.751 65.376C181.664 64.3233 181.584 63.2713 181.511 62.2199C183.685 64.4718 186.513 65.7913 189.842 65.4042L189.868 65.4012L189.893 65.3979C193.653 64.9114 196.232 62.4282 197.684 59.1186L197.721 59.0353L197.753 58.9503C198.186 57.8283 198.621 56.7077 199.057 55.5864C200.823 58.9594 202.723 62.2598 204.75 65.4837L204.805 65.5717L204.865 65.6567C206.872 68.5089 209.871 70.349 213.622 69.9012C216.686 69.5589 219.256 68.0892 221.061 65.5548L221.068 65.5451C222.086 64.1072 222.638 62.4389 222.614 60.6361C222.591 58.8944 222.036 57.2678 221.242 55.8124ZM243.602 28.4521L243.518 28.4273L243.433 28.4061C241.02 27.8027 238.594 28.1046 236.368 29.276C233.983 30.5312 232.373 32.5859 231.743 35.2317L231.725 35.3073L231.71 35.3836C231.531 36.2909 231.352 37.2037 231.173 38.1138L231.168 38.1418L231.166 38.1489C230.987 39.0641 230.808 39.9763 230.629 40.8823C228.776 50.1699 226.948 59.4567 225.121 68.7379L225.118 68.75L225.116 68.7621C224.672 71.0938 224.958 73.4211 226.034 75.5344L226.048 75.5609L226.062 75.5872C227.297 77.9258 229.327 79.4087 231.724 80.1577L231.842 80.1946L231.962 80.2241C234.406 80.8253 236.822 80.4888 239.001 79.3322C241.44 78.0776 243 75.9771 243.647 73.4289L243.675 73.3197L243.696 73.2091C244.055 71.3647 244.421 69.5192 244.788 67.6666L244.788 67.6657C245.154 65.8174 245.522 63.9619 245.883 62.1054C245.884 62.1035 245.884 62.1016 245.884 62.0996L248.082 51.0024L250.282 39.893L250.286 39.873L250.29 39.853C250.731 37.5043 250.45 35.1806 249.318 33.0392C248.1 30.7336 246.082 29.1884 243.602 28.4521Z" fill="#B2D487" stroke="black" stroke-width="8"/>
<defs>
<filter id="filter0_b_2257_51340" x="-3.88707" y="-4.06384" width="342.896" height="111.013" filterUnits="userSpaceOnUse" color-interpolation-filters="sRGB">
<feFlood flood-opacity="0" result="BackgroundImageFix"/>
<feGaussianBlur in="BackgroundImageFix" stdDeviation="2.12908"/>
<feComposite in2="SourceAlpha" operator="in" result="effect1_backgroundBlur_2257_51340"/>
<feBlend mode="normal" in="SourceGraphic" in2="effect1_backgroundBlur_2257_51340" result="shape"/>
</filter>
</defs>
</svg>
