<svg width="295" height="60" viewBox="0 0 295 60" fill="none" xmlns="http://www.w3.org/2000/svg">
<path d="M23.6484 19.8736C23.5509 18.4945 22.9937 17.575 21.9628 17.1153C20.918 16.6556 19.8871 16.6556 18.8562 17.1153C17.8253 17.575 17.2681 18.4945 17.1984 19.8736C17.2124 22.1304 17.2124 24.3872 17.2263 26.6441C17.2263 27.6053 17.2263 28.5665 17.2402 29.5277C13.4928 25.7385 9.38322 22.4091 4.88354 19.5254C4.08948 19.0657 3.35115 18.9124 2.6546 19.0935C2.52922 19.1074 2.41778 19.1353 2.30633 19.1632C1.38689 19.4418 0.746071 19.9433 0.397799 20.6816C0.0355961 21.42 -0.075851 22.228 0.049527 23.1195C0.955034 29.8482 2.43171 36.4514 4.45169 42.9293C4.93927 44.2248 5.76119 44.9492 6.88959 45.1164C8.03192 45.2836 9.02102 45.0189 9.88473 44.2945C10.7484 43.584 11.0131 42.5531 10.6649 41.2158C9.45288 37.343 8.44985 33.4284 7.64186 29.472C11.4032 32.6901 14.9277 36.1588 18.2154 39.8923C19.2741 40.8953 20.4443 41.1182 21.6842 40.561C22.924 40.0038 23.6067 39.0286 23.7042 37.6077C23.6902 31.701 23.6763 25.7943 23.6484 19.8736Z" fill="#1D6EAD"/>
<path d="M37.503 19.1492C36.6671 18.9403 35.8452 19.0378 35.0512 19.4557C34.2571 19.8736 33.7556 20.5145 33.5466 21.3921C33.3377 22.4509 33.1287 23.5235 32.9197 24.5823C31.847 29.9596 30.7883 35.3369 29.7296 40.7142C29.5624 41.5919 29.6738 42.4138 30.05 43.1522C30.44 43.8905 31.0809 44.392 31.9724 44.6706C32.8222 44.8796 33.6441 44.7681 34.4243 44.3502C35.2183 43.9462 35.7198 43.2915 35.9427 42.4138C36.3607 40.2685 36.7925 38.1231 37.2104 35.9777C38.0602 31.687 38.91 27.3963 39.7598 23.1056C39.927 22.214 39.8155 21.406 39.4255 20.6677C39.0354 19.9294 38.3946 19.4139 37.503 19.1492Z" fill="#1D6EAD"/>
<path d="M75.7366 33.8881C72.4071 28.6222 69.7602 23.036 67.8099 17.1153C67.1691 15.5411 66.1382 14.7749 64.7451 14.8167C63.3381 14.8725 62.2933 15.6387 61.5967 17.1153L57.9747 26.4212C55.8433 23.6489 53.684 20.9045 51.4968 18.1741C50.6889 17.3243 49.6858 17.0457 48.5017 17.3382C47.7912 17.4636 47.1783 17.784 46.6628 18.2855C46.1613 18.801 45.8688 19.4975 45.7991 20.3891C45.4926 27.1177 45.6598 33.8463 46.3146 40.561C46.4121 41.4526 46.7325 42.2188 47.2897 42.8457C47.847 43.4726 48.5992 43.779 49.5326 43.779C50.3824 43.779 51.1346 43.4726 51.7894 42.8457C52.4441 42.2188 52.7646 41.4665 52.7646 40.561C52.7506 40.4217 52.7506 40.2963 52.7367 40.157C52.7228 39.9063 52.7088 39.6416 52.6949 39.3769C52.681 39.1261 52.6531 38.8893 52.5974 38.6803C52.3327 35.5459 52.1795 32.4254 52.1237 29.3049C53.4611 31.0323 54.7985 32.7736 56.108 34.5289C57.0413 35.6713 58.114 36.1728 59.3121 36.0335C60.4962 35.8802 61.4017 35.128 62.0007 33.7627C62.8923 31.4502 63.7978 29.1516 64.6894 26.8391C66.2636 30.4054 68.1025 33.8463 70.1782 37.1479C70.9722 38.2763 71.9474 38.7779 73.0897 38.6385C74.232 38.5132 75.1236 37.9977 75.7784 37.0783C76.4192 36.1728 76.4053 35.114 75.7366 33.8881Z" fill="#1D6EAD"/>
<path d="M90.0648 19.1492C89.2289 18.9403 88.407 19.0378 87.6129 19.4557C86.8189 19.8736 86.3174 20.5145 86.1084 21.3921C85.8994 22.4509 85.6905 23.5235 85.4815 24.5823C84.4088 29.9596 83.3501 35.3369 82.2913 40.7142C82.1242 41.5919 82.2356 42.4138 82.6118 43.1522C83.0018 43.8905 83.6426 44.392 84.5342 44.6706C85.384 44.8796 86.2059 44.7681 86.9861 44.3502C87.7801 43.9462 88.2816 43.2915 88.5045 42.4138C88.9224 40.2685 89.3543 38.1231 89.7722 35.9777C90.622 31.687 91.4718 27.3963 92.3216 23.1056C92.4887 22.214 92.3773 21.406 91.9872 20.6677C91.5972 19.9294 90.9564 19.4139 90.0648 19.1492Z" fill="#1D6EAD"/>
<path d="M129.494 35.0279C128.163 31.6891 127.003 28.2841 126.016 24.8261C125.791 24.2166 125.354 23.8523 124.711 23.733C124.069 23.6138 123.572 23.8589 123.214 24.4617C121.717 27.6481 120.174 30.8081 118.577 33.9481C118.312 34.5576 118.339 35.0809 118.663 35.5247C118.988 35.9686 119.412 36.2137 119.942 36.2667C120.465 36.3197 120.889 36.0613 121.22 35.4982C121.432 35.0809 121.638 34.6702 121.843 34.2528C121.922 34.1005 122.002 33.9415 122.081 33.7825C123.36 33.9613 124.638 34.1203 125.924 34.2462C126.122 34.7828 126.328 35.3128 126.54 35.8427C126.699 36.2402 126.944 36.5449 127.275 36.7569C127.6 36.9689 127.984 37.0219 128.428 36.9159C128.812 36.7967 129.123 36.5515 129.355 36.1872C129.587 35.8228 129.633 35.432 129.494 35.0279ZM123.506 30.9074C123.585 30.7352 123.671 30.5696 123.751 30.3973C123.91 30.0794 124.069 29.7548 124.221 29.4368C124.4 29.98 124.585 30.5232 124.771 31.0598C124.347 31.0134 123.923 30.9604 123.506 30.9074Z" fill="#177EB6"/>
<path d="M137.898 23.011C137.732 23.0176 137.566 23.0242 137.401 23.0308C135.334 23.1169 133.267 23.2031 131.2 23.2892C130.544 23.3554 130.107 23.6337 129.889 24.1371C129.67 24.6406 129.67 25.1308 129.889 25.6144C130.107 26.098 130.544 26.3431 131.2 26.3497C131.498 26.3431 131.796 26.3299 132.095 26.3166C132.386 26.3034 132.684 26.2901 132.982 26.2769C133.194 28.9731 133.366 31.6692 133.506 34.3654C133.578 35.0213 133.863 35.4585 134.367 35.6771C134.87 35.8957 135.36 35.8957 135.844 35.6771C136.321 35.4585 136.566 35.0213 136.573 34.3654C136.434 31.6229 136.255 28.8869 136.036 26.151C136.659 26.1245 137.275 26.098 137.898 26.0715C138.553 26.0119 138.991 25.727 139.209 25.2236C139.428 24.7267 139.428 24.2365 139.209 23.7529C138.991 23.2693 138.553 23.0242 137.898 23.011Z" fill="#177EB6"/>
<path d="M286.98 19.8388H279.778V42.7829H294.182V19.8388H286.98ZM248.385 19.8388L255.586 32.3123L262.788 42.7829L269.989 32.3123L277.191 19.8388H248.385ZM196.954 19.8347L189.751 32.3105L196.954 42.7833H211.36L204.157 32.3105L211.36 19.8347H196.954ZM212.269 30.6055L215.795 32.8509L219.321 35.0968L229.898 41.8334L236.95 37.3422L247.527 30.6055L229.898 0L212.269 30.6055Z" fill="#1C63AD"/>
<path d="M241.369 38.1386L229.905 45.4396L224.736 42.1322L224.745 42.1453L218.483 38.1386L218.5 38.162L212.351 34.2279L229.898 59.9798L247.527 34.2279L241.355 38.1593L241.369 38.1386Z" fill="#1C63AD"/>
<path opacity="0.75" d="M277.392 46.461V46.2824L277.289 46.461H277.392Z" fill="#214290"/>
<path d="M286.98 19.8388H279.778V42.7829H294.182V19.8388H286.98Z" fill="#07AED1"/>
<path d="M277.289 46.461H277.392V46.2824L277.289 46.461Z" fill="#0075A2"/>
<path d="M255.587 32.3123L262.788 19.8388H248.385L255.587 32.3123Z" fill="#07AED1"/>
<path d="M269.99 32.3123L277.191 19.8388H262.788L269.99 32.3123Z" fill="#214290"/>
<path d="M262.788 19.8388L255.587 32.3123H269.99L262.788 19.8388Z" fill="#1D6EAD"/>
<path d="M262.788 42.7828L269.99 32.3122H255.587L262.788 42.7828Z" fill="#214290"/>
<path d="M204.157 32.3105L211.36 19.8347H196.955L204.157 32.3105Z" fill="#1D6EAD"/>
<path d="M196.954 19.8347L189.751 32.3105H204.157L196.954 19.8347Z" fill="#07AED1"/>
<path d="M196.954 42.7833L204.157 32.3104H189.751L196.954 42.7833Z" fill="#1D6EAD"/>
<path d="M204.157 32.3104L196.955 42.7833H211.36L204.157 32.3104Z" fill="#214290"/>
<path d="M212.269 30.6055L229.898 41.8334V0L212.269 30.6055Z" fill="#07AED1"/>
<path d="M247.528 30.6055L229.898 41.8334V0L247.528 30.6055Z" fill="#214290"/>
<path d="M215.795 32.8513L229.898 41.8339V8.36695L215.795 32.8513Z" fill="#E32227"/>
<path d="M244.002 32.8513L229.898 41.8339V8.36695L244.002 32.8513Z" fill="#7F141C"/>
<path d="M219.32 35.0964L229.898 41.8335V16.7335L219.32 35.0964Z" fill="#FBCD0B"/>
<path d="M240.476 35.0964L229.898 41.8335V16.7335L240.476 35.0964Z" fill="#F68D1E"/>
<path d="M222.846 37.3426L229.898 41.8339V25.1004L222.846 37.3426Z" fill="#FBCD0B"/>
<path d="M236.95 37.3426L229.898 41.8339V25.1004L236.95 37.3426Z" fill="#F68D1E"/>
<path d="M247.528 34.2279L229.898 59.9798V45.4558L247.528 34.2279Z" fill="#214290"/>
<path d="M212.351 34.2279L229.898 59.9798V45.4558L212.351 34.2279Z" fill="#07AED1"/>
<path d="M241.368 38.1382L229.899 54.8919V45.4432L241.368 38.1382Z" fill="#7F141C"/>
<path d="M218.483 38.1382L229.899 54.8919V45.4432L218.483 38.1382Z" fill="#E32227"/>
<path d="M235.099 42.1322L229.905 49.7185V45.44L235.099 42.1322Z" fill="#F68D1E"/>
<path d="M224.736 42.1322L229.905 49.7185V45.44L224.736 42.1322Z" fill="#FBCD0B"/>
<g style="mix-blend-mode:overlay">
<path opacity="0.75" d="M229.898 41.8335L232.308 37.65H227.488L229.898 41.8335ZM229.898 25.1005L232.308 20.9174H227.488L229.898 25.1005ZM232.308 29.2839L234.717 25.1005H229.898L232.308 29.2839ZM237.127 29.2839L239.537 25.1005H234.717L237.127 29.2839Z" fill="white"/>
<path opacity="0.75" d="M234.718 33.4669L237.127 29.2834H232.308L234.718 33.4669ZM232.308 37.6504L234.718 33.4669H229.898L232.308 37.6504ZM227.488 37.6504L229.898 33.4669H225.079L227.488 37.6504ZM222.669 29.2838L220.259 25.1004H225.079L222.669 29.2838Z" fill="white"/>
<path opacity="0.75" d="M225.078 33.4669L222.668 29.2835H227.488L225.078 33.4669Z" fill="white"/>
<path opacity="0.75" d="M227.488 29.2839L225.079 25.1004H229.898L227.488 29.2839ZM232.308 20.9169L234.718 16.7339H229.898L232.308 20.9169ZM227.488 20.9169L225.079 16.7339H229.898L227.488 20.9169Z" fill="white"/>
</g>
<path d="M165.373 19.8347V42.7833L172.576 31.3088L165.373 19.8347Z" fill="#07AED1"/>
<path d="M172.576 19.8347H165.373L172.576 31.3088L179.779 19.8347H172.576ZM172.576 31.3093V31.3088L165.373 42.7833H179.779L172.576 31.3093Z" fill="#1D6EAD"/>
<path d="M179.779 19.8347L172.576 31.3088V31.3093L179.779 42.7833L186.981 32.3105L179.779 19.8347Z" fill="#214290"/>
<path d="M286.98 31.3106L279.778 42.7829H294.182L293.818 42.2033L286.98 31.3106ZM294.182 19.8388H279.778L286.98 31.3106L293.818 20.4188L294.182 19.8388Z" fill="#1D6EAD"/>
<path d="M293.818 20.4188L286.981 31.3106L293.818 42.2033L294.182 42.7829V19.8388L293.818 20.4188Z" fill="#214290"/>
</svg>
