<svg width="65" height="21" viewBox="0 0 65 21" fill="none" xmlns="http://www.w3.org/2000/svg">
<path d="M17.0635 3.57488C16.9968 2.63077 16.6153 2.00137 15.9096 1.68667C15.1944 1.37197 14.4887 1.37197 13.783 1.68667C13.0773 2.00137 12.6959 2.63077 12.6482 3.57488C12.6577 5.11977 12.6577 6.66466 12.6673 8.20956C12.6673 8.86757 12.6673 9.52558 12.6768 10.1836C10.1115 7.58969 7.29828 5.3105 4.21803 3.33647C3.67445 3.02177 3.16903 2.91687 2.69221 3.04084C2.60638 3.05038 2.53009 3.06945 2.4538 3.08852C1.8244 3.27925 1.38572 3.62256 1.14731 4.12799C0.899367 4.63342 0.823076 5.18653 0.908904 5.79685C1.52877 10.4029 2.53962 14.9232 3.9224 19.3576C4.25617 20.2445 4.81882 20.7404 5.59127 20.8548C6.37325 20.9692 7.05033 20.788 7.64159 20.2922C8.23284 19.8058 8.41404 19.1001 8.17563 18.1846C7.34596 15.5335 6.65934 12.8538 6.10623 10.1454C8.68105 12.3483 11.0938 14.7229 13.3443 17.2787C14.0691 17.9653 14.8702 18.1179 15.7189 17.7364C16.5676 17.3549 17.0349 16.6874 17.1017 15.7147C17.0921 11.6713 17.0826 7.62784 17.0635 3.57488Z" fill="#7A52F4"/>
<path d="M17.0635 3.57488C16.9968 2.63077 16.6153 2.00137 15.9096 1.68667C15.1944 1.37197 14.4887 1.37197 13.783 1.68667C13.0773 2.00137 12.6959 2.63077 12.6482 3.57488C12.6577 5.11977 12.6577 6.66466 12.6673 8.20956C12.6673 8.86757 12.6673 9.52558 12.6768 10.1836C10.1115 7.58969 7.29828 5.3105 4.21803 3.33647C3.67445 3.02177 3.16903 2.91687 2.69221 3.04084C2.60638 3.05038 2.53009 3.06945 2.4538 3.08852C1.8244 3.27925 1.38572 3.62256 1.14731 4.12799C0.899367 4.63342 0.823076 5.18653 0.908904 5.79685C1.52877 10.4029 2.53962 14.9232 3.9224 19.3576C4.25617 20.2445 4.81882 20.7404 5.59127 20.8548C6.37325 20.9692 7.05033 20.788 7.64159 20.2922C8.23284 19.8058 8.41404 19.1001 8.17563 18.1846C7.34596 15.5335 6.65934 12.8538 6.10623 10.1454C8.68105 12.3483 11.0938 14.7229 13.3443 17.2787C14.0691 17.9653 14.8702 18.1179 15.7189 17.7364C16.5676 17.3549 17.0349 16.6874 17.1017 15.7147C17.0921 11.6713 17.0826 7.62784 17.0635 3.57488Z" fill="white" fill-opacity="0.5"/>
<path d="M26.5477 3.07898C25.9755 2.93594 25.4128 3.00269 24.8693 3.28879C24.3257 3.57488 23.9824 4.01355 23.8393 4.61434C23.6963 5.33911 23.5532 6.07341 23.4102 6.79817C22.6759 10.4792 21.9511 14.1603 21.2264 17.8413C21.1119 18.4421 21.1882 19.0047 21.4457 19.5102C21.7127 20.0156 22.1514 20.3589 22.7617 20.5496C23.3434 20.6927 23.9061 20.6164 24.4401 20.3303C24.9837 20.0537 25.327 19.6055 25.4796 19.0047C25.7657 17.5361 26.0613 16.0675 26.3474 14.5989C26.9291 11.6617 27.5108 8.72452 28.0926 5.78732C28.207 5.17699 28.1307 4.62388 27.8637 4.11845C27.5967 3.61302 27.158 3.26018 26.5477 3.07898Z" fill="#7A52F4"/>
<path d="M26.5477 3.07898C25.9755 2.93594 25.4128 3.00269 24.8693 3.28879C24.3257 3.57488 23.9824 4.01355 23.8393 4.61434C23.6963 5.33911 23.5532 6.07341 23.4102 6.79817C22.6759 10.4792 21.9511 14.1603 21.2264 17.8413C21.1119 18.4421 21.1882 19.0047 21.4457 19.5102C21.7127 20.0156 22.1514 20.3589 22.7617 20.5496C23.3434 20.6927 23.9061 20.6164 24.4401 20.3303C24.9837 20.0537 25.327 19.6055 25.4796 19.0047C25.7657 17.5361 26.0613 16.0675 26.3474 14.5989C26.9291 11.6617 27.5108 8.72452 28.0926 5.78732C28.207 5.17699 28.1307 4.62388 27.8637 4.11845C27.5967 3.61302 27.158 3.26018 26.5477 3.07898Z" fill="white" fill-opacity="0.5"/>
<path d="M52.7204 13.1685C50.4412 9.56372 48.6293 5.73964 47.2942 1.68667C46.8556 0.609062 46.1499 0.0845612 45.1962 0.11317C44.2331 0.151316 43.5178 0.675817 43.041 1.68667L40.5616 8.05698C39.1025 6.15924 37.6244 4.28057 36.1271 2.41144C35.574 1.82972 34.8874 1.63899 34.0768 1.83926C33.5905 1.92508 33.1709 2.14442 32.818 2.48773C32.4747 2.84058 32.2744 3.31739 32.2268 3.92772C32.017 8.53379 32.1314 13.1399 32.5796 17.7364C32.6464 18.3467 32.8657 18.8712 33.2472 19.3004C33.6286 19.7295 34.1436 19.9393 34.7825 19.9393C35.3642 19.9393 35.8792 19.7295 36.3274 19.3004C36.7756 18.8712 36.995 18.3563 36.995 17.7364C36.9854 17.641 36.9854 17.5552 36.9759 17.4598C36.9663 17.2882 36.9568 17.107 36.9473 16.9258C36.9377 16.7542 36.9187 16.592 36.8805 16.449C36.6993 14.3033 36.5944 12.1672 36.5563 10.031C37.4718 11.2135 38.3873 12.4056 39.2837 13.6071C39.9226 14.3891 40.6569 14.7324 41.4771 14.6371C42.2876 14.5322 42.9075 14.0172 43.3176 13.0826C43.9279 11.4996 44.5478 9.92611 45.1581 8.34307C46.2357 10.7844 47.4945 13.1399 48.9154 15.4C49.459 16.1724 50.1265 16.5157 50.9085 16.4204C51.6905 16.3346 52.3008 15.9817 52.7491 15.3523C53.1877 14.7324 53.1782 14.0077 52.7204 13.1685Z" fill="#7A52F4"/>
<path d="M52.7204 13.1685C50.4412 9.56372 48.6293 5.73964 47.2942 1.68667C46.8556 0.609062 46.1499 0.0845612 45.1962 0.11317C44.2331 0.151316 43.5178 0.675817 43.041 1.68667L40.5616 8.05698C39.1025 6.15924 37.6244 4.28057 36.1271 2.41144C35.574 1.82972 34.8874 1.63899 34.0768 1.83926C33.5905 1.92508 33.1709 2.14442 32.818 2.48773C32.4747 2.84058 32.2744 3.31739 32.2268 3.92772C32.017 8.53379 32.1314 13.1399 32.5796 17.7364C32.6464 18.3467 32.8657 18.8712 33.2472 19.3004C33.6286 19.7295 34.1436 19.9393 34.7825 19.9393C35.3642 19.9393 35.8792 19.7295 36.3274 19.3004C36.7756 18.8712 36.995 18.3563 36.995 17.7364C36.9854 17.641 36.9854 17.5552 36.9759 17.4598C36.9663 17.2882 36.9568 17.107 36.9473 16.9258C36.9377 16.7542 36.9187 16.592 36.8805 16.449C36.6993 14.3033 36.5944 12.1672 36.5563 10.031C37.4718 11.2135 38.3873 12.4056 39.2837 13.6071C39.9226 14.3891 40.6569 14.7324 41.4771 14.6371C42.2876 14.5322 42.9075 14.0172 43.3176 13.0826C43.9279 11.4996 44.5478 9.92611 45.1581 8.34307C46.2357 10.7844 47.4945 13.1399 48.9154 15.4C49.459 16.1724 50.1265 16.5157 50.9085 16.4204C51.6905 16.3346 52.3008 15.9817 52.7491 15.3523C53.1877 14.7324 53.1782 14.0077 52.7204 13.1685Z" fill="white" fill-opacity="0.5"/>
<path d="M62.5288 3.07898C61.9566 2.93594 61.394 3.00269 60.8504 3.28879C60.3068 3.57488 59.9635 4.01355 59.8205 4.61434C59.6774 5.33911 59.5344 6.07341 59.3913 6.79817C58.657 10.4792 57.9323 14.1603 57.2075 17.8413C57.0931 18.4421 57.1694 19.0047 57.4268 19.5102C57.6939 20.0156 58.1325 20.3589 58.7429 20.5496C59.3246 20.6927 59.8872 20.6164 60.4213 20.3303C60.9648 20.0537 61.3081 19.6055 61.4607 19.0047C61.7468 17.5361 62.0424 16.0675 62.3285 14.5989C62.9103 11.6617 63.492 8.72452 64.0737 5.78732C64.1881 5.17699 64.1118 4.62388 63.8448 4.11845C63.5778 3.61302 63.1391 3.26018 62.5288 3.07898Z" fill="#7A52F4"/>
<path d="M62.5288 3.07898C61.9566 2.93594 61.394 3.00269 60.8504 3.28879C60.3068 3.57488 59.9635 4.01355 59.8205 4.61434C59.6774 5.33911 59.5344 6.07341 59.3913 6.79817C58.657 10.4792 57.9323 14.1603 57.2075 17.8413C57.0931 18.4421 57.1694 19.0047 57.4268 19.5102C57.6939 20.0156 58.1325 20.3589 58.7429 20.5496C59.3246 20.6927 59.8872 20.6164 60.4213 20.3303C60.9648 20.0537 61.3081 19.6055 61.4607 19.0047C61.7468 17.5361 62.0424 16.0675 62.3285 14.5989C62.9103 11.6617 63.492 8.72452 64.0737 5.78732C64.1881 5.17699 64.1118 4.62388 63.8448 4.11845C63.5778 3.61302 63.1391 3.26018 62.5288 3.07898Z" fill="white" fill-opacity="0.5"/>
</svg>
