<svg width="14" height="13" viewBox="0 0 14 13" fill="none" xmlns="http://www.w3.org/2000/svg">
<mask id="mask0_2092_42061" style="mask-type:alpha" maskUnits="userSpaceOnUse" x="0" y="0" width="14" height="13">
<path d="M7.90115 10.3224C8.15482 10.3224 8.3596 10.5278 8.3596 10.7808V11.5712C8.3596 11.699 8.46413 11.8035 8.59188 11.8035H9.3902C9.64327 11.8035 9.84865 12.0089 9.84865 12.2619C9.84865 12.515 9.64327 12.7204 9.3902 12.7204H8.59188C7.95861 12.7204 7.44269 12.2045 7.44269 11.5712V10.7808C7.44269 10.5278 7.64808 10.3224 7.90115 10.3224ZM12.7916 10.3224C13.0446 10.3224 13.25 10.5278 13.25 10.7809V11.5713C13.25 12.2045 12.7341 12.7204 12.1008 12.7204H11.3025C11.0494 12.7204 10.844 12.5151 10.844 12.262C10.844 12.0089 11.0494 11.8035 11.3025 11.8035H12.1008C12.2286 11.8035 12.3331 11.699 12.3331 11.5713V10.7809C12.3331 10.5278 12.5385 10.3224 12.7916 10.3224ZM5.38003 7.0055C5.91917 7.0055 6.35745 7.44378 6.35745 7.98292V11.6505C6.35745 12.1897 5.91917 12.6286 5.38003 12.6286H1.71241C1.17327 12.6286 0.734375 12.1897 0.734375 11.6505V7.98292C0.734375 7.44378 1.17327 7.0055 1.71241 7.0055H5.38003ZM10.876 9.02208C11.0227 9.02208 11.1412 9.14128 11.1412 9.28737V10.3467C11.1412 10.4934 11.0227 10.612 10.876 10.612H9.81723C9.66992 10.612 9.55194 10.4934 9.55194 10.3467V9.28737C9.55194 9.14128 9.66992 9.02208 9.81723 9.02208H10.876ZM4.03523 9.08382H3.0572C2.92211 9.08382 2.81269 9.19324 2.81269 9.32772V10.3064C2.81269 10.4415 2.92211 10.5503 3.0572 10.5503H4.03523C4.16971 10.5503 4.27974 10.4415 4.27974 10.3064V9.32772C4.27974 9.19324 4.16971 9.08382 4.03523 9.08382ZM12.1009 6.91332C12.7342 6.91332 13.2501 7.42924 13.2501 8.06312V8.85349C13.2501 9.10656 13.0447 9.31195 12.7916 9.31195C12.5385 9.31195 12.3332 9.10656 12.3332 8.85349V8.06312C12.3332 7.93476 12.2286 7.83023 12.1009 7.83023H11.3026C11.0495 7.83023 10.8441 7.62484 10.8441 7.37178C10.8441 7.11871 11.0495 6.91332 11.3026 6.91332H12.1009ZM9.39044 6.9132C9.64351 6.9132 9.8489 7.11859 9.8489 7.37165C9.8489 7.62472 9.64351 7.83011 9.39044 7.83011H8.59213C8.46437 7.83011 8.35984 7.93463 8.35984 8.063V8.85337C8.35984 9.10644 8.15446 9.31182 7.90139 9.31182C7.64833 9.31182 7.44294 9.10644 7.44294 8.85337V8.063C7.44294 7.42911 7.95885 6.9132 8.59213 6.9132H9.39044ZM5.38003 0.234406C5.91917 0.234406 6.35745 0.672687 6.35745 1.21183V4.87945C6.35745 5.41859 5.91917 5.85748 5.38003 5.85748H1.71241C1.17327 5.85748 0.734375 5.41859 0.734375 4.87945V1.21183C0.734375 0.672687 1.17327 0.234406 1.71241 0.234406H5.38003ZM12.1802 0.233978C12.7193 0.233978 13.1582 0.67287 13.1582 1.21201V4.87963C13.1582 5.41877 12.7193 5.85705 12.1802 5.85705H8.51254C7.9734 5.85705 7.53512 5.41877 7.53512 4.87963V1.21201C7.53512 0.67287 7.9734 0.233978 8.51254 0.233978H12.1802ZM10.8354 2.3123H9.85733C9.72285 2.3123 9.61282 2.4211 9.61282 2.5568V3.53484C9.61282 3.66931 9.72285 3.77934 9.85733 3.77934H10.8354C10.9705 3.77934 11.0799 3.66931 11.0799 3.53484V2.5568C11.0799 2.4211 10.9705 2.3123 10.8354 2.3123ZM4.03523 2.31211H3.0572C2.92211 2.31211 2.81269 2.42153 2.81269 2.55662V3.53465C2.81269 3.66974 2.92211 3.77916 3.0572 3.77916H4.03523C4.16971 3.77916 4.27974 3.66974 4.27974 3.53465V2.55662C4.27974 2.42153 4.16971 2.31211 4.03523 2.31211Z" fill="white"/>
</mask>
<g mask="url(#mask0_2092_42061)">
<path className='svg-path-fill' d="M7.90115 10.3224C8.15482 10.3224 8.3596 10.5278 8.3596 10.7808V11.5712C8.3596 11.699 8.46413 11.8035 8.59188 11.8035H9.3902C9.64327 11.8035 9.84865 12.0089 9.84865 12.2619C9.84865 12.515 9.64327 12.7204 9.3902 12.7204H8.59188C7.95861 12.7204 7.44269 12.2045 7.44269 11.5712V10.7808C7.44269 10.5278 7.64808 10.3224 7.90115 10.3224ZM12.7916 10.3224C13.0446 10.3224 13.25 10.5278 13.25 10.7809V11.5713C13.25 12.2045 12.7341 12.7204 12.1008 12.7204H11.3025C11.0494 12.7204 10.844 12.5151 10.844 12.262C10.844 12.0089 11.0494 11.8035 11.3025 11.8035H12.1008C12.2286 11.8035 12.3331 11.699 12.3331 11.5713V10.7809C12.3331 10.5278 12.5385 10.3224 12.7916 10.3224ZM5.38003 7.0055C5.91917 7.0055 6.35745 7.44378 6.35745 7.98292V11.6505C6.35745 12.1897 5.91917 12.6286 5.38003 12.6286H1.71241C1.17327 12.6286 0.734375 12.1897 0.734375 11.6505V7.98292C0.734375 7.44378 1.17327 7.0055 1.71241 7.0055H5.38003ZM10.876 9.02208C11.0227 9.02208 11.1412 9.14128 11.1412 9.28737V10.3467C11.1412 10.4934 11.0227 10.612 10.876 10.612H9.81723C9.66992 10.612 9.55194 10.4934 9.55194 10.3467V9.28737C9.55194 9.14128 9.66992 9.02208 9.81723 9.02208H10.876ZM4.03523 9.08382H3.0572C2.92211 9.08382 2.81269 9.19324 2.81269 9.32772V10.3064C2.81269 10.4415 2.92211 10.5503 3.0572 10.5503H4.03523C4.16971 10.5503 4.27974 10.4415 4.27974 10.3064V9.32772C4.27974 9.19324 4.16971 9.08382 4.03523 9.08382ZM12.1009 6.91332C12.7342 6.91332 13.2501 7.42924 13.2501 8.06312V8.85349C13.2501 9.10656 13.0447 9.31195 12.7916 9.31195C12.5385 9.31195 12.3332 9.10656 12.3332 8.85349V8.06312C12.3332 7.93476 12.2286 7.83023 12.1009 7.83023H11.3026C11.0495 7.83023 10.8441 7.62484 10.8441 7.37178C10.8441 7.11871 11.0495 6.91332 11.3026 6.91332H12.1009ZM9.39044 6.9132C9.64351 6.9132 9.8489 7.11859 9.8489 7.37165C9.8489 7.62472 9.64351 7.83011 9.39044 7.83011H8.59213C8.46437 7.83011 8.35984 7.93463 8.35984 8.063V8.85337C8.35984 9.10644 8.15446 9.31182 7.90139 9.31182C7.64833 9.31182 7.44294 9.10644 7.44294 8.85337V8.063C7.44294 7.42911 7.95885 6.9132 8.59213 6.9132H9.39044ZM5.38003 0.234406C5.91917 0.234406 6.35745 0.672687 6.35745 1.21183V4.87945C6.35745 5.41859 5.91917 5.85748 5.38003 5.85748H1.71241C1.17327 5.85748 0.734375 5.41859 0.734375 4.87945V1.21183C0.734375 0.672687 1.17327 0.234406 1.71241 0.234406H5.38003ZM12.1802 0.233978C12.7193 0.233978 13.1582 0.67287 13.1582 1.21201V4.87963C13.1582 5.41877 12.7193 5.85705 12.1802 5.85705H8.51254C7.9734 5.85705 7.53512 5.41877 7.53512 4.87963V1.21201C7.53512 0.67287 7.9734 0.233978 8.51254 0.233978H12.1802ZM10.8354 2.3123H9.85733C9.72285 2.3123 9.61282 2.4211 9.61282 2.5568V3.53484C9.61282 3.66931 9.72285 3.77934 9.85733 3.77934H10.8354C10.9705 3.77934 11.0799 3.66931 11.0799 3.53484V2.5568C11.0799 2.4211 10.9705 2.3123 10.8354 2.3123ZM4.03523 2.31211H3.0572C2.92211 2.31211 2.81269 2.42153 2.81269 2.55662V3.53465C2.81269 3.66974 2.92211 3.77916 3.0572 3.77916H4.03523C4.16971 3.77916 4.27974 3.66974 4.27974 3.53465V2.55662C4.27974 2.42153 4.16971 2.31211 4.03523 2.31211Z" fill="#343EDF"/>
</g>
</svg>
