<svg width="306" height="75" viewBox="0 0 306 75" fill="none" xmlns="http://www.w3.org/2000/svg">
<path d="M133.78 49.1209C133.684 47.7548 133.134 46.844 132.119 46.3887C131.089 45.9333 130.073 45.9333 129.057 46.3887C128.042 46.844 127.493 47.7548 127.424 49.1209C127.438 51.3563 127.438 53.5918 127.451 55.8272C127.451 56.7793 127.451 57.7315 127.465 58.6836C123.772 54.9303 119.723 51.6323 115.289 48.7759C114.507 48.3205 113.779 48.1688 113.093 48.3481C112.969 48.3619 112.859 48.3895 112.75 48.4171C111.844 48.6931 111.212 49.1899 110.869 49.9212C110.512 50.6526 110.402 51.4529 110.526 52.3361C111.418 59.001 112.873 65.5417 114.864 71.9583C115.344 73.2416 116.154 73.9591 117.266 74.1247C118.391 74.2903 119.366 74.0281 120.217 73.3106C121.068 72.6068 121.329 71.5857 120.986 70.261C119.792 66.4249 118.803 62.5473 118.007 58.6284C121.713 61.816 125.186 65.2519 128.426 68.9501C129.469 69.9436 130.622 70.1644 131.844 69.6124C133.066 69.0605 133.738 68.0945 133.835 66.687C133.821 60.8363 133.807 54.9855 133.78 49.1209Z" fill="white"/>
<path d="M147.432 48.4033C146.608 48.1964 145.798 48.2929 145.016 48.7069C144.233 49.1209 143.739 49.7556 143.533 50.625C143.327 51.6737 143.121 52.7362 142.915 53.785C141.858 59.1114 140.815 64.4378 139.772 69.7642C139.607 70.6336 139.717 71.4477 140.088 72.179C140.472 72.9104 141.103 73.4072 141.982 73.6831C142.819 73.8901 143.629 73.7797 144.398 73.3658C145.18 72.9656 145.675 72.317 145.894 71.4477C146.306 69.3226 146.732 67.1976 147.143 65.0725C147.981 60.8225 148.818 56.5724 149.655 52.3223C149.82 51.4391 149.71 50.6388 149.326 49.9074C148.942 49.1761 148.31 48.6655 147.432 48.4033Z" fill="white"/>
<path d="M185.106 63.0027C181.825 57.7867 179.217 52.2533 177.295 46.3887C176.664 44.8294 175.648 44.0704 174.275 44.1118C172.889 44.167 171.859 44.926 171.173 46.3887L167.604 55.6064C165.504 52.8604 163.376 50.142 161.221 47.4374C160.425 46.5957 159.436 46.3197 158.27 46.6095C157.569 46.7337 156.965 47.051 156.458 47.5478C155.963 48.0584 155.675 48.7483 155.606 49.6314C155.304 56.2964 155.469 62.9613 156.114 69.6124C156.21 70.4956 156.526 71.2545 157.075 71.8755C157.624 72.4964 158.366 72.8 159.285 72.8C160.123 72.8 160.864 72.4964 161.509 71.8755C162.154 71.2545 162.47 70.5094 162.47 69.6124C162.456 69.4744 162.456 69.3502 162.443 69.2122C162.429 68.9639 162.415 68.7017 162.401 68.4395C162.388 68.1911 162.36 67.9565 162.305 67.7496C162.045 64.6448 161.894 61.5538 161.839 58.4628C163.156 60.1739 164.474 61.8988 165.765 63.6374C166.684 64.769 167.741 65.2657 168.922 65.1277C170.089 64.976 170.981 64.2308 171.571 62.8785C172.45 60.5879 173.342 58.311 174.221 56.0204C175.772 59.5529 177.584 62.9613 179.629 66.2317C180.412 67.3494 181.372 67.8462 182.498 67.7082C183.624 67.584 184.502 67.0734 185.147 66.1627C185.779 65.2657 185.765 64.217 185.106 63.0027Z" fill="white"/>
<path d="M199.225 48.4033C198.401 48.1964 197.591 48.2929 196.809 48.7069C196.027 49.1209 195.532 49.7556 195.326 50.625C195.121 51.6737 194.915 52.7362 194.709 53.785C193.652 59.1114 192.608 64.4378 191.565 69.7642C191.4 70.6336 191.51 71.4477 191.881 72.179C192.265 72.9104 192.897 73.4072 193.775 73.6831C194.613 73.8901 195.423 73.7797 196.191 73.3658C196.974 72.9656 197.468 72.317 197.688 71.4477C198.099 69.3226 198.525 67.1976 198.937 65.0725C199.774 60.8225 200.611 56.5724 201.449 52.3223C201.613 51.4391 201.504 50.6388 201.119 49.9074C200.735 49.1761 200.103 48.6655 199.225 48.4033Z" fill="white"/>
<path d="M0 0H15.1045V66H0V0Z" fill="white"/>
<path d="M17.1106 66V16C17.1106 6.4 23.5552 0 33.222 0C42.8889 0 49.3335 6.4 49.3335 16V50C49.3335 50.6 49.837 51 50.3405 51C51.0454 51 51.3475 50.6 51.3475 50V0H66.452V50C66.452 59.6 60.0074 66 50.3405 66C40.6736 66 34.229 59.6 34.229 50V16C34.229 15.4 33.8262 15 33.222 15C32.6179 15 32.2151 15.4 32.2151 16V66H17.1106Z" fill="white"/>
<path d="M68.4423 50V66H83.5468V50C83.5468 49.4 83.9496 49 84.5538 49H101.672C103.449 49 105.117 48.7837 106.656 48.3711C106.711 48.2425 106.769 48.1144 106.83 47.9868C107.824 45.8958 109.606 44.6938 111.445 44.1338L111.551 44.1015L111.658 44.0745L111.677 44.0697C111.757 44.0493 111.97 43.995 112.245 43.9479C112.883 43.8098 113.501 43.7717 114.09 43.8088C116.452 41.0678 117.784 37.3646 117.784 33C117.784 23.4 111.339 17 101.672 17H84.5538C83.9496 17 83.5468 16.6 83.5468 16C83.5468 15.4 83.9496 15 84.5538 15H117.784V0H84.5538C74.8869 0 68.4423 6.4 68.4423 16C68.4423 25.6 74.8869 32 84.5538 32H101.672C102.276 32 102.679 32.4 102.679 33C102.679 33.6 102.276 34 101.672 34H84.5538C74.8869 34 68.4423 40.4 68.4423 50Z" fill="white"/>
<path d="M119.774 60.183V51.9149C120.864 52.742 121.928 53.5995 122.967 54.4877C123.48 54.9267 123.987 55.3732 124.489 55.8272L124.509 55.8453C125.519 56.7607 126.504 57.7067 127.465 58.6836C127.451 57.7315 127.451 56.7793 127.451 55.8272C127.445 54.7095 127.441 53.5918 127.437 52.474L127.437 52.4567C127.434 51.3447 127.431 50.2328 127.424 49.1209C127.493 47.7548 128.042 46.844 129.057 46.3887C130.073 45.9333 131.089 45.9333 132.119 46.3887C133.134 46.844 133.684 47.7548 133.78 49.1209C133.806 54.7559 133.82 60.3782 133.833 66H125.74C125.124 65.3491 124.5 64.7068 123.868 64.0731C122.538 62.7387 121.173 61.4422 119.774 60.183Z" fill="white"/>
<path d="M134.879 42.7987C134.59 42.6173 134.281 42.4512 133.95 42.3028L133.94 42.2982L133.93 42.2937C131.754 41.3316 129.414 41.3216 127.226 42.3028C124.376 43.58 123.14 46.1667 122.962 48.7167C121.922 47.9136 120.859 47.137 119.774 46.3868V0H134.879V42.7987Z" fill="white"/>
<path d="M146.963 66H140.509C141.307 61.9283 142.107 57.8566 142.915 53.785C143.018 53.2627 143.12 52.737 143.223 52.2113L143.225 52.1986C143.328 51.6729 143.431 51.1472 143.533 50.625C143.739 49.7556 144.233 49.1209 145.016 48.7069C145.798 48.2929 146.608 48.1964 147.432 48.4033C148.31 48.6655 148.942 49.1761 149.326 49.9074C149.71 50.6388 149.82 51.4391 149.655 52.3223L147.143 65.0725C147.083 65.3817 147.023 65.6908 146.963 66Z" fill="white"/>
<path d="M151.989 46.0463C151.081 45.1317 149.956 44.4839 148.712 44.1127L148.618 44.0846L148.523 44.0607C146.606 43.5791 144.663 43.8274 142.921 44.749C141.001 45.765 139.68 47.4644 139.176 49.593L139.156 49.6773L139.139 49.7623C139.036 50.2898 138.932 50.8204 138.829 51.3477L138.826 51.3631C138.724 51.8845 138.623 52.4028 138.522 52.9174L138.278 54.1517C138.272 52.4689 138.265 50.785 138.257 49.0999L138.256 48.9531L138.246 48.8067C138.147 47.3973 137.731 45.952 136.885 44.7217V16C136.885 6.4 143.329 0 152.996 0C162.663 0 169.108 6.4 169.108 16V41.697C168.224 42.522 167.583 43.4989 167.119 44.4866L167.053 44.6271L166.284 46.6148C165.765 45.9578 165.244 45.3019 164.723 44.647L164.604 44.4984L164.474 44.3605C162.549 42.3253 159.942 41.6299 157.336 42.229C156.09 42.4745 154.965 43.0004 154.003 43.7538V16C154.003 15.4 153.6 15 152.996 15C152.392 15 151.989 15.4 151.989 16V46.0463Z" fill="white"/>
<path d="M162.054 64.2023C159.096 62.7047 156.829 60.3269 155.465 57.2798C155.443 54.7309 155.491 52.1812 155.606 49.6314C155.675 48.7483 155.963 48.0584 156.458 47.5478C156.673 47.3368 156.906 47.1581 157.157 47.0129C157.496 46.8163 157.867 46.6809 158.27 46.6095C158.295 46.603 158.321 46.5969 158.347 46.591C159.48 46.3322 160.442 46.6144 161.221 47.4374C162.289 48.7775 163.35 50.121 164.404 51.4695C165.478 52.8426 166.544 54.221 167.604 55.6064L169.476 50.7714C169.657 50.9176 169.886 51 170.115 51C170.819 51 171.121 50.6 171.121 50V46.5215L171.173 46.3887C171.859 44.926 172.889 44.167 174.275 44.1118C175.648 44.0704 176.664 44.8294 177.295 46.3887C178.84 51.1033 180.829 55.6039 183.254 59.8976C181.976 61.6563 180.319 63.083 178.348 64.1133C177.848 63.2572 177.364 62.3921 176.896 61.5184C175.934 59.7218 175.041 57.8885 174.221 56.0204C173.781 57.1657 173.338 58.3076 172.896 59.4495L172.887 59.4704C172.588 60.2427 172.289 61.015 171.99 61.7883C171.85 62.1515 171.711 62.5148 171.571 62.8785C170.981 64.2308 170.089 64.976 168.922 65.1277C168.065 65.2278 167.274 64.9939 166.553 64.426C166.28 64.211 166.017 63.9482 165.765 63.6374C164.474 61.8988 163.156 60.1739 161.839 58.4628C161.873 60.3749 161.943 62.287 162.054 64.2023Z" fill="white"/>
<path d="M198.756 66H192.302C193.101 61.9283 193.901 57.8566 194.709 53.785C194.812 53.2606 194.914 52.7328 195.017 52.205C195.12 51.6772 195.223 51.1493 195.326 50.625C195.532 49.7556 196.027 49.1209 196.809 48.7069C197.591 48.2929 198.401 48.1964 199.225 48.4033C200.103 48.6655 200.735 49.1761 201.119 49.9074C201.504 50.6388 201.613 51.4391 201.449 52.3223L198.937 65.0725C198.877 65.3817 198.816 65.6908 198.756 66Z" fill="white"/>
<path d="M203.318 66H203.321V65.9839C203.32 65.9892 203.319 65.9946 203.318 66Z" fill="white"/>
<path d="M203.321 45.6198C202.504 44.9276 201.546 44.4233 200.505 44.1127L200.411 44.0846L200.316 44.0607C198.4 43.5791 196.457 43.8274 194.715 44.749C192.795 45.765 191.473 47.4644 190.969 49.593L190.949 49.6773L190.932 49.7623C190.851 50.1754 190.77 50.5903 190.69 51.0041L190.622 51.3477L190.615 51.3884C190.514 51.9022 190.415 52.413 190.315 52.9201C189.814 55.4459 189.316 57.9715 188.819 60.4963C188.616 60.1708 188.415 59.844 188.216 59.5159V0H203.321V45.6198Z" fill="white"/>
<path d="M185.623 54.8367C184.022 51.6712 182.664 48.392 181.55 44.9943L181.503 44.8494L181.446 44.708C180.921 43.4117 180.086 42.0731 178.755 41.0717C177.363 40.0243 175.746 39.5878 174.14 39.6362L174.119 39.6369L174.097 39.6377C173.076 39.6784 172.068 39.9041 171.121 40.3402V0H186.226V50C186.226 51.7212 186.019 53.3396 185.623 54.8367Z" fill="white"/>
<path d="M254.668 0H205.327V15H222.445V66H237.55V15H254.668V0Z" fill="white"/>
<path d="M306 66H272.77C263.103 66 256.659 59.6 256.659 50C256.659 40.4 263.103 34 272.77 34H289.889C290.493 34 290.896 33.7 290.896 33C290.896 32.5 290.493 32 289.889 32H272.77C263.103 32 256.659 25.6 256.659 16C256.659 6.4 263.103 0 272.77 0H306V15H272.77C272.166 15 271.763 15.4 271.763 16C271.763 16.6 272.166 17 272.77 17H289.889C299.555 17 306 23.4 306 33C306 42.6 299.555 49 289.889 49H272.77C272.166 49 271.763 49.4 271.763 50C271.763 50.6 272.166 51 272.77 51H306V66Z" fill="white"/>
</svg>
