<svg width="20" height="20" viewBox="0 0 20 20" fill="none" xmlns="http://www.w3.org/2000/svg">
<path d="M10 2.19639C4.47712 2.19639 -2.17899e-06 6.67352 -1.21334e-06 12.1964C-8.79954e-07 14.1031 0.533875 15.885 1.45987 17.4013L4.07237 14.6274L17.2952 14.71L17.1995 19.1359C18.9334 17.3375 20 14.8916 20 12.1964C20 6.67352 15.5229 2.19639 10 2.19639Z" fill="#33A0FF"/>
<path d="M5.47952 5.04655C4.99215 5.01668 4.61865 4.59555 4.64702 4.10768L4.71315 3.0393C4.74215 2.57193 5.1319 2.20568 5.60027 2.20568C5.61777 2.20568 5.6354 2.20618 5.65302 2.2073L6.72077 2.27343C6.95702 2.2878 7.17415 2.39368 7.3314 2.57168C7.4889 2.74968 7.5674 2.97868 7.55227 3.21618L7.48677 4.28043C7.4829 4.34193 7.47052 4.39068 7.4629 4.4173L7.4249 4.60318L6.72227 5.12343L5.47952 5.04655Z" fill="#3DCC8E"/>
<path d="M5.60031 1.66913C4.84906 1.66913 4.22419 2.25638 4.17769 3.00613L4.11157 4.07263L4.11144 4.07463L4.11132 4.07651C4.06582 4.85888 4.66507 5.53426 5.44707 5.58213L6.49394 5.64688L6.88432 5.671L7.19869 5.43825L7.57894 5.15688L7.90932 4.91225L7.98519 4.54138C8.00019 4.4845 8.01644 4.40788 8.02232 4.31413L8.08782 3.24888C8.11181 2.86825 7.98569 2.50138 7.73294 2.21563C7.48131 1.93088 7.13294 1.76088 6.75256 1.73775L5.68781 1.67176L5.68631 1.67176L5.68469 1.67163C5.65669 1.67001 5.62831 1.66913 5.60031 1.66913ZM6.39757 3.99675L6.43682 3.36238L5.80232 3.32313L5.76294 3.95763L6.39757 3.99675ZM5.60032 2.74225C5.60732 2.74225 5.61444 2.74251 5.62157 2.74288L6.68757 2.809C6.78094 2.81463 6.86707 2.8565 6.92919 2.92688C6.99169 2.9975 7.02282 3.08813 7.01682 3.182L6.95119 4.2475C6.95019 4.264 6.94357 4.2785 6.94044 4.29425L6.56019 4.57575L5.51269 4.51101C5.31944 4.49913 5.17144 4.33226 5.18269 4.13888L5.24882 3.07251C5.26032 2.88638 5.41469 2.74225 5.60032 2.74225Z" fill="#282828"/>
<path d="M10 7.37969C5.82475 7.37969 2.44 10.7644 2.44 14.9397C2.44 16.4923 2.90825 17.9353 3.71088 19.1358L16.5928 19.1358C17.2708 17.8974 17.56 16.4312 17.56 14.9397C17.56 11.0754 14.1753 7.37969 10 7.37969Z" fill="white"/>
<path d="M10 6.84311C5.5355 6.84311 1.90338 10.4752 1.90338 14.9397C1.90338 16.4747 2.33288 17.9115 3.07788 19.1359L4.37126 19.1359C3.49563 17.9644 2.97663 16.5115 2.97663 14.9397C2.97663 11.067 6.12725 7.91624 10 7.91624C11.8395 7.91624 13.6014 8.68636 14.961 10.0847C16.2718 11.4326 17.0235 13.2022 17.0235 14.9397C17.0235 16.1294 16.827 17.746 15.9729 19.1359L17.1978 19.1359C17.7889 17.946 18.0966 16.5234 18.0966 14.9397C18.0966 12.9252 17.2343 10.883 15.7305 9.33649C14.167 7.72861 12.1319 6.84311 10 6.84311Z" fill="#282827"/>
<path d="M8.47359 17.1343C8.47359 17.5352 8.14872 17.8601 7.74784 17.8601C7.34697 17.8601 7.02209 17.5352 7.02209 17.1343C7.02209 16.7334 7.34697 16.4086 7.74784 16.4086C8.14872 16.4086 8.47359 16.7334 8.47359 17.1343Z" fill="#282827"/>
<path d="M12.9779 17.1343C12.9779 17.5352 12.653 17.8601 12.2521 17.8601C11.8512 17.8601 11.5264 17.5352 11.5264 17.1343C11.5264 16.7334 11.8512 16.4086 12.2521 16.4086C12.653 16.4086 12.9779 16.7334 12.9779 17.1343Z" fill="#282827"/>
<path d="M1.75146 16.8464L5.77996 12.5739L4.81034 15.6138C7.95546 13.325 11.2572 13.6869 13.5821 14.3696C16.0497 15.0941 17.7773 12.9148 16.0861 10.5899C15.2825 9.48501 14.1801 8.56764 12.928 8.01126C9.64384 6.55239 6.34196 7.40301 4.11459 9.65301C1.75509 12.0365 1.75146 14.6801 1.75146 16.8464Z" fill="#FF6F21"/>
<path d="M9.62146 7.8264C9.15384 7.8264 8.68946 7.87302 8.23309 7.9669C6.84121 8.25315 5.54896 8.96677 4.49596 10.0305C2.74684 11.7974 2.38334 13.6938 2.30784 15.4741L7.00822 10.489L5.76384 14.39C8.10234 13.1674 10.7762 12.9865 13.7332 13.8548C14.6742 14.131 15.5271 13.9216 15.9592 13.3084C16.4031 12.6783 16.2883 11.78 15.6522 10.9055C14.8921 9.86052 13.8472 9.00689 12.7101 8.50164C11.7016 8.05365 10.6538 7.8264 9.62146 7.8264ZM1.21497 18.1976L1.21497 16.8464C1.21497 14.6068 1.21496 11.8195 3.73321 9.27552C4.93571 8.0609 6.41696 7.2449 8.01684 6.91577C9.70109 6.56927 11.4746 6.77852 13.1458 7.52089C14.4525 8.10139 15.6508 9.07927 16.5201 10.2741C17.4255 11.5189 17.5467 12.9184 16.8365 13.9264C16.1421 14.912 14.8056 15.2879 13.4308 14.8844C10.2603 13.9534 7.46609 14.3448 5.12609 16.0476L3.80109 17.0118L4.55172 14.6586L1.21497 18.1976Z" fill="#282827"/>
<path d="M11.9299 6.97704C11.4523 8.22154 10.0673 8.91641 8.78405 8.55516C7.3383 8.14804 6.57492 6.98616 6.75817 5.51241C6.94055 4.04679 7.93092 2.76179 9.07255 1.17779C8.1348 3.17391 8.93142 3.36091 9.18342 3.35091C9.43242 3.34104 9.79592 3.38354 10.3133 3.55516C11.7229 4.02304 12.468 5.57479 11.9299 6.97704Z" fill="#FF6F21"/>
<path d="M8.22865 3.31686C7.7334 4.09336 7.38565 4.81511 7.29065 5.57861C7.14028 6.78774 7.7529 7.70736 8.92953 8.03861C9.95103 8.32624 11.0488 7.77549 11.429 6.78486C11.6352 6.24761 11.6137 5.66649 11.3685 5.14849C11.1232 4.62999 10.6884 4.24499 10.1443 4.06449C9.66678 3.90599 9.36953 3.88086 9.20478 3.88711C8.8349 3.90161 8.49353 3.72936 8.29228 3.42586C8.26903 3.39086 8.24778 3.35461 8.22865 3.31686ZM9.47578 9.18724C9.19753 9.18724 8.9164 9.14986 8.63865 9.07161C7.8054 8.83699 7.13953 8.37324 6.71315 7.73049C6.28803 7.08974 6.11953 6.29987 6.22565 5.44612C6.41315 3.93899 7.34203 2.65499 8.41753 1.16824C8.49003 1.06799 8.56328 0.966739 8.63728 0.864114L9.55815 1.40599C9.10365 2.37361 9.15578 2.73186 9.17965 2.81361C9.54528 2.80249 9.98353 2.88036 10.4823 3.04586C11.3074 3.31974 11.9667 3.90336 12.3385 4.68949C12.7103 5.47499 12.743 6.35574 12.4309 7.16936C11.9574 8.40299 10.7502 9.18724 9.47578 9.18724Z" fill="#282827"/>
<path d="M10.574 11.7298C10.3861 11.7298 10.2101 11.6463 10.0914 11.5008L9.73038 11.0587C9.52113 10.8024 9.55113 10.4276 9.793 10.2073C9.71488 10.1691 9.645 10.1139 9.58825 10.0444L9.50588 9.94356C9.28913 9.67819 9.32875 9.28606 9.594 9.06944L9.64588 9.02706L9.11713 8.37806C8.882 8.09006 8.92512 7.66394 9.21337 7.42844C9.33425 7.32994 9.48575 7.27606 9.6405 7.27606C9.84375 7.27606 10.0344 7.36631 10.1632 7.52381L12.4186 10.2997C12.6534 10.5873 12.6103 11.0134 12.322 11.2489C12.2425 11.3139 12.1473 11.3607 12.047 11.3838C11.9973 11.3953 11.946 11.4011 11.8949 11.4011C11.7191 11.4011 11.553 11.3337 11.4279 11.2138L10.9678 11.5894C10.8569 11.6799 10.717 11.7298 10.574 11.7298Z" fill="#3DCC8E"/>
<path d="M10.5029 7.24567C10.2903 6.98592 9.97589 6.83704 9.64051 6.83704C9.38501 6.83704 9.13501 6.92604 8.93664 7.08754C8.45989 7.47704 8.38889 8.18017 8.77726 8.65592L9.07101 9.01654C8.85526 9.38754 8.87864 9.86954 9.16576 10.2212L9.22101 10.2889C9.09114 10.6315 9.14226 11.0327 9.39026 11.3363L9.75126 11.7785C9.95364 12.0265 10.2535 12.1688 10.5739 12.1688C10.8179 12.1688 11.0564 12.0839 11.2454 11.9295L11.4616 11.753C11.5969 11.8099 11.7438 11.8402 11.8949 11.8402C11.9791 11.8402 12.0635 11.8305 12.1456 11.8115C12.3111 11.7734 12.4681 11.6964 12.5998 11.5889C13.0754 11.2003 13.1464 10.4972 12.7581 10.0214L10.505 7.24829L10.5029 7.24567ZM9.64051 7.71504C9.70889 7.71504 9.77676 7.74479 9.82351 7.80204L12.0779 10.5765C12.1604 10.6777 12.1453 10.8264 12.0443 10.9089C12.0151 10.9327 11.9823 10.9482 11.9481 10.956C11.9306 10.9602 11.9128 10.9622 11.8949 10.9622C11.8264 10.9622 11.7585 10.9325 11.7118 10.8753L11.4873 10.5987L10.6901 11.2493C10.656 11.2773 10.6149 11.2908 10.5739 11.2908C10.5206 11.2908 10.4678 11.2677 10.4314 11.2232L10.0704 10.781C10.0069 10.7033 10.0185 10.5888 10.0963 10.5253L10.8973 9.87142L10.57 9.46792L10.1738 9.79167C10.1413 9.81804 10.1023 9.83092 10.0635 9.83092C10.013 9.83092 9.96289 9.80904 9.92839 9.76692L9.84589 9.66579C9.78226 9.58792 9.79376 9.47317 9.87164 9.40954L10.2633 9.08979L9.45739 8.10067C9.37489 7.99967 9.39001 7.85092 9.49101 7.76842C9.53514 7.73254 9.58801 7.71504 9.64051 7.71504Z" fill="#282828"/>
</svg>
