<svg width="20" height="20" viewBox="0 0 20 20" fill="none" xmlns="http://www.w3.org/2000/svg">
<path fill-rule="evenodd" clip-rule="evenodd" d="M10 -6.79865e-08C15.5228 -1.05534e-07 20 4.47715 20 10C20 15.5228 15.5228 20 10 20C8.23637 20 6.57709 19.5427 5.13692 18.7397L4.83171 18.5624L1.79975 19.4542C1.06936 19.6691 0.388221 19.0329 0.519871 18.3093L0.54581 18.2002L1.43756 15.1683C0.52505 13.6594 8.08332e-08 11.8896 6.79865e-08 10C3.04386e-08 4.47715 4.47715 -3.04386e-08 10 -6.79865e-08ZM7.79289 7.79289L4.79289 10.7929C4.40237 11.1834 4.40237 11.8166 4.79289 12.2071C5.18342 12.5976 5.81658 12.5976 6.20711 12.2071L8.5 9.9142L10.7929 12.2071C11.1834 12.5976 11.8166 12.5976 12.2071 12.2071L15.2071 9.2071C15.5976 8.8166 15.5976 8.1834 15.2071 7.79289C14.8166 7.40237 14.1834 7.40237 13.7929 7.79289L11.5 10.0858L9.2071 7.79289C8.8166 7.40237 8.1834 7.40237 7.79289 7.79289Z" fill="#3E4FEA"/>
</svg>
