<svg width="20" height="20" viewBox="0 0 20 20" fill="none" xmlns="http://www.w3.org/2000/svg">
<path fill-rule="evenodd" clip-rule="evenodd" d="M10 -6.79865e-08C4.47715 -3.04386e-08 3.04386e-08 4.47715 6.79865e-08 10C8.08332e-08 11.8896 0.52505 13.6594 1.43756 15.1683L0.54581 18.2002C0.32023 18.9672 1.03284 19.6798 1.79975 19.4542L4.83171 18.5624C6.34058 19.475 8.1104 20 10 20C15.5228 20 20 15.5228 20 10C20 4.47715 15.5228 -1.05534e-07 10 -6.79865e-08ZM7.73821 12.2627C9.7607 14.2852 11.692 14.5518 12.3739 14.5769C13.4111 14.6151 14.421 13.823 14.8147 12.9042C14.9112 12.6792 14.8871 12.4085 14.7255 12.2014C14.1782 11.5005 13.4373 10.9983 12.7134 10.4984C12.4006 10.282 11.9705 10.349 11.7401 10.6555L11.1394 11.5706C11.0727 11.6721 10.9402 11.707 10.8348 11.6467C10.4283 11.4143 9.8356 11.018 9.4092 10.5916C8.9833 10.1657 8.6111 9.5998 8.4022 9.2195C8.3473 9.1195 8.3777 8.996 8.4692 8.928L9.3927 8.2422C9.6681 8.0038 9.7165 7.59887 9.5138 7.30228C9.065 6.64569 8.5422 5.8112 7.7855 5.25926C7.57883 5.1085 7.3174 5.09158 7.10155 5.18408C6.1817 5.5783 5.38574 6.58789 5.42398 7.62695C5.44908 8.3089 5.71572 10.2402 7.73821 12.2627Z" fill="#4ABC56"/>
</svg>
