<svg width="20" height="20" viewBox="0 0 20 20" fill="none" xmlns="http://www.w3.org/2000/svg">
<path fill-rule="evenodd" clip-rule="evenodd" d="M10 2C10.8554 2 11.7316 2.02242 12.5817 2.05777L13.5861 2.10578L14.5475 2.16257L15.4476 2.22448L16.2685 2.28787C18.1065 2.43702 19.5836 3.85942 19.7633 5.71109L19.8031 6.13563L19.8781 7.04557C19.9482 7.9888 20 9.01733 20 10C20 10.9827 19.9482 12.0112 19.8781 12.9544L19.8031 13.8644C19.79 14.0097 19.7767 14.1514 19.7633 14.2889C19.5836 16.1406 18.1065 17.563 16.2685 17.7121L15.4476 17.7755L14.5475 17.8374L13.5861 17.8942L12.5817 17.9422C11.7316 17.9776 10.8554 18 10 18C9.14459 18 8.26838 17.9776 7.41834 17.9422L6.41386 17.8942L5.45253 17.8374L4.5524 17.7755L3.7315 17.7121C1.89351 17.563 0.4164 16.1406 0.23668 14.2889L0.196922 13.8644L0.121923 12.9544C0.0517956 12.0112 6.107e-08 10.9827 5.43892e-08 10C4.77084e-08 9.01733 0.0517956 7.9888 0.121923 7.04557L0.196922 6.13563C0.210027 5.99033 0.223331 5.84861 0.23668 5.71109C0.4164 3.85942 1.89351 2.43702 3.7315 2.28787L4.5524 2.22448L5.45253 2.16257L6.41385 2.10578L7.41834 2.05777C8.26838 2.02242 9.14459 2 10 2ZM8 7.57513L8 12.4249C8 12.8868 8.5 13.1754 8.9 12.9445L13.1 10.5196C13.5 10.2887 13.5 9.7113 13.1 9.4804L8.9 7.05551C8.5 6.82457 8 7.11325 8 7.57513Z" fill="#D84040"/>
</svg>
