<svg width="22" height="22" viewBox="0 0 22 22" fill="none" xmlns="http://www.w3.org/2000/svg">
<path fill-rule="evenodd" clip-rule="evenodd" d="M19.5767 8.84397C19.9219 6.53241 18.1619 5.28977 15.7554 4.4608L16.536 1.3295L14.6295 0.854485L13.8694 3.90327C13.3689 3.77841 12.8543 3.6606 12.3429 3.54389L13.1083 0.475015L11.2034 0L10.4222 3.13022C10.0074 3.03576 9.60027 2.94238 9.20506 2.84412L9.20723 2.83435L6.57863 2.17801L6.07158 4.21379C6.07158 4.21379 7.48577 4.53789 7.45592 4.55798C8.22788 4.7507 8.36794 5.26154 8.34406 5.66653L7.45483 9.23376C7.50803 9.24733 7.57698 9.26687 7.65298 9.29727L7.45212 9.24733L6.20513 14.2445C6.11067 14.479 5.87126 14.8308 5.33165 14.6972C5.35065 14.7249 3.94623 14.3514 3.94623 14.3514L3 16.5338L5.48094 17.1521C5.76097 17.2223 6.03761 17.2945 6.31121 17.3659L6.31149 17.3659C6.48863 17.4121 6.66451 17.458 6.83921 17.5028L6.05041 20.6705L7.95427 21.1455L8.73601 18.012C9.25555 18.1532 9.76042 18.2835 10.2544 18.4062L9.47595 21.525L11.382 22L12.1708 18.8388C15.421 19.4539 17.8655 19.2058 18.8932 16.2667C19.7222 13.8998 18.8525 12.5344 17.1424 11.6436C18.3878 11.3553 19.3259 10.5361 19.5761 8.84397H19.5767ZM15.2213 14.9508C14.6802 17.1232 11.2792 16.2244 9.72439 15.8135L9.72435 15.8134C9.58513 15.7767 9.46072 15.7438 9.35449 15.7174L10.4012 11.5215C10.531 11.5539 10.6896 11.5895 10.8693 11.6298L10.8694 11.6298C12.4778 11.9908 15.7742 12.7305 15.2219 14.9508H15.2213ZM11.1926 9.68249C12.4899 10.0286 15.3177 10.783 15.8103 8.80954C16.314 6.79063 13.5642 6.18213 12.2213 5.88494C12.0703 5.85153 11.9371 5.82206 11.8283 5.79496L10.8794 9.60051C10.9692 9.62288 11.0746 9.65099 11.1926 9.68249Z" fill="#F7931A"/>
</svg>
