<svg width="231" height="59" viewBox="0 0 231 59" fill="none" xmlns="http://www.w3.org/2000/svg">
<path d="M94.2461 33.5567C94.1608 32.3506 93.6735 31.5465 92.772 31.1445C91.8583 30.7425 90.9567 30.7425 90.0552 31.1445C89.1537 31.5465 88.6664 32.3506 88.6054 33.5567C88.6176 35.5303 88.6176 37.5039 88.6298 39.4776C88.6298 40.3182 88.6298 41.1588 88.642 41.9994C85.3648 38.6857 81.7709 35.774 77.8358 33.2521C77.1414 32.8501 76.4957 32.7161 75.8866 32.8745C75.7769 32.8866 75.6795 32.911 75.582 32.9354C74.7779 33.179 74.2175 33.6176 73.9129 34.2633C73.5962 34.909 73.4987 35.6156 73.6084 36.3953C74.4003 42.2796 75.6916 48.0543 77.4582 53.7193C77.8845 54.8523 78.6033 55.4858 79.5901 55.632C80.5891 55.7782 81.4541 55.5467 82.2095 54.9132C82.9648 54.2919 83.1963 53.3904 82.8917 52.2208C81.8318 48.834 80.9546 45.4106 80.248 41.9507C83.5374 44.7649 86.6196 47.7984 89.4948 51.0634C90.4207 51.9406 91.444 52.1355 92.5283 51.6482C93.6126 51.1609 94.2095 50.3081 94.2948 49.0654C94.2826 43.8999 94.2705 38.7344 94.2461 33.5567Z" fill="#1D6EAD"/>
<path d="M106.362 32.9232C105.631 32.7405 104.912 32.8257 104.218 33.1912C103.524 33.5567 103.085 34.1171 102.902 34.8846C102.719 35.8105 102.537 36.7486 102.354 37.6745C101.416 42.3771 100.49 47.0796 99.5641 51.7822C99.4179 52.5497 99.5154 53.2685 99.8443 53.9142C100.185 54.5599 100.746 54.9985 101.526 55.2421C102.269 55.4249 102.988 55.3274 103.67 54.9619C104.364 54.6086 104.803 54.036 104.998 53.2685C105.363 51.3924 105.741 49.5162 106.106 47.6401C106.849 43.8877 107.593 40.1354 108.336 36.3831C108.482 35.6034 108.385 34.8968 108.043 34.2511C107.702 33.6054 107.142 33.1547 106.362 32.9232Z" fill="#1D6EAD"/>
<path d="M139.798 45.8126C136.886 41.2075 134.572 36.3222 132.866 31.1445C132.306 29.7678 131.404 29.0978 130.186 29.1343C128.955 29.1831 128.042 29.8531 127.433 31.1445L124.265 39.2826C122.401 36.8583 120.513 34.4582 118.6 32.0704C117.893 31.3272 117.016 31.0836 115.981 31.3394C115.359 31.4491 114.823 31.7293 114.373 32.1679C113.934 32.6186 113.678 33.2278 113.617 34.0075C113.349 39.8918 113.495 45.7761 114.068 51.6482C114.153 52.4279 114.434 53.098 114.921 53.6462C115.408 54.1944 116.066 54.4624 116.882 54.4624C117.625 54.4624 118.283 54.1944 118.856 53.6462C119.428 53.098 119.709 52.4401 119.709 51.6482C119.697 51.5264 119.697 51.4167 119.684 51.2949C119.672 51.0756 119.66 50.8441 119.648 50.6127C119.636 50.3934 119.611 50.1863 119.563 50.0035C119.331 47.2624 119.197 44.5334 119.148 41.8045C120.318 43.3152 121.487 44.838 122.633 46.373C123.449 47.372 124.387 47.8106 125.435 47.6888C126.47 47.5548 127.262 46.8969 127.786 45.703C128.566 43.6806 129.358 41.6705 130.137 39.6481C131.514 42.7669 133.122 45.7761 134.937 48.6634C135.632 49.6502 136.484 50.0888 137.483 49.967C138.482 49.8573 139.262 49.4066 139.835 48.6025C140.395 47.8106 140.383 46.8847 139.798 45.8126Z" fill="#1D6EAD"/>
<path d="M152.328 32.9232C151.597 32.7405 150.879 32.8257 150.184 33.1912C149.49 33.5567 149.051 34.1171 148.869 34.8846C148.686 35.8105 148.503 36.7486 148.32 37.6745C147.382 42.3771 146.456 47.0796 145.53 51.7822C145.384 52.5497 145.482 53.2685 145.811 53.9142C146.152 54.5599 146.712 54.9985 147.492 55.2421C148.235 55.4249 148.954 55.3274 149.636 54.9619C150.33 54.6086 150.769 54.036 150.964 53.2685C151.329 51.3924 151.707 49.5162 152.073 47.6401C152.816 43.8877 153.559 40.1354 154.302 36.3831C154.448 35.6034 154.351 34.8968 154.01 34.2511C153.669 33.6054 153.108 33.1547 152.328 32.9232Z" fill="#1D6EAD"/>
<path fill-rule="evenodd" clip-rule="evenodd" d="M8.62817 28.256C2.42194 28.256 0 32.7972 0 36.2282C0 39.508 2.22012 44.0491 9.43549 44.0491C13.5225 44.0491 16.8527 42.5858 19.426 40.3657C22.7057 43.1409 25.38 45.0078 30.1734 45.0078C44.0491 45.0078 51.0626 29.9211 51.0626 18.5178C51.0626 7.66949 44.7555 0 32.343 0C19.1737 0 12.0593 8.83 12.0593 17.8114C12.0593 22.8571 14.3803 26.2377 14.3803 26.2377L19.7288 22.2516C19.7288 22.2516 18.5682 20.0315 18.5682 17.6096C18.5682 12.7657 23.0085 6.20623 31.8385 6.20623C39.8612 6.20623 43.0904 11.6051 43.0904 18.4169C43.0904 27.4487 37.5401 38.4988 29.7697 38.4988C27.2973 38.4988 25.2286 37.3888 23.2608 35.9255C24.4717 34.0586 25.5313 32.0403 26.2882 30.022C26.2882 29.9716 31.2834 17.7105 31.2834 17.7105C32.7467 14.0775 35.3705 12.9675 35.3705 12.9675L33.9072 8.67863C28.8615 8.67863 25.3295 12.5134 23.9167 15.9949L19.0728 27.9533C18.5682 29.1642 18.0132 30.3752 17.3573 31.4853C13.9262 29.1642 11.3529 28.256 8.62817 28.256ZM8.98137 37.7924C7.26583 37.7924 6.0044 37.1869 6.0044 35.7741C6.0044 34.5632 7.01355 33.4531 8.93092 33.4531C10.3437 33.4531 11.7565 34.109 13.9262 35.7741C12.4629 37.0356 10.8483 37.7924 8.98137 37.7924ZM74.867 28.6371C74.7106 28.6689 74.5947 28.6984 74.5439 28.7113L74.5272 28.7155L74.4233 28.7415L74.3207 28.7726C72.6164 29.289 70.9347 30.4077 69.9941 32.3761C69.2627 33.8823 69.088 35.4669 69.2992 36.9863C69.5635 38.9489 69.8811 40.8994 70.251 42.8376C70.2177 42.838 70.1843 42.8381 70.1508 42.8381C64.9033 42.8381 64.2473 38.6502 64.2473 38.6502C64.2473 38.6502 60.7658 42.8381 56.3256 42.8381C52.5413 42.8381 50.6239 39.8612 50.6239 36.2282C50.6239 30.8293 54.9128 15.339 64.5501 15.339C69.4444 15.339 70.5545 19.426 70.5545 19.426L71.9673 15.9949H79.99L74.867 28.6371ZM73.8086 37.8077C75.0623 37.4586 76.7161 36.0493 78.5641 33.7258C80.5548 35.0401 82.4566 36.4565 84.2729 37.9768C84.8577 38.4663 85.4337 38.9665 86.0009 39.4776L86.0187 39.4937C86.915 40.3018 87.7893 41.137 88.6422 41.9994C88.63 41.1588 88.63 40.3182 88.63 39.4776C88.6267 38.9451 88.6243 38.4126 88.6223 37.8801C90.0057 37.7176 91.9915 36.0644 94.2013 33.1587C94.2215 33.2861 94.2366 33.4188 94.2463 33.5567C94.254 35.1968 94.2605 36.8357 94.2662 38.4737C91.6339 41.125 88.7162 42.8381 85.5769 42.8381C82.5775 42.8381 80.1594 41.2878 79.8698 37.6668C78.212 39.4877 76.423 40.9474 74.4901 41.8456C74.2367 40.5055 74.0094 39.1595 73.8086 37.8077ZM107.809 39.0447C106.466 39.8811 104.621 40.9297 102.116 42.1822H101.458C101.756 40.6796 102.054 39.1771 102.354 37.6745C102.446 37.2115 102.537 36.7456 102.628 36.2796L102.63 36.2718C102.721 35.8084 102.812 35.345 102.902 34.8846C103.073 34.1701 103.464 33.635 104.078 33.2697L103.529 35.7741C104.586 34.9866 105.664 34.0837 106.727 33.0542C107.319 33.3072 107.758 33.711 108.044 34.2511C108.385 34.8968 108.482 35.6034 108.336 36.3831L107.809 39.0447ZM129.041 42.4718C128.219 42.7108 127.38 42.8381 126.524 42.8381C123.125 42.8381 120.473 40.8473 120.818 36.1083C118.68 37.48 116.23 38.0306 113.508 37.4357C113.529 36.293 113.565 35.1502 113.617 34.0075C113.678 33.2278 113.934 32.6186 114.373 32.1679C114.453 32.0897 114.536 32.0165 114.622 31.9485C114.939 31.6968 115.294 31.5149 115.685 31.4063C115.214 32.0525 114.712 32.7019 114.175 33.3522C115.758 34.0143 117.457 33.9866 119.214 32.8379C119.863 33.6518 120.51 34.4673 121.154 35.2848C122.198 36.6113 123.236 37.9433 124.265 39.2826L127.433 31.1445C127.921 30.11 128.604 29.4742 129.489 29.2371C129.709 29.1783 129.941 29.144 130.186 29.1343C130.208 29.1337 130.229 29.1333 130.251 29.1331C130.445 29.1312 130.632 29.1477 130.81 29.1827L129.905 31.4348C127.584 37.1869 128.492 37.8933 129.35 37.8933C130.52 37.8933 132.183 36.7055 134.072 34.4971C135.102 37.1374 136.298 39.6985 137.659 42.1822H132.669L133.561 39.978C132.75 40.6374 131.916 41.2012 131.06 41.6497C130.742 40.9877 130.434 40.3204 130.137 39.6481C129.774 40.5912 129.408 41.5316 129.041 42.4718ZM152.533 28.5417L152.751 28.0037C152.871 27.7002 152.989 27.4046 153.103 27.1181L153.104 27.1146L153.105 27.114C153.9 25.1172 154.517 23.5691 154.517 22.9076C154.517 22.2012 153.911 21.7975 153.154 21.7975C151.943 21.7975 149.622 22.958 147.503 25.38L141.511 40.1607C139.772 36.9947 138.32 33.6967 137.157 30.26C137.485 29.7451 137.815 29.2062 138.147 28.6442L143.265 15.9949H151.288L150.228 18.6692C150.48 18.4169 154.214 15.339 158.503 15.339C161.682 15.339 163.347 17.0545 163.347 19.7288C163.347 21.0911 162.893 22.8066 161.833 25.4304L159.361 31.4348C158.989 32.3629 158.702 33.1593 158.485 33.8424C158.343 33.2917 158.135 32.7483 157.856 32.2193C156.922 30.4523 155.37 29.2887 153.567 28.7533L153.476 28.7263L153.384 28.7033C153.1 28.6325 152.816 28.5787 152.533 28.5417ZM153.117 42.3662C150.429 41.2632 149.42 38.2007 150.939 32.9058C151.395 32.799 151.86 32.8059 152.329 32.9232C153.108 33.1547 153.669 33.6054 154.01 34.2511C154.351 34.8968 154.449 35.6034 154.302 36.3831L153.117 42.3662ZM157.486 42.695C160.445 42.1809 163.101 40.3159 165.508 37.6594C165.795 41.2857 168.215 42.8381 171.216 42.8381C174.679 42.8381 177.873 40.7532 180.711 37.6239C181.017 41.2453 183.483 42.8381 186.746 42.8381C190.526 42.8381 193.878 40.6799 196.759 37.5511C197.014 41.3024 199.473 42.8381 202.153 42.8381C205.938 42.8381 208.259 39.7098 208.259 39.7098L206.997 42.7877C206.394 43.117 205.282 43.6105 204.094 44.1383C203.097 44.5809 202.046 45.0476 201.195 45.4619C198.621 46.6224 195.544 48.9939 195.493 52.5764C195.443 55.4524 197.41 58.1267 201.699 58.1267C207.754 58.1267 210.782 53.0809 212.85 48.0857C213.254 47.0765 214.011 45.2096 214.011 45.2096C219.914 42.4345 225.313 39.2557 230.51 30.1734C230.107 29.2147 228.744 28.256 227.685 28.1551C224.102 34.4118 220.722 37.8429 215.979 40.2648L225.868 15.9949H217.846L212.447 29.2652C209.419 34.4622 207.451 37.1869 205.484 37.1869C204.474 37.1869 203.768 36.4805 205.837 31.4348L212.043 15.9949H204.02L198.96 28.4886C195.401 34.4401 192.049 37.8933 189.622 37.8933C188.512 37.8933 187.402 37.1869 189.773 31.4348L195.98 15.9949H199.966L201.631 11.9583H197.594L200.016 6.0044H191.993L189.572 11.9583H185.434L183.769 15.9949H187.957L182.823 28.671C179.347 34.5567 176.003 37.8933 174.042 37.8933C173.184 37.8933 172.276 37.1869 174.597 31.4348L180.803 15.9949H172.78L167.666 28.622C164.18 34.5381 160.823 37.8933 158.856 37.8933C158.719 37.8933 158.579 37.8766 158.451 37.8248L157.486 42.695ZM132.443 25.1208L136.111 15.9949H128.088L122.971 28.6301C122.737 29.0083 122.503 29.3628 122.27 29.6945C122.508 29.9918 122.745 30.2893 122.982 30.587L123.434 29.4257L123.499 29.2888C124.034 28.1546 124.83 27.024 126.01 26.1617C127.224 25.2743 128.61 24.8436 130.014 24.788L130.035 24.7872L130.056 24.7865C130.857 24.7625 131.664 24.8675 132.443 25.1208ZM118.419 27.0971C121.067 22.2489 122.073 17.9391 122.501 15.339L116.092 15.9949C114.8 21.7519 112.431 26.2606 109.7 29.7502C109.931 29.9094 110.153 30.0826 110.364 30.2698C110.612 29.8731 110.907 29.4922 111.255 29.1345L111.297 29.0918L111.34 29.0503C112.363 28.0541 113.635 27.3672 115.078 27.0832C116.21 26.8253 117.346 26.828 118.419 27.0971ZM105.125 28.4978L107.868 15.9949H99.9966L97.2293 28.5935C97.1468 28.7337 97.0644 28.8724 96.9821 29.0097C97.9982 30.247 98.481 31.7756 98.5852 33.2499L98.5953 33.3929L98.596 33.5362L98.5992 34.2241L98.635 34.0424L98.6514 33.9594L98.671 33.8771C99.1465 31.8799 100.395 30.288 102.192 29.342C103.121 28.8531 104.112 28.5684 105.125 28.4978ZM90.9379 26.5082L95.1638 15.9949H87.1411L82.0097 28.6646C81.697 29.1877 81.386 29.6907 81.0776 30.1731C82.1935 30.9132 83.2835 31.6836 84.3478 32.4844C84.6761 30.3421 85.8603 28.2526 88.2838 27.1719C89.1501 26.7855 90.0426 26.5653 90.9379 26.5082ZM94.2777 42.1822H94.2445L94.2773 42.0329C94.2775 42.0826 94.2776 42.1324 94.2777 42.1822ZM60.0594 36.4301C59.0503 36.4301 58.4448 35.875 58.4448 34.5632C58.4448 31.3339 62.1786 21.8984 66.1647 21.8984C68.3848 21.8984 68.4353 24.724 68.4353 24.724L65.1556 32.7972C65.1556 32.7972 62.8345 36.4301 60.0594 36.4301ZM98.1912 9.43549C98.1912 11.807 96.1225 13.8757 93.751 13.8757C91.2786 13.8757 89.3108 11.807 89.3108 9.43549C89.3108 6.96309 91.2786 5.04571 93.751 5.04571C96.1225 5.04571 98.1912 6.96309 98.1912 9.43549ZM139.138 9.43549C139.138 11.807 137.07 13.8757 134.698 13.8757C132.226 13.8757 130.258 11.807 130.258 9.43549C130.258 6.96309 132.226 5.04571 134.698 5.04571C137.07 5.04571 139.138 6.96309 139.138 9.43549ZM183.83 9.43549C183.83 11.807 181.762 13.8757 179.39 13.8757C176.918 13.8757 174.95 11.807 174.95 9.43549C174.95 6.96309 176.918 5.04571 179.39 5.04571C181.762 5.04571 183.83 6.96309 183.83 9.43549ZM201.195 49.3976C200.034 50.104 199.277 51.0122 199.277 51.87C199.277 52.6268 199.782 53.2323 200.64 53.2323C201.75 53.2323 203.465 51.9709 205.13 47.4802C204.724 47.6697 204.351 47.8374 203.996 47.997L203.991 47.9991L203.99 47.9994C203.023 48.4336 202.19 48.8079 201.195 49.3976Z" fill="#FFC353"/>
<path d="M94.2461 33.5567C94.1608 32.3506 93.6735 31.5465 92.772 31.1445C91.8583 30.7425 90.9567 30.7425 90.0552 31.1445C89.1537 31.5465 88.6664 32.3506 88.6054 33.5567C88.6176 35.5303 88.6176 37.5039 88.6298 39.4776C88.6298 40.3182 88.6298 41.1588 88.642 41.9994C85.3648 38.6857 81.7709 35.774 77.8358 33.2521C77.1414 32.8501 76.4957 32.7161 75.8866 32.8745C75.7769 32.8866 75.6795 32.911 75.582 32.9354C74.7779 33.179 74.2175 33.6176 73.9129 34.2633C73.5962 34.909 73.4987 35.6156 73.6084 36.3953C74.4003 42.2796 75.6916 48.0543 77.4582 53.7193C77.8845 54.8523 78.6033 55.4858 79.5901 55.632C80.5891 55.7782 81.4541 55.5467 82.2095 54.9132C82.9648 54.2919 83.1963 53.3904 82.8917 52.2208C81.8318 48.834 80.9546 45.4106 80.248 41.9507C83.5374 44.7649 86.6196 47.7984 89.4948 51.0634C90.4207 51.9406 91.444 52.1355 92.5283 51.6482C93.6126 51.1609 94.2095 50.3081 94.2948 49.0654C94.2826 43.8999 94.2705 38.7344 94.2461 33.5567Z" fill="white"/>
<path d="M106.362 32.9232C105.631 32.7405 104.912 32.8257 104.218 33.1912C103.524 33.5567 103.085 34.1171 102.902 34.8846C102.719 35.8105 102.537 36.7486 102.354 37.6745C101.416 42.3771 100.49 47.0796 99.5641 51.7822C99.4179 52.5497 99.5154 53.2685 99.8443 53.9142C100.185 54.5599 100.746 54.9985 101.526 55.2421C102.269 55.4249 102.988 55.3274 103.67 54.9619C104.364 54.6086 104.803 54.036 104.998 53.2685C105.363 51.3924 105.741 49.5162 106.106 47.6401C106.849 43.8877 107.593 40.1354 108.336 36.3831C108.482 35.6034 108.385 34.8968 108.043 34.2511C107.702 33.6054 107.142 33.1547 106.362 32.9232Z" fill="white"/>
<path d="M139.798 45.8126C136.886 41.2075 134.572 36.3222 132.866 31.1445C132.306 29.7678 131.404 29.0978 130.186 29.1343C128.955 29.1831 128.042 29.8531 127.433 31.1445L124.265 39.2826C122.401 36.8583 120.513 34.4582 118.6 32.0704C117.893 31.3272 117.016 31.0836 115.981 31.3394C115.359 31.4491 114.823 31.7293 114.373 32.1679C113.934 32.6186 113.678 33.2278 113.617 34.0075C113.349 39.8918 113.495 45.7761 114.068 51.6482C114.153 52.4279 114.434 53.098 114.921 53.6462C115.408 54.1944 116.066 54.4624 116.882 54.4624C117.625 54.4624 118.283 54.1944 118.856 53.6462C119.428 53.098 119.709 52.4401 119.709 51.6482C119.697 51.5264 119.697 51.4167 119.684 51.2949C119.672 51.0756 119.66 50.8441 119.648 50.6127C119.636 50.3934 119.611 50.1863 119.563 50.0035C119.331 47.2624 119.197 44.5334 119.148 41.8045C120.318 43.3152 121.487 44.838 122.633 46.373C123.449 47.372 124.387 47.8106 125.435 47.6888C126.47 47.5548 127.262 46.8969 127.786 45.703C128.566 43.6806 129.358 41.6705 130.137 39.6481C131.514 42.7669 133.122 45.7761 134.937 48.6634C135.632 49.6502 136.484 50.0888 137.483 49.967C138.482 49.8573 139.262 49.4066 139.835 48.6025C140.395 47.8106 140.383 46.8847 139.798 45.8126Z" fill="white"/>
<path d="M152.328 32.9232C151.597 32.7405 150.879 32.8257 150.184 33.1912C149.49 33.5567 149.051 34.1171 148.869 34.8846C148.686 35.8105 148.503 36.7486 148.32 37.6745C147.382 42.3771 146.456 47.0796 145.53 51.7822C145.384 52.5497 145.482 53.2685 145.811 53.9142C146.152 54.5599 146.712 54.9985 147.492 55.2421C148.235 55.4249 148.954 55.3274 149.636 54.9619C150.33 54.6086 150.769 54.036 150.964 53.2685C151.329 51.3924 151.707 49.5162 152.073 47.6401C152.816 43.8877 153.559 40.1354 154.302 36.3831C154.448 35.6034 154.351 34.8968 154.01 34.2511C153.669 33.6054 153.108 33.1547 152.328 32.9232Z" fill="white"/>
</svg>
