<svg width="72" height="24" viewBox="0 0 72 24" fill="none" xmlns="http://www.w3.org/2000/svg">
<path d="M19.1033 3.95579C19.0287 2.90109 18.6026 2.19797 17.8142 1.8464C17.0152 1.49484 16.2269 1.49484 15.4385 1.8464C14.6502 2.19797 14.224 2.90109 14.1708 3.95579C14.1814 5.68164 14.1814 7.4075 14.1921 9.13336C14.1921 9.86845 14.1921 10.6035 14.2027 11.3386C11.3369 8.44089 8.19418 5.89471 4.75312 3.68945C4.14587 3.33789 3.58124 3.2207 3.04857 3.35919C2.95269 3.36985 2.86746 3.39115 2.78223 3.41246C2.0791 3.62553 1.58905 4.00905 1.32271 4.57369C1.04572 5.13832 0.960493 5.75622 1.05637 6.43804C1.74885 11.5837 2.87811 16.6334 4.42286 21.5872C4.79573 22.578 5.42429 23.132 6.28722 23.2598C7.1608 23.3877 7.91719 23.1853 8.57771 22.6313C9.23822 22.0879 9.44063 21.2996 9.1743 20.2769C8.24745 17.3152 7.4804 14.3216 6.8625 11.296C9.73893 13.757 12.4343 16.4097 14.9485 19.2648C15.7581 20.0318 16.653 20.2023 17.6012 19.7762C18.5493 19.35 19.0713 18.6043 19.1459 17.5176C19.1353 13.0006 19.1246 8.4835 19.1033 3.95579ZM29.6984 3.40181C29.0592 3.242 28.4306 3.31658 27.8234 3.63618C27.2161 3.95579 26.8326 4.44584 26.6728 5.11701C26.513 5.92667 26.3532 6.74699 26.1934 7.55665C25.3731 11.6689 24.5634 15.7811 23.7538 19.8933C23.6259 20.5645 23.7111 21.1931 23.9988 21.7577C24.2971 22.3223 24.7871 22.7058 25.469 22.9189C26.1188 23.0787 26.7474 22.9935 27.344 22.6739C27.9512 22.3649 28.3347 21.8642 28.5052 21.1931C28.8248 19.5524 29.155 17.9118 29.4747 16.2712C30.1245 12.9899 30.7744 9.70865 31.4242 6.42738C31.5521 5.74556 31.4668 5.12766 31.1685 4.56303C30.8703 3.9984 30.3802 3.60422 29.6984 3.40181ZM58.937 14.6732C56.3908 10.6461 54.3666 6.37412 52.8752 1.8464C52.3851 0.642564 51.5967 0.0566246 50.5314 0.088585C49.4554 0.131199 48.6564 0.717138 48.1237 1.8464L45.3538 8.9629C43.7238 6.84287 42.0726 4.74414 40.4 2.65607C39.7821 2.0062 39.015 1.79314 38.1095 2.01686C37.5662 2.11274 37.0974 2.35777 36.7032 2.74129C36.3197 3.13547 36.096 3.66814 36.0427 4.34996C35.8083 9.49558 35.9362 14.6412 36.4369 19.7762C36.5115 20.458 36.7565 21.0439 37.1826 21.5233C37.6088 22.0027 38.1841 22.2371 38.8978 22.2371C39.5477 22.2371 40.123 22.0027 40.6237 21.5233C41.1244 21.0439 41.3694 20.4686 41.3694 19.7762C41.3588 19.6696 41.3588 19.5737 41.3481 19.4672C41.3375 19.2754 41.3268 19.073 41.3162 18.8706C41.3055 18.6788 41.2842 18.4977 41.2416 18.3379C41.0392 15.9409 40.922 13.5545 40.8794 11.1682C41.9021 12.4892 42.9248 13.8209 43.9263 15.1632C44.64 16.0368 45.4604 16.4203 46.3766 16.3138C47.2821 16.1966 47.9746 15.6213 48.4327 14.5773C49.1145 12.8088 49.807 11.051 50.4888 9.28251C51.6926 12.0098 53.0989 14.6412 54.6862 17.1661C55.2935 18.029 56.0392 18.4125 56.9128 18.306C57.7864 18.2101 58.4682 17.8159 58.9689 17.1128C59.459 16.4203 59.4483 15.6107 58.937 14.6732ZM69.8942 3.40181C69.255 3.242 68.6265 3.31658 68.0192 3.63618C67.412 3.95579 67.0285 4.44584 66.8687 5.11701C66.7089 5.92667 66.5491 6.74699 66.3893 7.55665C65.5689 11.6689 64.7593 15.7811 63.9496 19.8933C63.8218 20.5645 63.907 21.1931 64.1947 21.7577C64.4929 22.3223 64.983 22.7058 65.6648 22.9189C66.3147 23.0787 66.9432 22.9935 67.5398 22.6739C68.1471 22.3649 68.5306 21.8642 68.7011 21.1931C69.0207 19.5524 69.3509 17.9118 69.6705 16.2712C70.3204 12.9899 70.9702 9.70865 71.6201 6.42738C71.7479 5.74556 71.6627 5.12766 71.3644 4.56303C71.0661 3.9984 70.5761 3.60422 69.8942 3.40181Z" fill="white"/>
</svg>
