<svg width="54" height="54" fill="none" xmlns="http://www.w3.org/2000/svg"><rect width="54" height="54" rx="27" transform="matrix(-1 0 0 1 54 0)" fill="#585FE0"/><mask id="a" style="mask-type:alpha" maskUnits="userSpaceOnUse" x="15" y="15" width="25" height="25"><path d="M29.09 34.699a.88.88 0 0 1 .88.88v1.517c0 .246.201.446.447.446h1.532a.88.88 0 0 1 0 1.76h-1.533a2.21 2.21 0 0 1-2.206-2.206V35.58a.88.88 0 0 1 .88-.88zm9.39 0a.88.88 0 0 1 .88.88v1.518a2.21 2.21 0 0 1-2.206 2.206H35.62a.88.88 0 0 1 0-1.76h1.533c.245 0 .446-.201.446-.446v-1.518a.88.88 0 0 1 .88-.88zM24.25 28.33c1.035 0 1.876.842 1.876 1.877v7.042a1.88 1.88 0 0 1-1.876 1.878h-7.042a1.88 1.88 0 0 1-1.878-1.878v-7.042a1.88 1.88 0 0 1 1.878-1.877h7.042zm10.552 3.872a.51.51 0 0 1 .51.51v2.033c0 .282-.228.51-.51.51h-2.033a.508.508 0 0 1-.51-.51v-2.033c0-.281.227-.51.51-.51h2.033zm-13.134.119H19.79a.47.47 0 0 0-.47.468v1.879c0 .26.21.468.47.468h1.878a.47.47 0 0 0 .47-.468v-1.879a.47.47 0 0 0-.47-.468zm15.486-4.168a2.21 2.21 0 0 1 2.206 2.208v1.517a.88.88 0 0 1-1.76 0v-1.517c0-.247-.2-.447-.446-.447H35.62a.88.88 0 0 1 0-1.76h1.533zm-5.204 0a.88.88 0 0 1 0 1.76h-1.533c-.245 0-.446.201-.446.448v1.517a.88.88 0 0 1-1.76 0v-1.517a2.21 2.21 0 0 1 2.206-2.208h1.533zm-7.7-12.823c1.035 0 1.876.841 1.876 1.876v7.042a1.88 1.88 0 0 1-1.876 1.878h-7.042a1.88 1.88 0 0 1-1.878-1.878v-7.042a1.88 1.88 0 0 1 1.878-1.876h7.042zm13.056-.001a1.88 1.88 0 0 1 1.878 1.878v7.042a1.88 1.88 0 0 1-1.878 1.876h-7.042a1.878 1.878 0 0 1-1.877-1.876v-7.042a1.88 1.88 0 0 1 1.877-1.878h7.042zm-2.582 3.99h-1.878a.47.47 0 0 0-.47.47v1.878c0 .258.212.47.47.47h1.878a.47.47 0 0 0 .47-.47v-1.878c0-.26-.21-.47-.47-.47zm-13.056 0H19.79a.47.47 0 0 0-.47.47v1.877c0 .26.21.47.47.47h1.878a.47.47 0 0 0 .47-.47v-1.878a.47.47 0 0 0-.47-.469z" fill="#fff"/></mask><g mask="url(#a)"><path d="M29.09 34.699a.88.88 0 0 1 .88.88v1.517c0 .246.201.446.447.446h1.532a.88.88 0 0 1 0 1.76h-1.533a2.21 2.21 0 0 1-2.206-2.206V35.58a.88.88 0 0 1 .88-.88zm9.39 0a.88.88 0 0 1 .88.88v1.518a2.21 2.21 0 0 1-2.206 2.206H35.62a.88.88 0 0 1 0-1.76h1.533c.245 0 .446-.201.446-.446v-1.518a.88.88 0 0 1 .88-.88zM24.25 28.33c1.035 0 1.876.842 1.876 1.877v7.042a1.88 1.88 0 0 1-1.876 1.878h-7.042a1.88 1.88 0 0 1-1.878-1.878v-7.042a1.88 1.88 0 0 1 1.878-1.877h7.042zm10.552 3.872a.51.51 0 0 1 .51.51v2.033c0 .282-.228.51-.51.51h-2.033a.508.508 0 0 1-.51-.51v-2.033c0-.281.227-.51.51-.51h2.033zm-13.134.119H19.79a.47.47 0 0 0-.47.468v1.879c0 .26.21.468.47.468h1.878a.47.47 0 0 0 .47-.468v-1.879a.47.47 0 0 0-.47-.468zm15.486-4.168a2.21 2.21 0 0 1 2.206 2.208v1.517a.88.88 0 0 1-1.76 0v-1.517c0-.247-.2-.447-.446-.447H35.62a.88.88 0 0 1 0-1.76h1.533zm-5.204 0a.88.88 0 0 1 0 1.76h-1.533c-.245 0-.446.201-.446.448v1.517a.88.88 0 0 1-1.76 0v-1.517a2.21 2.21 0 0 1 2.206-2.208h1.533zm-7.7-12.823c1.035 0 1.876.841 1.876 1.876v7.042a1.88 1.88 0 0 1-1.876 1.878h-7.042a1.88 1.88 0 0 1-1.878-1.878v-7.042a1.88 1.88 0 0 1 1.878-1.876h7.042zm13.056-.001a1.88 1.88 0 0 1 1.878 1.878v7.042a1.88 1.88 0 0 1-1.878 1.876h-7.042a1.878 1.878 0 0 1-1.877-1.876v-7.042a1.88 1.88 0 0 1 1.877-1.878h7.042zm-2.582 3.99h-1.878a.47.47 0 0 0-.47.47v1.878c0 .258.212.47.47.47h1.878a.47.47 0 0 0 .47-.47v-1.878c0-.26-.21-.47-.47-.47zm-13.056 0H19.79a.47.47 0 0 0-.47.47v1.877c0 .26.21.47.47.47h1.878a.47.47 0 0 0 .47-.47v-1.878a.47.47 0 0 0-.47-.469z" fill="url(#b)"/></g><defs><linearGradient id="b" x1="27.345" y1="15.329" x2="27.345" y2="39.867" gradientUnits="userSpaceOnUse"><stop stop-color="#fff"/><stop offset="1" stop-color="#EBE7FF"/></linearGradient></defs></svg>