<svg width="18" height="16" viewBox="0 0 18 16" fill="none" xmlns="http://www.w3.org/2000/svg">
<path d="M16.92 7.1201C17.4067 7.1201 17.8 7.51434 17.8 8.0001L17.8 11.5201C17.8 13.9463 15.8262 15.9201 13.4 15.9201L4.60001 15.9201C2.17385 15.9201 0.200012 13.9463 0.200012 11.5201L0.200012 8.0001C0.200012 7.51435 0.593372 7.1201 1.08001 7.1201C1.56665 7.1201 1.96001 7.51435 1.96001 8.0001L1.96001 11.5201C1.96001 12.9756 3.14449 14.1601 4.60001 14.1601L13.4 14.1601C14.8555 14.1601 16.04 12.9756 16.04 11.5201L16.04 8.0001C16.04 7.51347 16.4334 7.1201 16.92 7.1201ZM8.37782 0.337944L4.85782 3.85794C4.51374 4.20202 4.51374 4.75819 4.85782 5.10227C5.2019 5.44635 5.75812 5.44635 6.1022 5.10227L8.12001 3.08443L8.12001 9.7601C8.12001 10.2459 8.51337 10.6401 9.00001 10.6401C9.48665 10.6401 9.88001 10.2459 9.88001 9.7601L9.88001 3.08443L11.8978 5.10226C12.2419 5.44634 12.7981 5.44634 13.1422 5.10226C13.3138 4.93067 13.4 4.70538 13.4 4.4801C13.4 4.25483 13.3138 4.02954 13.1422 3.85794L9.6222 0.337944C9.27812 -0.00613634 8.72102 -0.00613631 8.37782 0.337944Z" fill="#BC96CD"/>
</svg>
