<svg width="236" height="185" viewBox="0 0 236 185" fill="none" xmlns="http://www.w3.org/2000/svg">
<g clip-path="url(#clip0_2251_51266)">
<mask id="mask0_2251_51266" style="mask-type:alpha" maskUnits="userSpaceOnUse" x="0" y="0" width="236" height="185">
<path d="M235.632 0H0V185H235.632V0Z" fill="url(#paint0_linear_2251_51266)"/>
</mask>
<g mask="url(#mask0_2251_51266)">
<path d="M186.468 19.8725L183.486 21.5938C183.36 21.6667 183.254 21.7718 183.181 21.8984L181.461 24.8789C181.24 25.263 180.685 25.263 180.463 24.8789L178.741 21.8978C178.668 21.7718 178.564 21.6667 178.437 21.5938L175.456 19.8725C175.073 19.651 175.073 19.0967 175.456 18.8751L178.438 17.1539C178.564 17.0808 178.669 16.9759 178.742 16.8492L180.463 13.8687C180.685 13.4846 181.239 13.4846 181.461 13.8687L183.182 16.8498C183.255 16.9759 183.361 17.0808 183.487 17.1539L186.468 18.8751C186.851 19.0967 186.851 19.651 186.468 19.8725Z" fill="white"/>
<path d="M99.0336 12.2035L102.015 10.4822C102.142 10.4092 102.247 10.3042 102.319 10.1774L104.04 7.19703C104.261 6.81295 104.815 6.81295 105.038 7.19703L106.759 10.1781C106.832 10.3042 106.937 10.4092 107.064 10.4822L110.044 12.2035C110.429 12.425 110.429 12.9793 110.044 13.2008L107.064 14.9221C106.937 14.995 106.832 15.1 106.759 15.2268L105.038 18.2072C104.816 18.5913 104.262 18.5913 104.04 18.2072L102.319 15.2262C102.246 15.1001 102.141 14.995 102.014 14.9221L99.0336 13.2008C98.649 12.9793 98.649 12.425 99.0336 12.2035Z" fill="white"/>
<path d="M148.385 169.848L151.366 168.126C151.493 168.053 151.598 167.948 151.671 167.821L153.392 164.841C153.614 164.457 154.168 164.457 154.39 164.841L156.111 167.822C156.184 167.948 156.289 168.053 156.416 168.126L159.396 169.848C159.78 170.069 159.78 170.624 159.396 170.845L156.415 172.566C156.288 172.639 156.183 172.744 156.11 172.871L154.39 175.851C154.169 176.235 153.614 176.235 153.392 175.851L151.67 172.87C151.597 172.744 151.493 172.639 151.365 172.566L148.385 170.845C148.001 170.624 148.001 170.069 148.385 169.848Z" fill="white"/>
<path d="M183.051 83.524L184.652 82.5997C184.778 82.5261 184.883 82.4211 184.956 82.2949L185.88 80.694C186.102 80.31 186.656 80.31 186.878 80.694L187.803 82.2949C187.876 82.4217 187.982 82.5267 188.107 82.5997L189.708 83.524C190.093 83.7455 190.093 84.2998 189.708 84.5213L188.107 85.4456C187.981 85.5193 187.876 85.6243 187.802 85.7504L186.878 87.3513C186.656 87.7354 186.102 87.7354 185.88 87.3513L184.956 85.7504C184.883 85.6236 184.778 85.5187 184.652 85.4456L183.051 84.5213C182.667 84.2998 182.667 83.7455 183.051 83.524Z" fill="white"/>
<path d="M212.248 174.917L213.504 174.191C213.63 174.118 213.735 174.012 213.809 173.886L214.534 172.63C214.755 172.247 215.31 172.247 215.532 172.63L216.256 173.886C216.33 174.013 216.436 174.118 216.561 174.191L217.817 174.917C218.201 175.138 218.201 175.692 217.817 175.914L216.561 176.639C216.435 176.712 216.329 176.817 216.256 176.944L215.531 178.2C215.31 178.583 214.755 178.583 214.533 178.2L213.809 176.944C213.735 176.817 213.63 176.712 213.504 176.639L212.248 175.914C211.864 175.692 211.864 175.138 212.248 174.917Z" fill="white"/>
<path d="M65.2212 23.995L66.477 23.2697C66.6038 23.1968 66.7088 23.0911 66.7818 22.965L67.507 21.7091C67.7285 21.325 68.2828 21.325 68.5049 21.7091L69.2297 22.965C69.3033 23.0918 69.4082 23.1968 69.5343 23.2697L70.7903 23.995C71.1743 24.2165 71.1743 24.7708 70.7903 24.9923L69.5343 25.7176C69.4075 25.7906 69.3026 25.8962 69.2297 26.0223L68.5044 27.2782C68.2828 27.6623 67.7285 27.6623 67.5064 27.2782L66.7818 26.0223C66.7082 25.8955 66.6031 25.7906 66.477 25.7176L65.2212 24.9923C64.8371 24.7708 64.8371 24.2165 65.2212 23.995Z" fill="white"/>
<path d="M94.4316 57.1002L95.6875 56.3749C95.8143 56.302 95.9193 56.1964 95.9923 56.0703L96.7175 54.8143C96.939 54.4303 97.493 54.4303 97.715 54.8143L98.4404 56.0703C98.5134 56.1971 98.6186 56.302 98.7452 56.3749L100 57.1002C100.385 57.3218 100.385 57.8761 100 58.0976L98.7452 58.8229C98.6176 58.8958 98.5134 59.0015 98.4404 59.1276L97.715 60.3835C97.493 60.7675 96.939 60.7675 96.7169 60.3835L95.9923 59.1276C95.9187 59.0008 95.8136 58.8958 95.6875 58.8229L94.4316 58.0976C94.0475 57.8761 94.0475 57.3218 94.4316 57.1002Z" fill="white"/>
<path d="M59.3794 66.8371L60.6353 66.1118C60.762 66.0389 60.867 65.9332 60.94 65.8071L61.6652 64.5512C61.8867 64.1671 62.4411 64.1671 62.6631 64.5512L63.3879 65.8071C63.4615 65.9339 63.5664 66.0389 63.6925 66.1118L64.9485 66.8371C65.3325 67.0586 65.3325 67.6129 64.9485 67.8344L63.6925 68.5597C63.5658 68.6327 63.4608 68.7383 63.3879 68.8644L62.6626 70.1204C62.441 70.5044 61.8867 70.5044 61.6646 70.1204L60.94 68.8644C60.8664 68.7376 60.7613 68.6327 60.6353 68.5597L59.3794 67.8344C58.9953 67.6129 58.9953 67.0586 59.3794 66.8371Z" fill="white"/>
<path d="M175.152 119.556L172.171 121.277C171.991 121.381 171.841 121.53 171.738 121.711L170.016 124.691C169.931 124.84 169.714 124.84 169.629 124.691L167.907 121.711C167.804 121.53 167.654 121.381 167.474 121.276L164.494 119.556C164.345 119.47 164.345 119.255 164.494 119.168L167.475 117.447C167.654 117.344 167.804 117.194 167.908 117.013L169.629 114.033C169.715 113.884 169.931 113.884 170.016 114.033L171.738 117.014C171.842 117.194 171.992 117.344 172.171 117.448L175.152 119.168C175.3 119.255 175.3 119.47 175.152 119.556Z" fill="#C9E78B"/>
<path d="M169.31 58.593L167.324 59.7401C167.143 59.8438 166.994 59.9936 166.89 60.1735L165.743 62.1598C165.657 62.309 165.442 62.309 165.355 62.1598L164.208 60.1735C164.104 59.993 163.955 59.8438 163.775 59.7401L161.788 58.593C161.64 58.5065 161.64 58.2915 161.788 58.2051L163.775 57.058C163.955 56.9543 164.104 56.8044 164.208 56.6246L165.354 54.6383C165.441 54.4891 165.656 54.4891 165.743 54.6383L166.89 56.6246C166.993 56.8051 167.143 56.9543 167.323 57.058L169.309 58.2051C169.458 58.2915 169.459 58.5065 169.31 58.593Z" fill="#C9E78B"/>
<path d="M209.23 45.3268L207.629 46.2513C207.449 46.3555 207.299 46.5047 207.195 46.6845L206.271 48.2855C206.185 48.4346 205.969 48.4346 205.883 48.2855L204.959 46.6845C204.855 46.5047 204.706 46.355 204.525 46.2513L202.925 45.3268C202.776 45.2404 202.776 45.0254 202.925 44.9389L204.525 44.0146C204.706 43.9102 204.856 43.7611 204.959 43.5812L205.883 41.9803C205.969 41.8311 206.186 41.8311 206.271 41.9803L207.195 43.5812C207.299 43.7611 207.449 43.9109 207.629 44.0146L209.23 44.9389C209.379 45.0254 209.379 45.2404 209.23 45.3268Z" fill="#C9E78B"/>
<path d="M143.993 30.7217L142.393 31.6461C142.214 31.7504 142.064 31.8995 141.959 32.0795L141.035 33.6804C140.949 33.8295 140.734 33.8295 140.647 33.6804L139.723 32.0795C139.619 31.8995 139.47 31.7498 139.29 31.6461L137.689 30.7217C137.54 30.6353 137.54 30.4202 137.689 30.3339L139.29 29.4094C139.47 29.3051 139.62 29.156 139.723 28.9761L140.647 27.3751C140.734 27.226 140.95 27.226 141.035 27.3751L141.959 28.9761C142.064 29.156 142.214 29.3057 142.393 29.4094L143.993 30.3339C144.143 30.4202 144.143 30.6353 143.993 30.7217Z" fill="#C9E78B"/>
<path d="M193.288 158.905L191.688 159.83C191.508 159.934 191.359 160.083 191.254 160.264L190.33 161.864C190.244 162.013 190.028 162.013 189.942 161.864L189.018 160.264C188.914 160.083 188.765 159.933 188.585 159.83L186.984 158.905C186.835 158.82 186.835 158.604 186.984 158.518L188.585 157.594C188.765 157.49 188.915 157.34 189.018 157.16L189.942 155.559C190.029 155.41 190.245 155.41 190.33 155.559L191.254 157.16C191.359 157.34 191.508 157.49 191.688 157.594L193.288 158.518C193.438 158.604 193.438 158.82 193.288 158.905Z" fill="#C9E78B"/>
<path d="M123.546 131.985L121.945 132.909C121.765 133.013 121.615 133.163 121.511 133.342L120.587 134.944C120.501 135.093 120.285 135.093 120.199 134.944L119.275 133.342C119.17 133.163 119.022 133.013 118.841 132.909L117.241 131.985C117.092 131.898 117.092 131.683 117.241 131.597L118.841 130.672C119.022 130.568 119.171 130.419 119.275 130.239L120.199 128.638C120.285 128.489 120.502 128.489 120.587 128.638L121.511 130.239C121.615 130.419 121.765 130.569 121.945 130.672L123.546 131.597C123.695 131.683 123.695 131.898 123.546 131.985Z" fill="#C9E78B"/>
<path d="M140.099 96.9322L138.498 97.8562C138.319 97.9614 138.169 98.1104 138.065 98.2895L137.141 99.8912C137.054 100.04 136.839 100.04 136.752 99.8912L135.828 98.2895C135.724 98.1104 135.575 97.9604 135.395 97.8562L133.794 96.9322C133.645 96.8458 133.645 96.6308 133.794 96.5443L135.395 95.62C135.575 95.5156 135.725 95.3664 135.828 95.1866L136.752 93.5856C136.839 93.4365 137.055 93.4365 137.141 93.5856L138.065 95.1866C138.169 95.3664 138.319 95.5163 138.498 95.62L140.099 96.5443C140.249 96.6308 140.249 96.8458 140.099 96.9322Z" fill="#C9E78B"/>
<path d="M216.671 10.3161L217.927 9.59083C218.107 9.48712 218.257 9.33735 218.361 9.15747L219.086 7.90153C219.173 7.75239 219.388 7.75239 219.474 7.90153L220.199 9.15747C220.303 9.33735 220.453 9.48712 220.632 9.59083L221.888 10.3161C222.037 10.4025 222.037 10.6176 221.888 10.704L220.632 11.4293C220.453 11.533 220.303 11.6827 220.199 11.8626L219.474 13.1185C219.388 13.2677 219.173 13.2677 219.086 13.1185L218.361 11.8626C218.257 11.6827 218.107 11.533 217.927 11.4293L216.671 10.704C216.522 10.6176 216.522 10.4025 216.671 10.3161Z" fill="#C9E78B"/>
<path d="M87.5192 103.204L86.2634 103.929C86.0834 104.032 85.9337 104.182 85.83 104.362L85.1047 105.618C85.0183 105.767 84.8026 105.767 84.7168 105.618L83.9916 104.362C83.8879 104.182 83.738 104.032 83.5582 103.929L82.3022 103.204C82.1532 103.117 82.1532 102.902 82.3022 102.816L83.5582 102.091C83.738 101.987 83.8879 101.837 83.9916 101.657L84.7168 100.401C84.8032 100.252 85.0189 100.252 85.1047 100.401L85.83 101.657C85.9337 101.837 86.0834 101.987 86.2634 102.091L87.5192 102.816C87.6684 102.902 87.6684 103.117 87.5192 103.204Z" fill="#C9E78B"/>
<path d="M122.553 169.884L121.298 170.608C121.118 170.712 120.968 170.862 120.864 171.041L120.139 172.297C120.052 172.447 119.837 172.447 119.751 172.297L119.025 171.041C118.922 170.862 118.772 170.712 118.592 170.608L117.336 169.884C117.187 169.797 117.187 169.582 117.336 169.495L118.592 168.77C118.772 168.666 118.922 168.516 119.025 168.336L119.751 167.08C119.837 166.931 120.052 166.931 120.139 167.08L120.864 168.336C120.968 168.516 121.118 168.666 121.298 168.77L122.553 169.495C122.703 169.582 122.703 169.797 122.553 169.884Z" fill="#C9E78B"/>
<path d="M55.388 130.467L54.132 131.192C53.9522 131.295 53.8023 131.445 53.6986 131.626L52.9734 132.882C52.887 133.031 52.6719 133.031 52.5854 132.882L51.8602 131.626C51.7565 131.445 51.6067 131.295 51.4268 131.192L50.1709 130.467C50.0218 130.38 50.0218 130.165 50.1709 130.079L51.4268 129.354C51.6067 129.25 51.7565 129.101 51.8602 128.921L52.5854 127.665C52.6719 127.516 52.887 127.516 52.9734 127.665L53.6986 128.921C53.8023 129.101 53.9522 129.25 54.132 129.354L55.388 130.079C55.5371 130.165 55.5371 130.38 55.388 130.467Z" fill="#C9E78B"/>
<path d="M90.4402 147.993L89.1844 148.719C89.0044 148.822 88.8547 148.972 88.751 149.152L88.0257 150.408C87.9393 150.557 87.7242 150.557 87.6378 150.408L86.9125 149.152C86.8088 148.972 86.659 148.822 86.4792 148.719L85.2232 147.993C85.074 147.907 85.074 147.691 85.2232 147.606L86.4792 146.88C86.659 146.776 86.8088 146.627 86.9125 146.447L87.6378 145.191C87.7242 145.042 87.9393 145.042 88.0257 145.191L88.751 146.447C88.8547 146.627 89.0044 146.776 89.1844 146.88L90.4402 147.606C90.5894 147.691 90.5894 147.907 90.4402 147.993Z" fill="#C9E78B"/>
<path d="M39.8089 92.4933L38.5529 93.2186C38.3731 93.3223 38.2232 93.472 38.1195 93.6519L37.3943 94.9078C37.3079 95.057 37.0928 95.057 37.0063 94.9078L36.2811 93.6519C36.1774 93.472 36.0276 93.3223 35.8477 93.2186L34.5918 92.4933C34.4427 92.4068 34.4427 92.1918 34.5918 92.1054L35.8477 91.3801C36.0276 91.2764 36.1774 91.1266 36.2811 90.9468L37.0063 89.6908C37.0928 89.5417 37.3079 89.5417 37.3943 89.6908L38.1195 90.9468C38.2232 91.1266 38.3731 91.2764 38.5529 91.3801L39.8089 92.1054C39.958 92.1918 39.958 92.4068 39.8089 92.4933Z" fill="#C9E78B"/>
<path d="M31.0774 41.0336L30.1784 41.5527C30.0496 41.6269 29.9424 41.7342 29.8682 41.863L29.349 42.7621C29.2871 42.8688 29.1331 42.8688 29.0713 42.7621L28.5521 41.863C28.4779 41.7342 28.3707 41.6269 28.2419 41.5527L27.3427 41.0336C27.236 40.9716 27.236 40.8177 27.3427 40.7559L28.2419 40.2367C28.3707 40.1625 28.4779 40.0552 28.5521 39.9265L29.0713 39.0274C29.1331 38.9207 29.2871 38.9207 29.349 39.0274L29.8682 39.9265C29.9424 40.0552 30.0496 40.1625 30.1784 40.2367L31.0774 40.7559C31.1842 40.8177 31.1842 40.9716 31.0774 41.0336Z" fill="#C9E78B"/>
<path d="M44.7092 156.902L43.8102 157.421C43.6814 157.495 43.5742 157.602 43.5 157.731L42.9808 158.631C42.9189 158.737 42.765 158.737 42.7031 158.631L42.184 157.731C42.1097 157.602 42.0025 157.495 41.8738 157.421L40.9746 156.902C40.8679 156.84 40.8679 156.686 40.9746 156.624L41.8738 156.105C42.0025 156.031 42.1097 155.924 42.184 155.795L42.7031 154.896C42.765 154.789 42.9189 154.789 42.9808 154.896L43.5 155.795C43.5742 155.924 43.6814 156.031 43.8102 156.105L44.7092 156.624C44.816 156.686 44.816 156.84 44.7092 156.902Z" fill="#C9E78B"/>
<path d="M10.6301 70.2441L9.7311 70.7633C9.60234 70.8375 9.49511 70.9448 9.42088 71.0735L8.9017 71.9726C8.83984 72.0793 8.68586 72.0793 8.624 71.9726L8.10482 71.0735C8.03059 70.9448 7.92336 70.8375 7.7946 70.7633L6.8955 70.2441C6.78874 70.1822 6.78874 70.0282 6.8955 69.9664L7.7946 69.4473C7.92336 69.3731 8.03059 69.2658 8.10482 69.137L8.624 68.2379C8.68586 68.1312 8.83984 68.1312 8.9017 68.2379L9.42088 69.137C9.49511 69.2658 9.60234 69.3731 9.7311 69.4473L10.6301 69.9664C10.7369 70.0282 10.7369 70.1822 10.6301 70.2441Z" fill="#C9E78B"/>
<path d="M18.4197 124.771L17.5207 125.29C17.3919 125.364 17.2847 125.471 17.2105 125.599L16.6913 126.499C16.6294 126.605 16.4754 126.605 16.4136 126.499L15.8944 125.599C15.8201 125.471 15.7129 125.364 15.5842 125.29L14.685 124.771C14.5783 124.708 14.5783 124.555 14.685 124.492L15.5842 123.973C15.7129 123.899 15.8201 123.792 15.8944 123.664L16.4136 122.764C16.4754 122.658 16.6294 122.658 16.6913 122.764L17.2105 123.664C17.2847 123.792 17.3919 123.899 17.5207 123.973L18.4197 124.492C18.5265 124.555 18.5265 124.708 18.4197 124.771Z" fill="#C9E78B"/>
</g>
</g>
<defs>
<linearGradient id="paint0_linear_2251_51266" x1="3.02091" y1="185" x2="111.974" y2="185" gradientUnits="userSpaceOnUse">
<stop stop-color="white" stop-opacity="0"/>
<stop offset="1" stop-color="white"/>
</linearGradient>
<clipPath id="clip0_2251_51266">
<rect width="235.632" height="185" fill="white"/>
</clipPath>
</defs>
</svg>
