<svg width="6" height="6" viewBox="0 0 6 6" fill="none" xmlns="http://www.w3.org/2000/svg">
<path d="M5.41551 4.37799C5.62501 4.63159 5.74629 4.86313 5.77937 5.07262C5.81245 5.27109 5.72975 5.41443 5.53129 5.50263C5.48718 5.52469 5.42103 5.5302 5.33282 5.51917C5.25564 5.49712 5.16743 5.46956 5.0682 5.43648C4.97999 5.39238 4.89178 5.34276 4.80358 5.28763C4.71537 5.2325 4.6437 5.17737 4.58857 5.12224C4.346 4.84659 4.10343 4.57095 3.86086 4.2953C3.62932 4.01965 3.38675 3.744 3.13315 3.46836L1.33042 5.30417C1.14298 5.45853 0.972077 5.52469 0.817714 5.50263C0.663352 5.46956 0.58617 5.38686 0.58617 5.25455C0.58617 5.04506 0.619248 4.85211 0.685403 4.67569C0.762585 4.48825 0.861818 4.31184 0.983103 4.14645C1.20362 3.88183 1.42965 3.62272 1.6612 3.36912C1.89274 3.11553 2.12428 2.86193 2.35583 2.60834C2.06915 2.31064 1.77697 2.01845 1.47927 1.73178C1.19259 1.43408 0.894895 1.14189 0.58617 0.855219C0.45386 0.855219 0.365652 0.833167 0.321549 0.789063C0.277445 0.74496 0.249881 0.695343 0.238855 0.640214C0.238855 0.574058 0.249881 0.513416 0.271932 0.458286C0.293984 0.403157 0.316036 0.364566 0.338088 0.342514C0.536554 0.144048 0.73502 0.050328 0.933486 0.0613541C1.13195 0.0613541 1.33042 0.121997 1.52888 0.243281C2.11326 0.706369 2.65904 1.20805 3.16623 1.74832C3.60727 1.28523 4.05933 0.833167 4.52242 0.392131C4.66575 0.303924 4.82011 0.248794 4.9855 0.226742C5.15089 0.204691 5.33282 0.243281 5.53129 0.342514C5.63052 0.463799 5.65808 0.607136 5.61398 0.772525C5.5809 0.926887 5.49269 1.08125 5.34936 1.23561L3.97663 2.62488C4.23023 2.91155 4.47831 3.20373 4.72088 3.50143C4.96345 3.79913 5.195 4.09132 5.41551 4.37799Z" fill="#7A52F4"/>
<path d="M5.41551 4.37799C5.62501 4.63159 5.74629 4.86313 5.77937 5.07262C5.81245 5.27109 5.72975 5.41443 5.53129 5.50263C5.48718 5.52469 5.42103 5.5302 5.33282 5.51917C5.25564 5.49712 5.16743 5.46956 5.0682 5.43648C4.97999 5.39238 4.89178 5.34276 4.80358 5.28763C4.71537 5.2325 4.6437 5.17737 4.58857 5.12224C4.346 4.84659 4.10343 4.57095 3.86086 4.2953C3.62932 4.01965 3.38675 3.744 3.13315 3.46836L1.33042 5.30417C1.14298 5.45853 0.972077 5.52469 0.817714 5.50263C0.663352 5.46956 0.58617 5.38686 0.58617 5.25455C0.58617 5.04506 0.619248 4.85211 0.685403 4.67569C0.762585 4.48825 0.861818 4.31184 0.983103 4.14645C1.20362 3.88183 1.42965 3.62272 1.6612 3.36912C1.89274 3.11553 2.12428 2.86193 2.35583 2.60834C2.06915 2.31064 1.77697 2.01845 1.47927 1.73178C1.19259 1.43408 0.894895 1.14189 0.58617 0.855219C0.45386 0.855219 0.365652 0.833167 0.321549 0.789063C0.277445 0.74496 0.249881 0.695343 0.238855 0.640214C0.238855 0.574058 0.249881 0.513416 0.271932 0.458286C0.293984 0.403157 0.316036 0.364566 0.338088 0.342514C0.536554 0.144048 0.73502 0.050328 0.933486 0.0613541C1.13195 0.0613541 1.33042 0.121997 1.52888 0.243281C2.11326 0.706369 2.65904 1.20805 3.16623 1.74832C3.60727 1.28523 4.05933 0.833167 4.52242 0.392131C4.66575 0.303924 4.82011 0.248794 4.9855 0.226742C5.15089 0.204691 5.33282 0.243281 5.53129 0.342514C5.63052 0.463799 5.65808 0.607136 5.61398 0.772525C5.5809 0.926887 5.49269 1.08125 5.34936 1.23561L3.97663 2.62488C4.23023 2.91155 4.47831 3.20373 4.72088 3.50143C4.96345 3.79913 5.195 4.09132 5.41551 4.37799Z" fill="white" fill-opacity="0.5"/>
</svg>
