<svg width="15" height="16" viewBox="0 0 15 16" fill="none" xmlns="http://www.w3.org/2000/svg">
<path d="M8.16682 13.3333C9.05055 13.3323 9.89779 12.9807 10.5227 12.3559C11.1476 11.731 11.4991 10.8837 11.5002 10V4.16201C11.5012 3.81158 11.4327 3.46443 11.2985 3.14069C11.1644 2.81694 10.9674 2.52304 10.7188 2.27601L9.22416 0.781344C8.97713 0.532794 8.68322 0.335747 8.35948 0.201625C8.03573 0.0675032 7.68859 -0.0010253 7.33816 1.15931e-05H4.16683C3.2831 0.00107016 2.43587 0.352599 1.81098 0.977491C1.18608 1.60238 0.834555 2.44961 0.833496 3.33334V10C0.834555 10.8837 1.18608 11.731 1.81098 12.3559C2.43587 12.9807 3.2831 13.3323 4.16683 13.3333H8.16682ZM2.16683 10V3.33334C2.16683 2.80291 2.37754 2.2942 2.75261 1.91913C3.12769 1.54406 3.63639 1.33334 4.16683 1.33334C4.16683 1.33334 7.44616 1.34268 7.50016 1.34934V2.66668C7.50016 3.0203 7.64063 3.35944 7.89068 3.60948C8.14073 3.85953 8.47987 4.00001 8.83349 4.00001H10.1508C10.1575 4.05401 10.1668 10 10.1668 10C10.1668 10.5304 9.95611 11.0391 9.58104 11.4142C9.20597 11.7893 8.69726 12 8.16682 12H4.16683C3.63639 12 3.12769 11.7893 2.75261 11.4142C2.37754 11.0391 2.16683 10.5304 2.16683 10ZM14.1668 5.33334V12.6667C14.1658 13.5504 13.8142 14.3976 13.1893 15.0225C12.5645 15.6474 11.7172 15.9989 10.8335 16H4.83349C4.65668 16 4.48711 15.9298 4.36209 15.8047C4.23707 15.6797 4.16683 15.5101 4.16683 15.3333C4.16683 15.1565 4.23707 14.987 4.36209 14.8619C4.48711 14.7369 4.65668 14.6667 4.83349 14.6667H10.8335C11.3639 14.6667 11.8726 14.456 12.2477 14.0809C12.6228 13.7058 12.8335 13.1971 12.8335 12.6667V5.33334C12.8335 5.15653 12.9037 4.98696 13.0287 4.86194C13.1538 4.73691 13.3233 4.66668 13.5002 4.66668C13.677 4.66668 13.8465 4.73691 13.9716 4.86194C14.0966 4.98696 14.1668 5.15653 14.1668 5.33334Z" fill="#343EDF"/>
</svg>
