<svg width="22" height="22" viewBox="0 0 22 22" fill="none" xmlns="http://www.w3.org/2000/svg">
<path fill-rule="evenodd" clip-rule="evenodd" d="M10.5728 3H5.24854V10.0712H2V12.4283H5.24854V19.5H10.5728C13.3831 19.5 13.9887 19.2057 15.1998 18.6171C15.2938 18.5714 15.3915 18.5239 15.4941 18.4746C16.9188 17.7911 18.026 16.8286 18.8157 15.5871C19.6054 14.3457 20.0002 12.9 20.0002 11.25C20.0002 9.59999 19.6054 8.15429 18.8157 6.91286C18.026 5.67142 16.9188 4.70893 15.4941 4.02536C14.0694 3.34178 12.429 3 10.5728 3ZM9.20508 12.4283V16.3657H10.3774C12.087 16.3657 13.4507 15.9061 14.4683 14.9868C15.486 14.0675 15.9948 12.8222 15.9948 11.2507C15.9948 9.67931 15.486 8.43396 14.4683 7.51467C13.4507 6.59538 12.087 6.13574 10.3774 6.13574H9.20508V10.0712H12.9905V12.4283H9.20508Z" fill="#FFCD00"/>
</svg>
