<svg width="20" height="18" viewBox="0 0 20 18" fill="none" xmlns="http://www.w3.org/2000/svg">
<path d="M15.1327 5.29101C14.9373 5.18663 14.7192 5.13202 14.4977 5.13202C14.2762 5.13202 14.0581 5.18663 13.8628 5.29101L11.0005 6.98338L9.00062 8.09455L6.13834 9.78817C5.94297 9.89255 5.72489 9.94716 5.50339 9.94716C5.28188 9.94716 5.0638 9.89255 4.86843 9.78817L2.5936 8.46453C2.40646 8.35663 2.24994 8.20279 2.13883 8.01754C2.02773 7.83229 1.96571 7.62175 1.95865 7.40586V4.7623C1.95454 4.54405 2.01189 4.32904 2.12417 4.14183C2.23645 3.95463 2.39912 3.80278 2.5936 3.70363L4.86843 2.43373C5.0638 2.32935 5.28188 2.27474 5.50339 2.27474C5.72489 2.27474 5.94297 2.32935 6.13834 2.43373L8.41317 3.70363C8.60031 3.81153 8.75683 3.96537 8.86794 4.15062C8.97904 4.33587 9.04106 4.5464 9.04812 4.7623V6.45468L11.0005 5.29102V3.65113C11.0055 3.43392 10.9497 3.21964 10.8392 3.03254C10.7288 2.84544 10.5681 2.69299 10.3755 2.59247L6.19083 0.158895C5.99547 0.0545152 5.77738 -9.15527e-05 5.55588 -9.15527e-05C5.33438 -9.15527e-05 5.1163 0.0545152 4.92093 0.158895L0.688747 2.59247C0.477492 2.67437 0.297392 2.82072 0.173997 3.01075C0.0506026 3.20078 -0.00982024 3.42484 0.00130051 3.65114V8.57077C-0.00187457 8.78818 0.0559282 9.00214 0.168155 9.18837C0.280381 9.37461 0.442543 9.52567 0.636251 9.62444L4.86843 12.063C5.0638 12.1674 5.28188 12.222 5.50339 12.222C5.72489 12.222 5.94297 12.1674 6.13834 12.063L9.00062 10.4231L10.958 9.25947L13.8103 7.62459C14.0056 7.52021 14.2237 7.4656 14.4452 7.4656C14.6667 7.4656 14.8848 7.52021 15.0802 7.62459L17.355 8.8945C17.5421 9.00239 17.6987 9.15623 17.8098 9.34149C17.9209 9.52674 17.9829 9.73727 17.9899 9.95316V12.5455C17.9941 12.7637 17.9367 12.9787 17.8244 13.1659C17.7121 13.3531 17.5495 13.505 17.355 13.6041L15.0802 14.9265C14.8848 15.0309 14.6667 15.0855 14.4452 15.0855C14.2237 15.0855 14.0056 15.0309 13.8103 14.9265L11.5354 13.6566C11.3483 13.5487 11.1918 13.3949 11.0807 13.2096C10.9696 13.0244 10.9075 12.8139 10.9005 12.598V10.8993L9.00062 12.0093V13.7016C8.99651 13.9199 9.05386 14.1349 9.16614 14.3221C9.27842 14.5093 9.44109 14.6612 9.63557 14.7603L13.8678 17.1939C14.0631 17.2983 14.2812 17.3529 14.5027 17.3529C14.7242 17.3529 14.9423 17.2983 15.1377 17.1939L19.3698 14.7603C19.5559 14.6519 19.7113 14.498 19.8215 14.313C19.9317 14.128 19.993 13.9181 19.9998 13.7029V8.782C20.0039 8.56374 19.9466 8.34873 19.8343 8.16152C19.722 7.97432 19.5593 7.82247 19.3648 7.72332L15.1327 5.29101Z" fill="#8F5AE8"/>
</svg>
