<svg width="20" height="20" viewBox="0 0 20 20" fill="none" xmlns="http://www.w3.org/2000/svg">
<path d="M11.5 20C16.3113 19.2721 20 15.0973 20 10.0562C20 4.5023 15.5228 -1.05534e-07 10 -6.79865e-08C4.47715 -3.04386e-08 3.06095e-08 4.5023 6.83683e-08 10.0562C1.02641e-07 15.0973 3.68874 19.2721 8.5 20L8.5 13.073L7 13.073C6.17157 13.073 5.5 12.3976 5.5 11.5646C5.5 10.7315 6.17157 10.0562 7 10.0562L8.5 10.0562L8.5 8.04493C8.5 6.10107 10.067 4.52527 12 4.52527L12.5 4.52527C13.3284 4.52527 14 5.20062 14 6.0337C14 6.86678 13.3284 7.54212 12.5 7.54212L12 7.54212C11.7239 7.54212 11.5 7.76724 11.5 8.04493L11.5 10.0562L13 10.0562C13.8284 10.0562 14.5 10.7315 14.5 11.5646C14.5 12.3976 13.8284 13.073 13 13.073L11.5 13.073L11.5 20Z" fill="#4362D2"/>
</svg>
