<svg width="20" height="20" viewBox="0 0 20 20" fill="none" xmlns="http://www.w3.org/2000/svg">
<g clip-path="url(#clip0_1412_982)">
<path d="M6.6667 20C8.50671 20 10.0001 18.5066 10.0001 16.6666V13.3333H6.6667C4.82668 13.3333 3.33331 14.8266 3.33331 16.6666C3.33331 18.5066 4.82668 20 6.6667 20Z" fill="#0ACF83"/>
<path d="M3.33331 9.99999C3.33331 8.15999 4.82668 6.66663 6.6667 6.66663H10.0001V13.3333H6.6667C4.82668 13.3333 3.33331 11.84 3.33331 9.99999Z" fill="#A259FF"/>
<path d="M3.33331 3.33336C3.33331 1.49336 4.82668 0 6.6667 0H10.0001V6.66664H6.6667C4.82668 6.66664 3.33331 5.17336 3.33331 3.33336Z" fill="#F24E1E"/>
<path d="M9.99988 0H13.3333C15.1733 0 16.6666 1.49336 16.6666 3.33336C16.6666 5.17336 15.1733 6.66664 13.3333 6.66664H9.99988V0Z" fill="#FF7262"/>
<path d="M16.6666 9.99999C16.6666 11.84 15.1733 13.3333 13.3333 13.3333C11.4932 13.3333 9.99988 11.84 9.99988 9.99999C9.99988 8.15999 11.4932 6.66663 13.3333 6.66663C15.1733 6.66663 16.6666 8.15999 16.6666 9.99999Z" fill="#1ABCFE"/>
</g>
<defs>
<clipPath id="clip0_1412_982">
<rect width="20" height="20" fill="white"/>
</clipPath>
</defs>
</svg>
