<svg width="20" height="21" viewBox="0 0 20 21" fill="none" xmlns="http://www.w3.org/2000/svg">
<path d="M5.52372 0.330355C6.14234 0.540735 6.90757 0.876036 7.64877 1.37589C8.54702 1.14432 9.50622 1.01978 10.5002 1.01978C11.4931 1.01978 12.4514 1.14407 13.3489 1.37519C14.0899 0.875586 14.855 0.540455 15.4734 0.330185C16.1703 0.0932454 17.1636 -0.291495 17.7533 0.361815C18.1537 0.805355 18.253 1.54976 18.3244 2.11729C18.4042 2.75148 18.4228 3.57814 18.2129 4.39775C19.0158 5.43455 19.5002 6.67222 19.5002 8.01978C19.5002 10.062 18.3941 11.8346 16.757 13.0624C16.0035 13.6275 15.1275 14.0871 14.1668 14.4186C14.3812 14.9089 14.5002 15.4505 14.5002 16.0198L14.5002 19.0198C14.5002 19.5721 14.0524 20.0198 13.5002 20.0198L7.50017 20.0198C6.94789 20.0198 6.50017 19.5721 6.50017 19.0198L6.50017 18.0285C5.54485 18.1455 4.74425 18.042 4.06272 17.7529C3.35093 17.4509 2.85481 16.9825 2.48193 16.535C2.12823 16.1106 1.74262 15.1547 1.18392 14.9685C0.659982 14.7938 0.376822 14.2275 0.551462 13.7036C0.726112 13.1796 1.29243 12.8965 1.81637 13.0711C2.48215 13.293 2.91566 13.7732 3.21331 14.1584C3.69237 14.7783 4.08376 15.5893 4.84382 15.9117C5.15638 16.0443 5.61558 16.1323 6.33242 16.0335L6.50022 16C6.50295 15.4379 6.62161 14.9032 6.83353 14.4186C5.87285 14.0871 4.99678 13.6275 4.24332 13.0624C2.60618 11.8346 1.50017 10.062 1.50017 8.01978C1.50017 6.6738 1.98341 5.43743 2.7846 4.40137C2.57391 3.58112 2.59229 2.75357 2.67204 2.11875C2.67364 2.106 2.67524 2.0932 2.67685 2.08035C2.74973 1.49887 2.83561 0.813605 3.24319 0.361925C3.83278 -0.291425 4.82688 0.0933855 5.52372 0.330355Z" fill="#09244B"/>
</svg>
