<svg width="20" height="20" viewBox="0 0 20 20" fill="none" xmlns="http://www.w3.org/2000/svg">
<path d="M6 4C9.3137 4 12 6.68629 12 10C12 13.3137 9.3137 16 6 16C2.68629 16 6.33206e-08 13.3137 4.07919e-08 10C1.82631e-08 6.68629 2.68629 4 6 4ZM15 5C16.5 5 17.5 7.23858 17.5 10C17.5 12.7614 16.5 15 15 15C13.5 15 12.5 12.7614 12.5 10C12.5 7.23858 13.5 5 15 5ZM19 5.5C19.3809 5.5 19.712 6.32691 19.8809 7.74596L19.9266 8.1892C19.9333 8.26596 19.9397 8.34414 19.9455 8.42371L19.9753 8.9176C19.9794 9.00262 19.9829 9.08898 19.986 9.17664L19.9984 9.71801C19.9995 9.81077 20 9.90478 20 10L19.9984 10.282L19.986 10.8234C19.9829 10.911 19.9794 10.9974 19.9753 11.0824L19.9455 11.5763C19.9397 11.6559 19.9333 11.734 19.9266 11.8108L19.8809 12.254C19.712 13.6731 19.3809 14.5 19 14.5C18.6191 14.5 18.288 13.6731 18.1191 12.254L18.0734 11.8108C18.0667 11.734 18.0603 11.6559 18.0545 11.5763L18.0247 11.0824C18.0206 10.9974 18.0171 10.911 18.014 10.8234L18.0016 10.282L18.0016 9.71801L18.014 9.17664C18.0171 9.08898 18.0206 9.00262 18.0247 8.9176L18.0545 8.42371C18.0603 8.34414 18.0667 8.26596 18.0734 8.1892L18.1191 7.74596C18.288 6.32691 18.6191 5.5 19 5.5Z" fill="#09244B"/>
</svg>
