<svg width="20" height="20" viewBox="0 0 20 20" fill="none" xmlns="http://www.w3.org/2000/svg">
<path d="M10 20C15.5228 20 20 15.5228 20 10C20 4.47715 15.5228 0 10 0C4.47715 0 0 4.47715 0 10C0 15.5228 4.47715 20 10 20Z" fill="#FF4500"/>
<path d="M16.6669 10C16.6669 9.19298 16.0119 8.53801 15.2049 8.53801C14.8072 8.53801 14.4563 8.69006 14.199 8.94737C13.2049 8.23392 11.8248 7.76608 10.3043 7.7076L10.971 4.5848L13.1347 5.04094C13.1581 5.59064 13.6142 6.03509 14.1756 6.03509C14.7487 6.03509 15.2166 5.56725 15.2166 4.99415C15.2166 4.42105 14.7487 3.95322 14.1756 3.95322C13.7663 3.95322 13.4154 4.18713 13.2517 4.53801L10.8306 4.02339C10.7604 4.0117 10.6903 4.02339 10.6318 4.05848C10.5733 4.09357 10.5382 4.15205 10.5148 4.22222L9.77799 7.7076C8.22243 7.75439 6.83062 8.21053 5.82477 8.94737C5.56746 8.70175 5.20489 8.53801 4.81892 8.53801C4.0119 8.53801 3.35693 9.19298 3.35693 10C3.35693 10.5965 3.70781 11.0994 4.22243 11.3333C4.19904 11.4737 4.18734 11.6257 4.18734 11.7778C4.18734 14.0234 6.79553 15.8363 10.0236 15.8363C13.2517 15.8363 15.8599 14.0234 15.8599 11.7778C15.8599 11.6257 15.8482 11.4854 15.8248 11.345C16.3043 11.1111 16.6669 10.5965 16.6669 10ZM6.66687 11.0409C6.66687 10.4678 7.13471 10 7.70781 10C8.28091 10 8.74875 10.4678 8.74875 11.0409C8.74875 11.614 8.28091 12.0819 7.70781 12.0819C7.13471 12.0819 6.66687 11.614 6.66687 11.0409ZM12.4797 13.7895C11.7663 14.5029 10.4096 14.5497 10.0119 14.5497C9.61424 14.5497 8.24582 14.4912 7.54407 13.7895C7.4388 13.6842 7.4388 13.5088 7.54407 13.4035C7.64933 13.2982 7.82477 13.2982 7.93003 13.4035C8.37448 13.848 9.33354 14.0117 10.0236 14.0117C10.7137 14.0117 11.661 13.848 12.1172 13.4035C12.2224 13.2982 12.3979 13.2982 12.5031 13.4035C12.585 13.5205 12.585 13.6842 12.4797 13.7895ZM12.2926 12.0819C11.7195 12.0819 11.2517 11.614 11.2517 11.0409C11.2517 10.4678 11.7195 10 12.2926 10C12.8657 10 13.3335 10.4678 13.3335 11.0409C13.3335 11.614 12.8657 12.0819 12.2926 12.0819Z" fill="white"/>
</svg>
