<svg width="20" height="20" viewBox="0 0 20 20" fill="none" xmlns="http://www.w3.org/2000/svg">
<path fill-rule="evenodd" clip-rule="evenodd" d="M10 -6.79868e-08C6.68512 -4.54498e-08 3.99787 2.68629 3.99787 6L3.99787 7.875L3.09755 7.2C2.65556 6.86863 2.02854 6.95817 1.69705 7.4C1.36556 7.84183 1.45513 8.4686 1.89712 8.8L3.7643 10.1999C3.31957 11.3676 2.23602 12.5905 0.482125 13.6425C-0.000707009 13.9321 -0.147879 14.5864 0.164452 15.0547C1.28274 16.7315 3.05738 18 4.99822 18C6.78322 18 8.00684 20 10 20C12.0121 20 13.2103 18 15.0017 18C16.9425 18 18.7174 16.7316 19.8356 15.0547C20.1479 14.5863 20.0007 13.9321 19.5179 13.6425C17.764 12.5905 16.6804 11.3676 16.2357 10.1999L18.1029 8.8C18.5449 8.4686 18.6344 7.84183 18.303 7.4C17.9715 6.95817 17.3445 6.86863 16.9025 7.2L16.0021 7.87504L16.0022 6.00003C16.0022 2.68632 13.3149 -9.05236e-08 10 -6.79868e-08Z" fill="#FFC700"/>
</svg>
