<svg width="20" height="18" viewBox="0 0 20 18" fill="none" xmlns="http://www.w3.org/2000/svg">
<path fill-rule="evenodd" clip-rule="evenodd" d="M14 7C17.1536 7 20 9.1859 20 12.213C20 13.9087 19.0792 15.366 17.7399 16.2931C17.6961 16.558 17.7321 16.8253 17.7321 17.0917C17.7321 17.5934 17.3304 18 16.8349 18C16.1551 18 15.525 17.7758 14.9918 17.3553C14.6686 17.4019 14.3373 17.426 14 17.426C10.8464 17.426 8 15.2401 8 12.213C8 9.1859 10.8464 7 14 7ZM7.5 -5.09899e-08C11.2774 -7.66711e-08 14.6488 2.5354 14.9743 6.0623C14.6519 6.02108 14.3262 6 14 6C10.4669 6 7 8.4729 7 12.2089C7 12.5631 7.03117 12.906 7.0906 13.2365C6.77649 13.2216 6.46717 13.1896 6.16389 13.1416C5.49325 13.691 4.72062 14 3.85417 14C3.3364 14 2.91667 13.5661 2.91667 13.0308L2.92129 12.8333L2.93829 12.4358C2.94274 12.2371 2.93443 12.0394 2.88345 11.8468C1.16999 10.6654 5.97826e-08 8.7933 4.5028e-08 6.62308C1.90859e-08 2.8073 3.52517 -2.39664e-08 7.5 -5.09899e-08ZM12 10C11.4477 10 11 10.4477 11 11C11 11.5523 11.4477 12 12 12C12.5523 12 13 11.5523 13 11C13 10.4477 12.5523 10 12 10ZM16 10C15.4477 10 15 10.4477 15 11C15 11.5523 15.4477 12 16 12C16.5523 12 17 11.5523 17 11C17 10.4477 16.5523 10 16 10ZM5 3C4.44772 3 4 3.44772 4 4C4 4.55228 4.44772 5 5 5C5.55228 5 6 4.55228 6 4C6 3.44772 5.55228 3 5 3ZM10 3C9.4477 3 9 3.44772 9 4C9 4.55228 9.4477 5 10 5C10.5523 5 11 4.55228 11 4C11 3.44772 10.5523 3 10 3Z" fill="#3DDC4C"/>
</svg>
